<svg width="86" height="40" viewBox="0 0 86 40" fill="none" xmlns="http://www.w3.org/2000/svg">
<g>
<path d="M15.4963 18.1562V20.4662C15.3861 20.4662 14.8664 20.4662 13.827 20.4662C12.7876 20.4662 12.2522 20.4662 12.0947 20.4662V18.1562C8.74039 18.3145 6.2207 18.8999 6.2207 19.6118C6.2207 20.3238 8.74039 20.8933 12.0947 21.0515C12.3152 21.0515 12.9294 21.0515 13.8113 21.0515C14.6931 21.0515 15.3861 21.0515 15.4963 21.0515C18.8506 20.8933 21.3546 20.3079 21.3546 19.6118C21.3546 18.9157 18.8506 18.3145 15.4963 18.1562Z" fill="white"/>
<path d="M13.7795 6.00001C6.16931 6.00001 0 12.198 0 19.8436C0 27.4892 6.16931 33.6872 13.7795 33.6872C21.3898 33.6872 27.5591 27.4892 27.5591 19.8436C27.5632 16.1708 26.1128 12.6472 23.5277 10.0501C20.9427 7.45297 17.4354 5.9958 13.7795 6.00001ZM15.4961 21.6789V28.2764H12.0945V21.6789C8.28347 21.5049 5.41732 20.7454 5.41732 19.8436C5.41732 18.9418 8.28347 18.1666 12.0945 18.0716V16.0149H7.37008V12.8506H20.126V16.0149H15.4016V18.0716C19.1969 18.2615 22.063 19.0051 22.063 19.9227C22.063 20.8404 19.2913 21.5049 15.4961 21.6789Z" fill="white"/>
<path d="M43.8736 15.1337H39.7791V26.4934H37.4956V15.1337H33.4326V13.251H43.8736V15.1337Z" fill="white"/>
<path d="M48.8977 26.6842C47.6336 26.7368 46.4056 26.2547 45.5118 25.3552C44.6147 24.4143 44.1421 23.1442 44.2047 21.8429V21.5581C44.189 20.6504 44.3831 19.7514 44.7717 18.9317C45.1215 18.1965 45.6664 17.5724 46.3465 17.1281C47.0263 16.703 47.8135 16.4833 48.6142 16.4953C49.8056 16.405 50.9706 16.8791 51.7638 17.7768C52.5606 18.8019 52.9531 20.0863 52.8662 21.384V22.2859H46.4252C46.4465 23.0022 46.7329 23.6847 47.2284 24.2002C47.703 24.6769 48.3529 24.9346 49.0236 24.9122C49.9904 24.9287 50.9054 24.4749 51.4803 23.694L52.6614 24.8173C52.2699 25.4106 51.7257 25.8863 51.0866 26.1937C50.4038 26.5229 49.655 26.6907 48.8977 26.6842ZM48.6299 18.2673C48.0719 18.2464 47.5341 18.4788 47.1654 18.9001C46.7671 19.4115 46.5214 20.026 46.4567 20.6721H50.6457V20.4981C50.6389 19.8901 50.4343 19.3011 50.063 18.821C49.6895 18.4339 49.1654 18.2314 48.6299 18.2673Z" fill="white"/>
<path d="M57.2756 14.2803V16.6693H58.9922V18.2514H57.2756V23.7414C57.2429 24.0288 57.3219 24.3179 57.4961 24.5483C57.7094 24.7437 57.9969 24.8362 58.2835 24.8014C58.5435 24.8001 58.8025 24.7682 59.0551 24.7065V26.4152C58.5845 26.5548 58.097 26.6293 57.6063 26.6367C55.9213 26.6367 55.0709 25.6874 55.0709 23.8205V18.2989H53.4961V16.7168H55.0709V14.2803H57.2756Z" fill="white"/>
<path d="M62.8345 17.745C63.5043 16.9314 64.5082 16.4709 65.5589 16.4952C67.6376 16.4952 68.7085 17.6818 68.7085 20.0708V26.4942H66.5353V20.1657C66.5823 19.6511 66.4237 19.1388 66.0943 18.7418C65.7363 18.4348 65.2725 18.2814 64.803 18.3146C63.9759 18.2867 63.2079 18.7435 62.8345 19.4854V26.51H60.6455V12.5557H62.8345V17.745Z" fill="white"/>
<path d="M75.26 26.6842C73.9959 26.7368 72.7679 26.2547 71.8741 25.3552C70.9771 24.4143 70.5044 23.1442 70.567 21.8429V21.5581C70.5464 20.6516 70.7351 19.7527 71.1182 18.9317C71.468 18.1965 72.0129 17.5724 72.693 17.1281C73.3728 16.703 74.1601 16.4833 74.9607 16.4953C76.1522 16.405 77.3172 16.8791 78.1103 17.7768C78.9072 18.8019 79.2997 20.0863 79.2127 21.384V22.2859H72.7875C72.8088 23.0022 73.0952 23.6847 73.5907 24.2002C74.0653 24.6769 74.7152 24.9346 75.3859 24.9122C76.3515 24.9235 77.2643 24.4708 77.8426 23.694L79.0237 24.8173C78.6322 25.4106 78.088 25.8863 77.4489 26.1937C76.7661 26.5229 76.0173 26.6907 75.26 26.6842ZM74.9922 18.2673C74.4342 18.2464 73.8964 18.4788 73.5277 18.9001C73.1294 19.4115 72.8837 20.026 72.819 20.6721H77.008V20.4981C77.0012 19.8901 76.7966 19.3011 76.4253 18.821C76.0518 18.4339 75.5277 18.2314 74.9922 18.2673Z" fill="white"/>
<path d="M86.0001 18.678C85.7014 18.6534 85.4012 18.6534 85.1024 18.678C84.2487 18.5849 83.4311 19.0497 83.0709 19.833V26.557H80.8662V16.6687H82.9765V17.7762C83.419 16.9723 84.2669 16.4794 85.1812 16.4947C85.4445 16.4809 85.7076 16.5241 85.9528 16.6213L86.0001 18.678Z" fill="white"/>
</g>
</svg>
