<svg width="86" height="40" viewBox="0 0 86 40" fill="none" xmlns="http://www.w3.org/2000/svg">
<g>
<path d="M73.4022 29.5917C73.7281 29.7247 74.005 29.9557 74.1951 30.2531C74.383 30.5487 74.4769 30.8947 74.4644 31.2451C74.4921 31.966 74.0674 32.627 73.4022 32.8986C73.0228 33.0554 72.6154 33.1321 72.2052 33.1241H70.9933V34.6272H70.0059V29.3662H72.2052C72.616 29.3507 73.0249 29.4277 73.4022 29.5917ZM73.1329 32.0568C73.3615 31.8572 73.488 31.5643 73.477 31.2602C73.4878 30.9604 73.3609 30.6722 73.1329 30.4785C72.8456 30.2745 72.496 30.1787 72.1454 30.208H70.9933V32.3274H72.1603C72.5059 32.3531 72.8497 32.2574 73.1329 32.0568Z" fill="white"/>
<path d="M78.2951 31.0198C78.64 31.3573 78.8204 31.8297 78.7888 32.3125V34.7175H77.8612V34.2214C77.7368 34.3996 77.566 34.54 77.3675 34.6273C77.1197 34.7241 76.8552 34.7701 76.5895 34.7626C76.3124 34.7738 76.0363 34.7224 75.7815 34.6122C75.586 34.5125 75.4207 34.362 75.3028 34.1763C75.1764 33.991 75.1134 33.7694 75.1232 33.545C75.1016 33.2034 75.2467 32.8726 75.5122 32.6582C75.8908 32.4032 76.345 32.2864 76.7989 32.3275H77.8462C77.8646 32.0798 77.7713 31.837 77.5919 31.6661C77.3833 31.5032 77.1224 31.4229 76.8588 31.4406C76.6302 31.4388 76.4028 31.4744 76.1855 31.5459C75.9836 31.6097 75.7957 31.7117 75.6319 31.8465L75.2579 31.155C75.4863 30.9824 75.7452 30.8549 76.0209 30.7793C76.3322 30.6891 76.6545 30.6436 76.9785 30.644C77.448 30.6062 77.9154 30.7396 78.2951 31.0198ZM77.4273 33.9058C77.6141 33.8052 77.7578 33.6395 77.8313 33.4398V32.9438H76.7989C76.2603 32.9438 75.976 33.1241 75.976 33.4849C75.9733 33.647 76.0521 33.7996 76.1855 33.8907C76.3507 34.0082 76.5527 34.0616 76.754 34.0411C76.9769 34.0572 77.1997 34.0103 77.3974 33.9058H77.4273Z" fill="white"/>
<path d="M79.8651 29.8027C79.7495 29.6937 79.6844 29.5411 79.6856 29.3818C79.6848 29.227 79.7502 29.0792 79.8651 28.976C79.985 28.8698 80.1392 28.811 80.299 28.8106C80.4567 28.8081 80.6102 28.8613 80.7329 28.9609C80.8439 29.0657 80.904 29.2139 80.8975 29.3668C80.9107 29.5252 80.8499 29.6807 80.7329 29.7877C80.6205 29.9058 80.461 29.9665 80.299 29.953C80.1398 29.9664 79.9823 29.9118 79.8651 29.8027ZM79.8651 30.6294H80.8077V34.7179H79.7903L79.8651 30.6294Z" fill="white"/>
<path d="M85.9996 29.0361V34.718H85.072V34.1919C84.9179 34.3887 84.7173 34.5437 84.4885 34.6428C84.25 34.7372 83.9966 34.7881 83.7404 34.7931C83.3692 34.7944 83.0038 34.7014 82.6781 34.5226C82.3647 34.3578 82.1089 34.1009 81.945 33.786C81.7526 33.4427 81.6594 33.0523 81.6756 32.6587C81.6725 32.276 81.7651 31.8987 81.945 31.5614C82.1133 31.2499 82.368 30.994 82.6781 30.8249C83.0075 30.6575 83.3713 30.57 83.7404 30.5693C83.9908 30.5703 84.239 30.6162 84.4735 30.7046C84.6937 30.7973 84.8887 30.9416 85.042 31.1255V29.0361H85.9996ZM84.5034 33.786C84.6893 33.6891 84.8408 33.5368 84.9373 33.3501C85.0578 33.1406 85.1149 32.9003 85.1019 32.6587C85.1081 32.4225 85.0513 32.1889 84.9373 31.9823C84.8408 31.7956 84.6893 31.6433 84.5034 31.5464C84.2258 31.3824 83.8946 31.3362 83.583 31.418C83.2714 31.4998 83.005 31.7028 82.8427 31.9823C82.7359 32.1917 82.6795 32.4234 82.6781 32.6587C82.6795 32.894 82.7359 33.1257 82.8427 33.3351C82.9477 33.5154 83.0971 33.6655 83.2766 33.771C83.6585 33.9823 84.1215 33.9823 84.5034 33.771V33.786Z" fill="white"/>
<path d="M57.6772 29.8925C57.5145 29.7542 57.4213 29.5504 57.4229 29.3363C57.4215 29.1265 57.5151 28.9274 57.6772 28.7952C57.8493 28.6403 58.0749 28.5594 58.3056 28.5697C58.5392 28.5529 58.77 28.6284 58.949 28.7801C59.1073 28.914 59.1956 29.1135 59.1884 29.3213C59.2004 29.5385 59.1121 29.7493 58.949 29.8925C58.5773 30.1914 58.0489 30.1914 57.6772 29.8925ZM57.5875 30.5689H59.0836V34.7175H57.5875V30.5689Z" fill="white"/>
<path fill-rule="evenodd" clip-rule="evenodd" d="M63.8864 30.96C64.231 31.3345 64.4092 31.8337 64.3801 32.3429V34.7178H62.884V32.5834C62.884 32.0122 62.6595 31.7266 62.1957 31.7266C61.9701 31.7274 61.7544 31.8195 61.5972 31.9821C61.4388 32.1872 61.3639 32.4451 61.3878 32.7036V34.7028H59.8916V30.5692H61.2681V31.0201C61.4341 30.8513 61.6326 30.7183 61.8516 30.6293C62.0853 30.5382 62.334 30.4923 62.5847 30.494C63.0651 30.454 63.5394 30.6238 63.8864 30.96Z" fill="white"/>
<path fill-rule="evenodd" clip-rule="evenodd" d="M65.7418 34.6277C65.4563 34.5689 65.1797 34.4729 64.9189 34.3421L65.3528 33.3501C65.5639 33.4709 65.7904 33.5619 66.0261 33.6206C66.2741 33.6925 66.5311 33.7279 66.7892 33.7259C66.9573 33.74 67.1264 33.7143 67.2829 33.6507C67.3748 33.6233 67.4365 33.5366 67.4325 33.4403C67.4325 33.3501 67.4325 33.29 67.253 33.2449C67.0718 33.194 66.8866 33.1588 66.6994 33.1396C66.4163 33.1063 66.1362 33.0511 65.8615 32.9743C65.6342 32.9083 65.428 32.784 65.2631 32.6135C65.0958 32.4002 65.0107 32.1333 65.0237 31.862C65.0133 31.6073 65.0928 31.3571 65.2481 31.1555C65.4292 30.9246 65.6737 30.7522 65.9513 30.6595C66.2939 30.5244 66.6609 30.4629 67.0285 30.4791C67.3251 30.4786 67.6209 30.5088 67.9113 30.5693C68.1721 30.6157 68.4244 30.7019 68.6594 30.8248L68.2255 31.8169C67.8567 31.6206 67.4459 31.5175 67.0285 31.5163C66.8651 31.4888 66.6983 31.4888 66.5348 31.5163C66.4484 31.5512 66.3901 31.6333 66.3852 31.7267C66.3852 31.8319 66.3852 31.892 66.5498 31.9371C66.7411 31.9916 66.9361 32.0318 67.1333 32.0574C67.4166 32.0893 67.6968 32.1446 67.9711 32.2227C68.1928 32.2916 68.3935 32.4157 68.5546 32.5835C68.7325 32.7918 68.8235 33.061 68.809 33.335C68.8049 33.5945 68.7213 33.8465 68.5696 34.0565C68.3762 34.3113 68.1177 34.5087 67.8215 34.6277C67.4645 34.7473 67.0907 34.8082 66.7143 34.8081C66.3856 34.776 66.0603 34.7156 65.7418 34.6277Z" fill="white"/>
<path fill-rule="evenodd" clip-rule="evenodd" d="M52.7551 34.7479C51.2282 36.2746 48.7591 36.2706 47.2371 34.739C45.715 33.2074 45.715 30.7268 47.2371 29.1953C48.7591 27.6637 51.2282 27.6597 52.7551 29.1863L53.7426 28.1943C52.2289 26.6697 49.9497 26.212 47.969 27.0348C45.9882 27.8576 44.6963 29.7987 44.6963 31.9521C44.6963 34.1055 45.9882 36.0466 47.969 36.8694C49.9497 37.6922 52.2289 37.2345 53.7426 35.7099L53.8324 35.6047L52.7551 34.7479Z" fill="white"/>
<path fill-rule="evenodd" clip-rule="evenodd" d="M49.957 33.3646C49.5955 33.4023 49.2341 33.2933 48.953 33.0618C48.672 32.8303 48.4948 32.4956 48.4608 32.1321C48.4191 31.7681 48.526 31.4027 48.7573 31.1194C48.9885 30.8361 49.3242 30.6591 49.6877 30.6289C49.7668 30.6139 49.848 30.6139 49.9271 30.6289C50.2804 30.6284 50.6195 30.769 50.8697 31.0198L51.887 29.9826C50.7982 28.8966 49.0399 28.9009 47.9563 29.9922C46.8727 31.0835 46.8727 32.85 47.9563 33.9413C49.0399 35.0326 50.7982 35.0368 51.887 33.9509L50.8697 32.9287C50.6297 33.1826 50.3045 33.338 49.957 33.3646Z" fill="white"/>
<path d="M53.3983 34.5077C52.6977 34.1568 52.2549 33.4379 52.2549 32.6514C52.2549 31.8648 52.6977 31.146 53.3983 30.795C53.7665 30.6152 54.1709 30.5227 54.5803 30.5244C54.9992 30.5228 55.4133 30.6153 55.7922 30.795C56.133 30.9673 56.4183 31.2331 56.6151 31.5616C56.8177 31.8909 56.9216 32.2718 56.9143 32.6589C56.9385 33.4357 56.5285 34.1609 55.852 34.5378C55.4731 34.7175 55.0591 34.81 54.6401 34.8084C54.2073 34.8173 53.7796 34.7137 53.3983 34.5077ZM55.2087 33.3654C55.3735 33.1673 55.4636 32.9171 55.463 32.6589C55.4699 32.3951 55.3793 32.138 55.2087 31.9374C54.8698 31.5972 54.3206 31.5972 53.9818 31.9374C53.6317 32.3767 53.6317 33.0012 53.9818 33.4405C54.3206 33.7807 54.8698 33.7807 55.2087 33.4405V33.3654Z" fill="white"/>
<path d="M25.6289 18.1682V7.64631H28.726C29.5837 7.6307 30.4302 7.84332 31.1797 8.26259C31.8917 8.67899 32.4724 9.2885 32.8554 10.0213C33.2444 10.8364 33.4342 11.7331 33.409 12.6367V13.1778C33.4313 14.0863 33.2255 14.9858 32.8105 15.7933C32.4404 16.5352 31.8565 17.148 31.1348 17.5519C30.3631 17.9697 29.4977 18.1818 28.6213 18.1682H25.6289ZM27.4243 9.07428V16.5899H28.6063C29.4382 16.6434 30.2486 16.311 30.8057 15.6881C31.3591 14.9448 31.6345 14.0295 31.5837 13.1027V12.5165C31.6494 11.5855 31.3902 10.6607 30.8505 9.90101C30.3115 9.27958 29.5149 8.94612 28.6961 8.99913L27.4243 9.07428Z" fill="white"/>
<path d="M34.7563 14.1851C34.7409 13.4582 34.8946 12.7376 35.2051 12.0808C35.4883 11.499 35.9291 11.0092 36.4769 10.6678C37.0483 10.3325 37.7003 10.1609 38.362 10.1718C39.3206 10.1324 40.2506 10.504 40.9205 11.1939C41.604 11.9274 41.9838 12.8948 41.9828 13.8995V14.3054C41.9972 15.0178 41.8434 15.7235 41.5339 16.3647C41.2612 16.9487 40.8243 17.4399 40.2771 17.7776C39.6958 18.1154 39.0335 18.2869 38.362 18.2737C37.3659 18.3178 36.4015 17.9159 35.7288 17.1764C35.0424 16.36 34.6896 15.3126 34.7413 14.2453L34.7563 14.1851ZM36.5068 14.3355C36.4715 15.003 36.6441 15.665 37.0005 16.2294C37.317 16.673 37.8342 16.9271 38.377 16.9058C38.9245 16.9324 39.4461 16.6703 39.7535 16.2144C40.1206 15.6045 40.2929 14.8963 40.2472 14.1851C40.2898 13.5195 40.1109 12.8585 39.7385 12.3062C39.4162 11.8771 38.9121 11.6248 38.377 11.6248C37.8419 11.6248 37.3378 11.8771 37.0155 12.3062C36.6357 12.9112 36.4575 13.6219 36.5068 14.3355Z" fill="white"/>
<path d="M43.1642 14.1998C43.1125 13.1589 43.4131 12.1311 44.017 11.2837C44.5523 10.578 45.3935 10.1751 46.2762 10.2015C47.0807 10.1679 47.8549 10.5124 48.3709 11.1334V10.3518H49.9568V17.8674C49.9992 18.775 49.6502 19.6568 48.9993 20.2875C48.2896 20.9093 47.366 21.2276 46.4259 21.1743C45.8494 21.1774 45.2787 21.0597 44.7501 20.8286C44.2602 20.6287 43.8317 20.302 43.5083 19.8816L44.3462 18.8294C44.8201 19.4408 45.5498 19.7963 46.3211 19.7914C46.8231 19.8237 47.3175 19.6564 47.6976 19.3255C48.0613 18.9559 48.2469 18.4456 48.2063 17.9276V17.4015C47.6911 17.9698 46.9508 18.2783 46.1865 18.2432C45.3142 18.2599 44.4862 17.8579 43.9572 17.161C43.3722 16.2901 43.0931 15.248 43.1642 14.1998ZM44.8998 14.3501C44.8664 15.0012 45.0336 15.6468 45.3785 16.199C45.6708 16.6466 46.178 16.9042 46.7101 16.8754C47.3367 16.8765 47.9124 16.5294 48.2063 15.9735V12.5313C47.9161 11.9738 47.3362 11.63 46.7101 11.6445C46.1766 11.6279 45.6705 11.8821 45.3636 12.3209C45.0138 12.9368 44.8525 13.6426 44.8998 14.3501Z" fill="white"/>
<path d="M55.2538 18.3039C54.249 18.3475 53.2721 17.9659 52.5607 17.2517C51.849 16.5017 51.4757 15.4907 51.5283 14.4559V14.2455C51.5157 13.5187 51.6693 12.7988 51.9772 12.1411C52.2579 11.5584 52.6927 11.0644 53.234 10.7131C53.7755 10.3703 54.4044 10.1928 55.0443 10.202C55.9762 10.1394 56.8837 10.5174 57.4981 11.2242C58.1271 12.0481 58.4356 13.0742 58.3658 14.1102V14.8166H53.2789C53.3119 15.3778 53.5395 15.9097 53.9222 16.3198C54.3009 16.6919 54.8142 16.8927 55.3436 16.8759C56.1263 16.9112 56.8762 16.5571 57.3484 15.929L58.291 16.8308C57.9744 17.2947 57.5475 17.6718 57.0492 17.9281C56.4884 18.1932 55.8733 18.3219 55.2538 18.3039ZM55.0443 11.615C54.6014 11.5985 54.174 11.7802 53.8773 12.111C53.557 12.5175 53.3596 13.008 53.3088 13.524H56.6452V13.3887C56.641 12.9083 56.4779 12.4429 56.1814 12.0659C55.8836 11.7598 55.47 11.5958 55.0443 11.615Z" fill="white"/>
<path fill-rule="evenodd" clip-rule="evenodd" d="M62.914 16.9052C63.3134 16.9318 63.7068 16.7964 64.0062 16.5294C64.2864 16.2933 64.4547 15.9496 64.47 15.5825H66.1158C66.0995 16.0675 65.9436 16.5374 65.667 16.9353C65.3717 17.3615 64.9759 17.7075 64.5149 17.9424C64.0483 18.1707 63.5377 18.2939 63.0187 18.3031C62.0433 18.3556 61.095 17.9702 60.4303 17.2509C59.7378 16.4101 59.3949 15.3332 59.4728 14.2447V14.0643C59.4231 13.0278 59.7591 12.0097 60.4154 11.2083C61.0797 10.4871 62.0266 10.0966 63.0038 10.1411C63.8377 10.1065 64.6527 10.3974 65.2779 10.9528C65.8648 11.5055 66.1956 12.2791 66.1906 13.0873H64.5448C64.5474 12.6729 64.3795 12.2759 64.081 11.99C63.7914 11.7011 63.3968 11.5436 62.9888 11.5541C62.4786 11.5226 61.9878 11.755 61.6871 12.1704C61.3306 12.7281 61.1675 13.3887 61.2233 14.0493V14.3198C61.1736 14.9826 61.3305 15.6446 61.6722 16.2138C61.944 16.6395 62.4106 16.8993 62.914 16.9052Z" fill="white"/>
<path d="M67.1039 14.1848C67.0869 13.456 67.2461 12.7339 67.5677 12.0804C67.8415 11.4923 68.2845 11.0001 68.8395 10.6675C69.4094 10.3285 70.0625 10.1567 70.7247 10.1715C71.6784 10.1345 72.6029 10.506 73.2682 11.1936C73.9516 11.9271 74.3314 12.8945 74.3304 13.8992V14.3051C74.3449 15.0175 74.1911 15.7232 73.8816 16.3644C73.6134 16.9514 73.1754 17.4438 72.6248 17.7773C72.0487 18.1146 71.3913 18.2862 70.7247 18.2733C69.7237 18.3199 68.7537 17.918 68.0764 17.1761C67.3901 16.3597 67.0372 15.3123 67.089 14.2449L67.1039 14.1848ZM68.8545 14.3351C68.8102 14.9995 68.9723 15.6612 69.3183 16.2291C69.6395 16.6751 70.1622 16.9292 70.7097 16.9055C71.2566 16.9291 71.7769 16.6677 72.0862 16.214C72.4533 15.6042 72.6256 14.896 72.5799 14.1848C72.6107 13.5204 72.4327 12.8631 72.0712 12.3059C71.7563 11.8587 71.2398 11.5993 70.6947 11.6145C70.156 11.5927 69.6431 11.8475 69.3332 12.2909C68.9608 12.9036 68.793 13.6199 68.8545 14.3351Z" fill="white"/>
<path d="M75.8256 8.32273C75.8111 8.05932 75.9121 7.80275 76.1021 7.6206C76.292 7.43844 76.5518 7.34898 76.8131 7.37576C77.0841 7.3609 77.3492 7.45875 77.5462 7.64632C77.7153 7.82998 77.8065 8.07261 77.8005 8.32273C77.8051 8.56367 77.7135 8.79642 77.5462 8.96908C77.3492 9.15665 77.0841 9.2545 76.8131 9.23964C76.5415 9.25823 76.2749 9.15984 76.0799 8.96908C75.9126 8.79642 75.821 8.56367 75.8256 8.32273ZM77.6808 18.1682H75.9303V10.352H77.6808V18.1682Z" fill="white"/>
<path fill-rule="evenodd" clip-rule="evenodd" d="M81.1975 10.352V11.2539C81.7422 10.5634 82.5803 10.1731 83.4568 10.2017C85.0876 10.2017 85.9105 11.1336 85.9404 12.9975V18.1683H84.2797V13.1027C84.313 12.7036 84.1955 12.3064 83.9505 11.9904C83.6646 11.7336 83.285 11.6083 82.9032 11.6447C82.2355 11.622 81.6182 12.0001 81.3322 12.6067V18.1683H79.5518V10.352H81.1975Z" fill="white"/>
<path d="M36.8809 34.0414V30.6593H38.0628C38.3892 30.6425 38.7129 30.7264 38.9905 30.8998C39.2462 31.0481 39.4011 31.3248 39.3944 31.6213C39.3977 31.7775 39.3504 31.9304 39.2598 32.0573C39.1727 32.1878 39.0472 32.2877 38.9007 32.3429C39.0658 32.376 39.2141 32.4665 39.3196 32.5984C39.5699 32.9898 39.5001 33.5058 39.155 33.8159C38.9009 34.0048 38.5875 34.0955 38.2723 34.0715L36.8809 34.0414ZM37.5841 32.0873H38.0928C38.4369 32.0873 38.6164 31.937 38.6164 31.6664C38.6328 31.5401 38.5816 31.4143 38.4818 31.3358C38.3584 31.2532 38.2104 31.2161 38.0628 31.2305H37.5841V32.0873ZM37.5841 32.5683V33.4852H38.1676C38.3081 33.4995 38.4483 33.4561 38.5566 33.365C38.6475 33.2863 38.6972 33.1698 38.6912 33.0493C38.6912 32.7337 38.5416 32.5834 38.2125 32.5683H37.5841Z" fill="white"/>
<path fill-rule="evenodd" clip-rule="evenodd" d="M41.519 32.1924L42.2072 30.6892H42.9703L41.8631 32.8538V34.0713H41.1599V32.8237L40.0527 30.6592H40.8906L41.519 32.1924Z" fill="white"/>
<path fill-rule="evenodd" clip-rule="evenodd" d="M13.2414 10.2471C12.9646 9.89083 12.5978 9.61571 12.1791 9.45044C11.625 9.24119 11.0351 9.14413 10.4435 9.16485H8.66309V12.0809H11.4909V13.5841H8.66309V16.7557H10.4435C11.0347 16.7704 11.6234 16.6735 12.1791 16.4701C12.5947 16.2993 12.9602 16.0251 13.2414 15.6734C13.5002 15.3169 13.6742 14.9055 13.7501 14.4709C13.8577 13.9774 13.9079 13.4729 13.8997 12.9678C13.9067 12.4626 13.8565 11.9584 13.7501 11.4646C13.6791 11.024 13.5048 10.6066 13.2414 10.2471Z" fill="white"/>
<path d="M10.4732 2.40039C4.68901 2.40039 0 7.11121 0 12.9223C0 18.7334 4.68901 23.4442 10.4732 23.4442C16.2574 23.4442 20.9464 18.7334 20.9464 12.9223C20.9464 10.1317 19.843 7.45543 17.8789 5.48219C15.9148 3.50895 13.2509 2.40039 10.4732 2.40039ZM15.4555 14.9666C15.2849 15.5577 15.0002 16.1093 14.6176 16.59C14.2456 17.0797 13.7568 17.4674 13.1962 17.7173C12.5555 18.0178 11.8532 18.1621 11.1465 18.1382H6.85247V13.5837H5.87996V12.0806H6.85247V7.66135H11.1465C11.8512 7.64289 12.5512 7.7815 13.1962 8.0672C13.7568 8.31708 14.2456 8.70479 14.6176 9.19455C15.0025 9.69053 15.2871 10.2573 15.4555 10.863C15.6397 11.5336 15.7303 12.2267 15.7248 12.9223C15.7256 13.6127 15.635 14.3002 15.4555 14.9666Z" fill="white"/>
</g>
</svg>
