<svg width="86" height="40" viewBox="0 0 86 40" fill="none" xmlns="http://www.w3.org/2000/svg">
  <g>
    <path
      d="M31.3455 16.9838C31.1183 16.9077 30.6387 16.8569 30.1591 16.8569C28.7201 16.8569 27.1802 18.028 27.1802 19.4736V26.3677H23.8984V14.0671H27.054V15.3098C27.7861 14.3968 29.124 13.8135 30.6134 13.8135C30.9859 13.8162 31.3574 13.8501 31.7243 13.9149L31.3455 16.9838Z"
      fill="white" />
    <path
      d="M35.0569 7.59961C36.2434 7.59961 37.2027 8.51263 37.2027 9.70467C37.2027 10.8967 36.2435 11.8097 35.0569 11.8097C33.8704 11.8097 32.9111 10.8967 32.9111 9.70467C32.9111 8.51263 33.8705 7.59961 35.0569 7.59961ZM36.6978 26.3675H33.416V14.0669H36.6978V26.3674V26.3675Z"
      fill="white" />
    <path
      d="M46.3922 13.813C45.0898 13.7964 43.8223 14.2362 42.8076 15.0569V14.0671H39.6514V32.454H42.9334V25.5056C43.8668 26.2464 45.0262 26.6407 46.2155 26.6218C48.0332 26.6218 49.7747 25.8095 50.8602 24.5414C51.8199 23.4253 52.3995 21.9044 52.3995 20.2301C52.3996 16.6033 49.7238 13.813 46.3922 13.813ZM45.9933 23.6283C43.9547 23.6283 42.6149 22.215 42.6149 20.2409C42.6149 18.2668 43.9547 16.8534 45.9933 16.8534C47.7334 16.8534 49.1442 18.3703 49.1442 20.2409C49.1442 22.1114 47.7334 23.6283 45.9933 23.6283V23.6283Z"
      fill="white" />
    <path d="M72.317 26.3674H69.0352V8.36035H72.317V26.3674V26.3674Z" fill="white" />
    <path
      d="M85.6966 24.4148C84.5101 25.835 82.5662 26.6213 80.6729 26.6213C77.0124 26.6213 74.2607 24.0851 74.2607 20.2301C74.2607 16.8062 76.5833 13.8135 80.2185 13.8135C83.6013 13.8135 85.9996 16.6794 85.9996 20.1032C86.0015 20.4177 85.9761 20.7317 85.9237 21.0417H77.4416C77.6183 22.7662 79.0068 23.9583 80.7487 23.9583C82.137 23.9583 83.2479 23.172 83.8285 22.538L85.6966 24.4148ZM82.642 18.6323C82.541 17.5417 81.5565 16.4765 80.2185 16.4765C78.8552 16.4765 77.7446 17.5164 77.5931 18.6323H82.642Z"
      fill="white" />
    <path
      d="M61.0846 13.813C59.7822 13.7964 58.5147 14.2362 57.5001 15.0569V14.0671H54.3438V32.454H57.6258V25.5056C58.5592 26.2464 59.7186 26.6407 60.9079 26.6218C62.7256 26.6218 64.467 25.8095 65.5526 24.5414C66.5123 23.4253 67.0919 21.9044 67.0919 20.2301C67.0919 16.6033 64.4162 13.813 61.0846 13.813ZM60.6857 23.6283C58.6471 23.6283 57.3073 22.215 57.3073 20.2409C57.3073 18.2668 58.6472 16.8534 60.6857 16.8534C62.4258 16.8534 63.8366 18.3703 63.8366 20.2409C63.8366 22.1114 62.4258 23.6283 60.6857 23.6283Z"
      fill="white" />
    <path
      d="M17.1334 21.8857C16.3924 21.4559 15.558 21.3313 14.7315 21.3023C14.038 21.278 13.0035 20.8316 13.0035 19.5643C13.0035 18.62 13.7654 17.8601 14.7318 17.8262C15.5583 17.7972 16.3926 17.6725 17.1334 17.2428C17.7988 16.8568 18.3513 16.3017 18.7355 15.6332C19.1197 14.9647 19.3219 14.2064 19.3219 13.4345C19.3219 12.6626 19.1196 11.9043 18.7355 11.2358C18.3513 10.5673 17.7987 10.0122 17.1333 9.62622C16.4679 9.24027 15.7131 9.03709 14.9448 9.03711C14.1764 9.03712 13.4216 9.24033 12.7562 9.6263C12.0909 10.0123 11.5383 10.5674 11.1542 11.2359C10.77 11.9044 10.5678 12.6628 10.5678 13.4347C10.5678 14.2867 10.8694 15.0707 11.2543 15.7979C11.578 16.4095 11.7418 17.5447 10.6316 18.1886C9.80575 18.6676 8.77509 18.3643 8.26028 17.5366C7.82543 16.8374 7.30049 16.1824 6.56555 15.756C5.90016 15.37 5.14537 15.1668 4.37704 15.1668C3.60871 15.1668 2.85391 15.37 2.18852 15.756C1.52313 16.1419 0.970577 16.697 0.586412 17.3655C0.202247 18.034 0 18.7923 0 19.5642C0 20.3361 0.202247 21.0944 0.586412 21.7629C0.970577 22.4314 1.52313 22.9865 2.18852 23.3725C2.85391 23.7584 3.60871 23.9616 4.37704 23.9616C5.14537 23.9616 5.90016 23.7584 6.56555 23.3725C7.30028 22.9463 7.82527 22.2916 8.25985 21.5929C8.61671 21.0192 9.50796 20.2878 10.6316 20.94C11.4561 21.4187 11.711 22.4674 11.2539 23.3312C10.8691 24.0582 10.5679 24.8421 10.5679 25.694C10.5679 26.4658 10.7701 27.2241 11.1543 27.8926C11.5384 28.5611 12.091 29.1162 12.7564 29.5022C13.4218 29.8881 14.1765 30.0913 14.9449 30.0913C15.7132 30.0913 16.468 29.8881 17.1334 29.5022C17.7987 29.1162 18.3513 28.5611 18.7354 27.8926C19.1196 27.2241 19.3218 26.4659 19.3219 25.694C19.3219 24.9221 19.1196 24.1638 18.7355 23.4953C18.3513 22.8268 17.7988 22.2717 17.1334 21.8857V21.8857Z"
      fill="white" />
  </g>
</svg>