<svg width="86" height="40" viewBox="0 0 86 40" fill="none" xmlns="http://www.w3.org/2000/svg">
<g>
<path d="M14.8209 9.59961C6.62226 9.59961 0 13.5017 0 18.3425C0 20.3914 1.20257 22.269 3.25019 23.7874C2.27881 22.6473 1.72789 21.2059 1.6901 19.7057C1.6901 14.7017 8.19048 10.6363 16.1697 10.6363C21.3131 10.6119 25.839 12.2853 28.4392 14.8404C26.1071 11.7547 20.8743 9.59961 14.8209 9.59961Z" fill="white"/>
<path d="M13.5128 20.8079C14.0257 20.8372 14.5348 20.7029 14.9672 20.4242C15.1733 20.2962 15.3415 20.1152 15.4544 19.8999C15.5672 19.6845 15.6207 19.4428 15.6092 19.1997C15.5997 18.195 15.2533 17.2229 14.626 16.4405C13.9958 15.5906 13.1555 14.9208 12.1883 14.4977C11.4395 14.1961 10.6387 14.0463 9.83194 14.0568C9.02555 14.0264 8.2217 14.1654 7.47178 14.4647C6.72186 14.7641 6.04235 15.2174 5.47669 15.7956C4.93256 16.3338 4.50292 16.9775 4.21379 17.6875C3.92467 18.3976 3.78209 19.1592 3.79472 19.9262C3.78235 20.6935 3.93326 21.4545 4.23734 22.1584C4.54143 22.8624 4.99167 23.4929 5.55794 24.0079C6.75573 25.1117 8.33755 25.6981 9.96195 25.6405C10.8815 25.6451 11.7964 25.5102 12.6759 25.2405C13.5444 25.0303 14.3291 24.5607 14.9266 23.8936C15.1672 23.6258 15.3079 23.2825 15.3248 22.9221C15.3248 22.1058 14.8535 21.6568 13.9109 21.6568C13.3487 21.7625 12.8025 21.9409 12.2858 22.1875C11.5987 22.5071 10.8564 22.69 10.1001 22.7262C9.45378 22.7469 8.8164 22.5704 8.27185 22.2201C8.02689 22.0606 7.82178 21.8465 7.67242 21.5946C7.52306 21.3426 7.43345 21.0594 7.41055 20.767L13.5128 20.8079ZM8.2231 17.2732C8.68333 16.9051 9.26051 16.7166 9.84819 16.7426C10.4058 16.7375 10.947 16.9313 11.3758 17.2895C11.586 17.4574 11.7589 17.6676 11.8834 17.9066C12.008 18.1455 12.0814 18.4081 12.0989 18.6772H7.41055C7.5101 18.1283 7.79753 17.6317 8.2231 17.2732V17.2732Z" fill="#D6D6D6"/>
<path d="M17.5917 23.9914C18.1617 24.5572 18.8424 24.998 19.5906 25.2861C20.3389 25.5741 21.1385 25.7031 21.9389 25.6648C22.8597 25.6934 23.7761 25.5265 24.6284 25.175C25.6278 24.7261 26.1235 24.1628 26.1235 23.5424C26.1316 23.1729 25.9944 22.815 25.7416 22.5465C25.6129 22.4088 25.4565 22.3005 25.2827 22.2287C25.1089 22.1569 24.9218 22.1233 24.734 22.1301C24.3704 22.1496 24.013 22.2324 23.6777 22.375C23.2318 22.5347 22.7616 22.6148 22.2882 22.6118C21.9184 22.6305 21.5489 22.5671 21.2062 22.426C20.8635 22.2849 20.556 22.0696 20.3056 21.7955C19.8715 21.248 19.6518 20.5598 19.6881 19.8608C19.6607 19.1744 19.8703 18.4996 20.2813 17.9506C20.5081 17.6757 20.7964 17.4586 21.1225 17.3167C21.4487 17.1749 21.8035 17.1124 22.1582 17.1342C22.6352 17.1169 23.1114 17.186 23.5639 17.3383C23.9107 17.4819 24.2785 17.5674 24.6528 17.5914C24.847 17.5977 25.0406 17.5649 25.2221 17.4947C25.4035 17.4246 25.5691 17.3187 25.7091 17.1832C25.845 17.0597 25.9531 16.9084 26.026 16.7394C26.0988 16.5704 26.1349 16.3877 26.1316 16.2036C26.1316 15.4444 25.6441 14.8812 24.6771 14.5057C23.8622 14.2232 23.0039 14.0878 22.142 14.1057C21.329 14.0666 20.5164 14.1908 19.7518 14.4712C18.9873 14.7515 18.286 15.1823 17.6892 15.7383C17.1343 16.2766 16.6985 16.9262 16.4101 17.6449C16.1217 18.3637 15.9872 19.1353 16.0154 19.9097C15.9915 20.6623 16.1195 21.412 16.3919 22.1135C16.6642 22.815 17.0751 23.4538 17.5999 23.9914H17.5917Z" fill="#D6D6D6"/>
<path d="M27.8623 24.0079C28.4396 24.5778 29.1264 25.0237 29.8807 25.3184C30.635 25.6131 31.4412 25.7505 32.2501 25.7222C33.0572 25.7537 33.8623 25.6202 34.6166 25.3297C35.3708 25.0392 36.0585 24.5979 36.6378 24.0324C37.174 23.491 37.5947 22.8455 37.8741 22.1353C38.1535 21.4251 38.2858 20.6651 38.2629 19.9017C38.2883 19.1332 38.1573 18.3676 37.8779 17.6517C37.5985 16.9358 37.1765 16.2848 36.6378 15.7385C36.0605 15.1808 35.3753 14.7481 34.6248 14.4673C33.8742 14.1864 33.0743 14.0634 32.2744 14.1058C31.4731 14.0763 30.6741 14.21 29.9256 14.499C29.1771 14.788 28.4946 15.2263 27.9192 15.7875C27.3701 16.3271 26.9374 16.9744 26.6481 17.6893C26.3587 18.4041 26.2189 19.1711 26.2372 19.9426C26.2177 20.6982 26.3517 21.4498 26.6311 22.1516C26.9105 22.8534 27.3295 23.4906 27.8623 24.0242V24.0079ZM30.4462 18.0079C30.6598 17.7346 30.9325 17.5136 31.2436 17.3616C31.5547 17.2097 31.896 17.1307 32.2419 17.1307C32.5878 17.1307 32.9292 17.2097 33.2403 17.3616C33.5514 17.5136 33.824 17.7346 34.0377 18.0079C34.4276 18.5446 34.6278 19.1968 34.6065 19.8609C34.633 20.5271 34.4418 21.1836 34.062 21.7303C33.863 22.0267 33.5924 22.2675 33.2755 22.4303C32.9586 22.593 32.6058 22.6724 32.2501 22.6609C31.9018 22.675 31.5555 22.6009 31.2432 22.4454C30.9308 22.2899 30.6624 22.0581 30.4625 21.7711C30.0713 21.2289 29.8712 20.5711 29.8937 19.9017C29.8695 19.2322 30.0635 18.5729 30.4462 18.0242V18.0079Z" fill="#D6D6D6"/>
<path d="M43.2759 13.7874H44.901C46.5749 13.7874 47.4118 14.4242 47.4118 15.6976C47.4118 16.9956 46.5993 17.6486 44.901 17.6486H43.2759V13.7874ZM43.2759 23.1997V20.6935H45.7136C47.2018 20.7879 48.6722 20.3255 49.8413 19.3956C50.3491 18.9332 50.7476 18.3627 51.0077 17.7257C51.2677 17.0887 51.3828 16.4014 51.3445 15.714C51.3848 15.0087 51.2586 14.3039 50.9762 13.657C50.6938 13.0101 50.2632 12.4394 49.7194 11.9915C48.4996 11.0834 47.0019 10.6328 45.4861 10.718H42.1465C41.4456 10.6446 40.7418 10.8272 40.1639 11.2323C39.9545 11.4843 39.7977 11.7761 39.7028 12.0902C39.6078 12.4044 39.5768 12.7345 39.6114 13.0609V23.1915C39.6114 24.767 40.2208 25.5589 41.4396 25.5589C42.6584 25.5589 43.2759 24.7425 43.2759 23.1997V23.1997Z" fill="white"/>
<path d="M55.7978 18.0727C55.9989 17.806 56.2615 17.5923 56.5629 17.4501C56.8644 17.3079 57.1958 17.2415 57.5285 17.2564C57.8617 17.2379 58.1943 17.3028 58.4964 17.4452C58.7985 17.5877 59.0606 17.8033 59.2592 18.0727C59.626 18.5942 59.8116 19.2225 59.7874 19.8605C59.8116 20.5061 59.6262 21.1422 59.2592 21.6727C59.0606 21.9422 58.7985 22.1578 58.4964 22.3003C58.1943 22.4427 57.8617 22.5076 57.5285 22.4891C57.192 22.506 56.8565 22.4405 56.5508 22.2983C56.2451 22.1561 55.9783 21.9414 55.7734 21.6727C55.406 21.1427 55.2232 20.5056 55.2534 19.8605C55.2359 19.2171 55.4364 18.5867 55.8222 18.0727H55.7978ZM61.64 25.5585C62.8182 25.5585 63.4032 24.7421 63.4032 23.183V16.6523C63.4032 15.0768 62.8182 14.2932 61.64 14.2932C61.291 14.2903 60.9479 14.3839 60.6484 14.5639C60.3488 14.7439 60.1043 15.0033 59.9418 15.3136C59.5758 14.9222 59.1301 14.6146 58.6352 14.4117C58.1402 14.2089 57.6076 14.1155 57.0735 14.1381C56.3044 14.1151 55.54 14.266 54.8368 14.5797C54.1336 14.8933 53.5096 15.3618 53.0108 15.9503C52.029 17.0346 51.492 18.4519 51.5075 19.9176C51.4852 21.3605 51.9978 22.7601 52.9458 23.8442C53.4284 24.4265 54.0357 24.8918 54.7222 25.2056C55.4087 25.5194 56.1569 25.6735 56.911 25.6564C57.4694 25.6848 58.0273 25.5898 58.5453 25.3783C59.0633 25.1667 59.5289 24.8437 59.9093 24.4319C60.0401 24.7754 60.2737 25.0696 60.5778 25.2743C60.8819 25.4789 61.2416 25.5839 61.6075 25.5748L61.64 25.5585Z" fill="white"/>
<path d="M71.6672 15.5584L69.4895 20.7502L67.4582 15.8522C67.321 15.4526 67.1207 15.0778 66.865 14.742C66.7051 14.5866 66.5151 14.4659 66.3069 14.3872C66.0986 14.3086 65.8765 14.2738 65.6543 14.2849C65.1943 14.2705 64.7464 14.4342 64.403 14.742C64.2444 14.888 64.1182 15.066 64.0328 15.2643C63.9474 15.4627 63.9046 15.6769 63.9073 15.893C63.9113 16.2008 63.9805 16.5041 64.1105 16.7828L67.7019 24.4481L66.2312 27.3706C66.0534 27.7115 65.9534 28.088 65.9387 28.4726C65.9296 28.6865 65.9688 28.8996 66.0532 29.096C66.1376 29.2925 66.2651 29.4673 66.4262 29.6073C66.7832 29.905 67.2387 30.0565 67.7019 30.0318C68.3357 30.0318 68.8558 29.591 69.2702 28.7257L74.7549 16.9461C74.9273 16.5948 75.0242 16.211 75.0392 15.8196C75.0392 14.7828 74.4542 14.2686 73.276 14.2686C72.6016 14.2686 72.0816 14.693 71.7078 15.5584H71.6672Z" fill="white"/>
<path d="M83.7569 22.3833H80.2386L84.9676 16.8241C85.3613 16.4429 85.616 15.9398 85.6908 15.3956C85.7107 15.2157 85.6659 15.0345 85.5646 14.8849C85.4633 14.7352 85.3121 14.6268 85.1383 14.5792C84.5828 14.4437 84.0113 14.386 83.44 14.4078H77.7522C76.2327 14.4078 75.4771 14.8976 75.4771 15.8772C75.4771 16.8568 76.2246 17.3711 77.7278 17.3711H80.7911L75.9159 23.1425C75.5936 23.4799 75.4057 23.9242 75.3877 24.3915C75.3877 25.069 76.0134 25.4037 77.2566 25.4037H83.7569C85.252 25.4037 85.9996 24.9058 85.9996 23.9098C85.9996 22.8894 85.2601 22.3833 83.7813 22.3833H83.7569Z" fill="white"/>
</g>
</svg>
