<svg width="86" height="40" viewBox="0 0 86 40" fill="none" xmlns="http://www.w3.org/2000/svg">
<g>
<path d="M59.8031 14.8471C60.4701 15.1305 61.0391 15.6051 61.4391 16.2116C61.8162 16.8347 62.0156 17.5499 62.0156 18.2791C62.0156 19.0083 61.8162 19.7234 61.4391 20.3465C61.0388 20.9552 60.4702 21.4331 59.8031 21.7213C59.0084 22.054 58.1532 22.2159 57.2925 22.1969H54.7922V25.4117H52.7344V14.3716H57.2925C58.1532 14.3525 59.0084 14.5145 59.8031 14.8471V14.8471ZM59.2372 20.0157C59.4674 19.8129 59.6497 19.5611 59.7707 19.2785C59.8918 18.996 59.9485 18.6898 59.9369 18.3824C59.9501 18.0733 59.8941 17.7652 59.773 17.4807C59.6519 17.1963 59.4688 16.9427 59.2372 16.7388C58.6404 16.3095 57.9108 16.108 57.1793 16.1703H54.7922V20.5946H57.1999C57.9313 20.6288 58.6518 20.4058 59.2372 19.964V20.0157Z" fill="white"/>
<path d="M69.9697 17.8139C70.3231 18.1659 70.5976 18.5895 70.7751 19.0565C70.9525 19.5236 71.0287 20.0233 70.9986 20.5222V25.5047H69.0128V24.471C68.7555 24.8447 68.399 25.1384 67.9839 25.3187C67.467 25.5253 66.9144 25.6272 66.3582 25.6185C65.7924 25.6461 65.2274 25.5509 64.7016 25.3394C64.2553 25.1537 63.8726 24.8411 63.6006 24.44C63.3409 24.0524 63.2045 23.5945 63.2097 23.1272C63.1775 22.7623 63.237 22.3951 63.3826 22.0592C63.5282 21.7233 63.7553 21.4295 64.0431 21.2045C64.8288 20.6709 65.7738 20.4262 66.7183 20.5119H68.9408V20.3879C68.9555 20.1344 68.9163 19.8807 68.8258 19.6437C68.7353 19.4066 68.5956 19.1916 68.416 19.013C67.972 18.6902 67.4299 18.533 66.8829 18.5685C66.4071 18.5649 65.934 18.6418 65.4836 18.7959C65.058 18.9209 64.6623 19.1319 64.3209 19.4162L63.5492 17.969C64.0251 17.6057 64.5668 17.3389 65.144 17.1833C65.7877 17.0058 66.4521 16.9155 67.1196 16.9146C68.1482 16.8452 69.1653 17.1661 69.9697 17.8139V17.8139ZM68.1691 23.8301C68.5419 23.6035 68.8282 23.2577 68.9819 22.8481V21.8144H66.8829C65.7408 21.8144 65.1646 22.1865 65.1646 22.9411C65.1621 23.1086 65.2001 23.2742 65.2753 23.4237C65.3506 23.5731 65.4609 23.702 65.5968 23.7991C65.948 24.0279 66.3619 24.14 66.78 24.1196C67.2471 24.1476 67.713 24.0475 68.1279 23.8301H68.1691Z" fill="white"/>
<path d="M73.2414 15.2712C73.1245 15.1619 73.0319 15.0289 72.9699 14.881C72.9078 14.7331 72.8776 14.5737 72.8812 14.4133C72.8771 14.2543 72.9071 14.0962 72.9692 13.9499C73.0314 13.8037 73.1242 13.6726 73.2414 13.5656C73.3623 13.4514 73.5047 13.3625 73.6601 13.3039C73.8155 13.2454 73.9809 13.2184 74.1468 13.2245C74.4777 13.2151 74.8003 13.3292 75.0523 13.5449C75.1707 13.6464 75.2646 13.7736 75.3269 13.9168C75.3893 14.0601 75.4185 14.2157 75.4124 14.3719C75.4159 14.6997 75.2902 15.0156 75.0626 15.2506C74.9414 15.3688 74.798 15.4616 74.6408 15.5237C74.4836 15.5858 74.3157 15.616 74.1468 15.6124C73.9809 15.6185 73.8155 15.5915 73.6601 15.5329C73.5047 15.4744 73.3623 15.3854 73.2414 15.2712V15.2712ZM73.1488 17.0079H75.114V25.505H73.1488V17.0079Z" fill="white"/>
<path d="M85.9997 13.6992V25.5042H84.0962V24.4085C83.7779 24.8234 83.3602 25.1506 82.882 25.3595C82.3787 25.5634 81.8402 25.6653 81.2975 25.6593C80.5336 25.6679 79.7799 25.483 79.1059 25.1218C78.4632 24.7603 77.9326 24.2272 77.5728 23.5815C77.1819 22.8522 76.9902 22.0319 77.0171 21.204C77.0081 20.4109 77.1993 19.6285 77.5728 18.9298C77.9301 18.2849 78.4616 17.7546 79.1059 17.3999C79.7787 17.0475 80.5285 16.8698 81.2872 16.8831C81.8124 16.8748 82.3339 16.9733 82.8203 17.1725C83.281 17.3526 83.6883 17.6479 84.0036 18.0305V13.6992H85.9997ZM82.8203 23.5919C83.1992 23.3717 83.5093 23.0495 83.7155 22.6615C83.9627 22.2174 84.0804 21.7122 84.055 21.204C84.0674 20.7168 83.9502 20.235 83.7155 19.8085C83.5121 19.4185 83.2013 19.0956 82.8203 18.8781C82.4267 18.6591 81.9841 18.5442 81.5341 18.5442C81.0842 18.5442 80.6416 18.6591 80.248 18.8781C79.8662 19.0981 79.5528 19.4201 79.3425 19.8085C79.1257 20.2414 79.013 20.7194 79.0133 21.204C79.0133 21.6919 79.126 22.1731 79.3425 22.6098C79.5558 22.996 79.8685 23.3173 80.248 23.5402C80.6447 23.7494 81.0861 23.8586 81.5341 23.8586C81.9822 23.8586 82.4235 23.7494 82.8203 23.5402V23.5919Z" fill="white"/>
<path d="M27.0425 15.4675C26.8805 15.3246 26.7514 15.1479 26.6643 14.9497C26.5772 14.7515 26.5342 14.5366 26.5384 14.32C26.5342 14.1035 26.5772 13.8886 26.6643 13.6904C26.7514 13.4922 26.8805 13.3155 27.0425 13.1726C27.4133 12.8604 27.8865 12.6983 28.3699 12.7178C28.85 12.6964 29.3216 12.8506 29.6972 13.1519C29.8615 13.2867 29.9933 13.4572 30.0824 13.6506C30.1715 13.844 30.2157 14.0553 30.2116 14.2684C30.2177 14.4923 30.1748 14.7148 30.0859 14.9202C29.997 15.1256 29.8643 15.3089 29.6972 15.4571C29.32 15.759 28.8521 15.9235 28.3699 15.9235C27.8876 15.9235 27.4197 15.759 27.0425 15.4571V15.4675ZM26.8676 16.8837H29.8412V25.5048H26.8676V16.8837Z" fill="white"/>
<path d="M39.9868 17.6896C40.3433 18.0756 40.6183 18.5301 40.7952 19.0258C40.972 19.5215 41.0471 20.0481 41.0157 20.5737V25.5045H37.9289V21.0699C37.9289 19.8915 37.4659 19.3022 36.5193 19.3022C36.2877 19.2913 36.0565 19.3309 35.8415 19.4184C35.6266 19.5058 35.4331 19.639 35.2743 19.8088C34.9355 20.2429 34.7703 20.7885 34.8113 21.3387V25.4735H31.8994V16.8833H34.7598V17.824C35.0915 17.4947 35.4874 17.2378 35.9225 17.0694C36.4074 16.8785 36.9246 16.7837 37.4453 16.7903C38.3769 16.7451 39.2891 17.0679 39.9868 17.6896V17.6896Z" fill="white"/>
<path d="M43.8451 25.3396C43.2667 25.2329 42.708 25.0377 42.1885 24.7607L43.0836 22.6933C43.5196 22.9536 43.991 23.1486 44.483 23.2722C45.0023 23.4173 45.5388 23.4904 46.0778 23.4893C46.4278 23.5103 46.7783 23.4575 47.1068 23.3342C47.194 23.2989 47.2694 23.2393 47.3241 23.1624C47.3788 23.0855 47.4105 22.9945 47.4154 22.9001C47.4154 22.7037 47.292 22.5693 47.045 22.4866C46.6534 22.3762 46.2546 22.2933 45.8515 22.2385C45.2613 22.1702 44.6768 22.0596 44.1023 21.9077C43.6345 21.7838 43.2059 21.5418 42.8573 21.2048C42.4916 20.7707 42.3072 20.2114 42.3428 19.6439C42.3202 19.0895 42.4913 18.5446 42.8264 18.1036C43.1951 17.6333 43.6867 17.2754 44.2463 17.0699C44.9668 16.8021 45.7318 16.6757 46.4997 16.6978C47.1223 16.696 47.7432 16.7619 48.3518 16.8942C48.8879 16.9907 49.4054 17.1721 49.8849 17.4317L48.9897 19.4991C48.2317 19.0761 47.377 18.8588 46.51 18.8686C46.159 18.8459 45.8074 18.9024 45.4811 19.034C45.3892 19.0649 45.3087 19.1228 45.25 19.2002C45.1913 19.2776 45.1571 19.371 45.1518 19.4681C45.1518 19.6749 45.265 19.8093 45.5119 19.892C45.9061 20.0063 46.3086 20.0893 46.7158 20.14C47.3098 20.2198 47.8977 20.3407 48.4752 20.5018C48.9366 20.6471 49.3541 20.9066 49.6894 21.2565C50.05 21.6852 50.234 22.2362 50.2038 22.7967C50.221 23.3408 50.0501 23.874 49.7202 24.3059C49.337 24.7742 48.8361 25.1311 48.2694 25.3396C47.5279 25.5937 46.748 25.7161 45.9646 25.7014C45.2465 25.6639 44.5352 25.5425 43.8451 25.3396V25.3396Z" fill="white"/>
<path d="M16.8045 25.5667L16.7222 25.6597C15.5838 26.8027 14.1336 27.5809 12.5549 27.896C10.9763 28.2111 9.34011 28.0489 7.85324 27.4298C6.36636 26.8108 5.09556 25.7628 4.20148 24.4182C3.30741 23.0737 2.8302 21.493 2.8302 19.8761C2.8302 18.2591 3.30741 16.6784 4.20148 15.3339C5.09556 13.9893 6.36636 12.9413 7.85324 12.3223C9.34011 11.7033 10.9763 11.541 12.5549 11.8561C14.1336 12.1712 15.5838 12.9494 16.7222 14.0924L18.7801 12.025C17.2387 10.4822 15.277 9.43283 13.1424 9.00936C11.0079 8.58589 8.79634 8.80731 6.78698 9.64567C4.77762 10.484 3.06057 11.9017 1.85262 13.7198C0.644673 15.5378 0 17.6747 0 19.8606C0 22.0464 0.644673 24.1833 1.85262 26.0013C3.06057 27.8194 4.77762 29.2371 6.78698 30.0754C8.79634 30.9138 11.0079 31.1352 13.1424 30.7118C15.277 30.2883 17.2387 29.2389 18.7801 27.6961L18.955 27.4997L16.8045 25.5667Z" fill="white"/>
<path d="M10.9701 22.6928C10.2278 22.7559 9.49103 22.5201 8.92179 22.0374C8.35255 21.5547 7.9975 20.8646 7.93473 20.1189C7.87197 19.3731 8.10664 18.6329 8.58711 18.061C9.06759 17.4892 9.75451 17.1325 10.4968 17.0694H10.9701C11.3378 17.0668 11.7022 17.1388 12.0416 17.2808C12.3811 17.4229 12.6885 17.6323 12.9456 17.8964L15.0652 15.7256C14.2522 14.9137 13.2182 14.3619 12.0934 14.1398C10.9687 13.9176 9.80363 14.0351 8.74526 14.4774C7.6869 14.9197 6.78262 15.667 6.1465 16.625C5.51037 17.583 5.1709 18.7088 5.1709 19.8604C5.1709 21.012 5.51037 22.1379 6.1465 23.0959C6.78262 24.0539 7.6869 24.8011 8.74526 25.2434C9.80363 25.6857 10.9687 25.8032 12.0934 25.5811C13.2182 25.359 14.2522 24.8072 15.0652 23.9953L12.9353 21.8555C12.4154 22.3835 11.7093 22.6844 10.9701 22.6928V22.6928Z" fill="white"/>
<path d="M18.1425 25.0809C17.4332 24.7186 16.8375 24.1661 16.4215 23.4847C16.0054 22.8032 15.7852 22.0194 15.7852 21.22C15.7852 20.4205 16.0054 19.6367 16.4215 18.9552C16.8375 18.2738 17.4332 17.7213 18.1425 17.359C18.8975 16.9739 19.7344 16.7788 20.5811 16.7905C21.4517 16.7703 22.3139 16.9655 23.0917 17.359C23.8153 17.7035 24.4258 18.2487 24.8511 18.9303C25.2639 19.6233 25.4776 20.4176 25.4685 21.2251C25.4864 22.0316 25.2765 22.8266 24.8631 23.5182C24.4497 24.2097 23.8498 24.7695 23.1328 25.1326C22.3532 25.521 21.4923 25.7159 20.6222 25.7011C19.7578 25.6994 18.9068 25.4866 18.1425 25.0809V25.0809ZM21.929 22.693C22.2763 22.2775 22.4562 21.7465 22.4332 21.2044C22.4668 20.6609 22.2856 20.126 21.929 19.7159C21.5876 19.3738 21.125 19.1816 20.6428 19.1816C20.1606 19.1816 19.6981 19.3738 19.3567 19.7159V19.7159C19.1745 19.9166 19.0336 20.1513 18.9417 20.4067C18.8499 20.6621 18.8091 20.9332 18.8216 21.2044C18.7886 21.7573 18.9692 22.3016 19.3258 22.724C19.4922 22.8925 19.6902 23.0262 19.9083 23.1174C20.1264 23.2087 20.3603 23.2556 20.5965 23.2556C20.8328 23.2556 21.0667 23.2087 21.2848 23.1174C21.5029 23.0262 21.7008 22.8925 21.8672 22.724H21.929V22.693Z" fill="white"/>
</g>
</svg>
