<svg width="86" height="40" viewBox="0 0 86 40" fill="none" xmlns="http://www.w3.org/2000/svg">
<g clip-path="url(#clip0_23_686)">
<path d="M9.25136 28.9904C14.1412 28.9904 18.1053 25.0079 18.1053 20.0953C18.1053 15.1827 14.1412 11.2002 9.25136 11.2002C4.36149 11.2002 0.397461 15.1827 0.397461 20.0953C0.397461 25.0079 4.36149 28.9904 9.25136 28.9904Z" fill="url(#paint0_linear_23_686)"/>
<path fill-rule="evenodd" clip-rule="evenodd" d="M9.25152 12.2623C4.94552 12.2623 1.45482 15.7692 1.45482 20.0952C1.45482 24.4213 4.94552 27.9282 9.25152 27.9282C13.5575 27.9282 17.0482 24.4213 17.0482 20.0952C17.0482 15.7692 13.5575 12.2623 9.25152 12.2623ZM0.0214844 20.0952C0.0214844 14.9739 4.15391 10.8223 9.25152 10.8223C14.3491 10.8223 18.4816 14.9739 18.4816 20.0952C18.4816 25.2165 14.3491 29.3682 9.25152 29.3682C4.15391 29.3682 0.0214844 25.2165 0.0214844 20.0952Z" fill="#D7D7D7" fill-opacity="0.243886"/>
<path d="M9.26681 13.7451C8.74498 13.7442 8.21455 13.8088 7.68557 13.9443V13.944C4.30048 14.8123 2.25731 18.27 3.12226 21.6672C3.98731 25.0644 7.43275 27.1148 10.818 26.2467C14.2033 25.3787 16.2463 21.9209 15.3814 18.5237C14.6515 15.6574 12.0846 13.7499 9.26681 13.7451ZM9.08322 15.8684L9.39675 17.0998C9.96953 16.9902 10.4168 16.9905 10.8524 17.1683C11.4156 17.398 11.5461 18.0145 11.5727 18.1627C11.599 18.3108 11.6068 18.6076 11.5255 18.8208C11.4445 19.0345 11.1795 19.2953 11.1795 19.2953C11.1795 19.2953 11.5667 19.279 11.8747 19.408C12.1821 19.5371 12.461 19.832 12.5785 20.3385C12.6964 20.8448 12.7209 21.3713 12.3465 21.8075C11.981 22.2328 11.5219 22.4165 11.3061 22.5028L11.2899 22.5092C11.1871 22.5506 11.0087 22.6122 10.816 22.6737L11.1299 23.9069L10.3736 24.101L10.0645 22.8877L9.48841 23.0355L9.79733 24.2487L9.04096 24.4428L8.73204 23.2294L7.24382 23.6109L7.16726 22.6592L7.61969 22.5433C7.77171 22.5041 7.83161 22.4738 7.87984 22.3974C7.92807 22.3207 7.91875 22.2247 7.89975 22.15L7.10012 19.0089C7.04999 18.8121 7.0205 18.763 6.90467 18.685C6.78867 18.6069 6.57322 18.6478 6.45378 18.6787L6.01655 18.7906L5.81576 18.0023L7.30408 17.6208L6.99398 16.4042L7.75045 16.2103L8.06018 17.427L8.63631 17.2793L8.32648 16.0625L9.08322 15.8684ZM9.41494 18.0545C9.14665 18.0534 8.95979 18.0951 8.75168 18.1452C8.51397 18.2025 8.27889 18.2855 8.27889 18.2855L8.65178 19.7505C8.65178 19.7505 9.00811 19.6704 9.28111 19.5891C9.5542 19.5076 9.83145 19.3689 10.0135 19.1975C10.1958 19.0259 10.269 18.8106 10.1917 18.5357C10.1139 18.2607 9.87072 18.0738 9.53529 18.0577C9.4952 18.0557 9.45507 18.0547 9.41494 18.0545ZM10.2226 20.2364C10.0472 20.2378 9.87231 20.2546 9.69988 20.2869C9.31866 20.3582 8.84424 20.5062 8.84424 20.5062L9.25885 22.1343C9.25885 22.1343 9.76367 22.0165 10.093 21.9054C10.4225 21.7945 10.7472 21.6206 10.8961 21.4803C11.0448 21.3401 11.2154 21.1375 11.1206 20.7651C11.0258 20.3926 10.7387 20.3001 10.5792 20.2653C10.4995 20.248 10.3749 20.2355 10.2226 20.2364Z" fill="white"/>
<path d="M24.355 23.9658C24.2823 23.9658 24.2242 23.9421 24.1806 23.8946C24.137 23.8472 24.1152 23.787 24.1152 23.714V16.5651C24.1152 16.4848 24.137 16.4209 24.1806 16.3735C24.2242 16.326 24.2823 16.3023 24.355 16.3023H27.3299C28.0999 16.3023 28.6811 16.4884 29.0734 16.8607C29.4657 17.2329 29.6619 17.7182 29.6619 18.3167C29.6619 18.7254 29.5674 19.0666 29.3785 19.3403C29.1897 19.614 28.9681 19.8129 28.7138 19.937C29.0262 20.0903 29.2877 20.3275 29.4984 20.6486C29.7091 20.9697 29.8144 21.3383 29.8144 21.7543C29.8144 22.163 29.7218 22.5353 29.5365 22.871C29.3513 23.2067 29.0771 23.4731 28.7138 23.6702C28.3506 23.8672 27.9183 23.9658 27.4171 23.9658H24.355ZM27.1664 19.5538C27.6386 19.5538 27.9982 19.4462 28.2452 19.2309C28.4922 19.0155 28.6157 18.7145 28.6157 18.3277C28.6157 17.9481 28.4941 17.6599 28.2507 17.4628C28.0073 17.2657 27.6459 17.1672 27.1664 17.1672H25.1396V19.5538H27.1664ZM27.2754 23.1009C27.7403 23.1009 28.1054 22.975 28.3706 22.7232C28.6357 22.4714 28.7683 22.1484 28.7683 21.7543C28.7683 21.3529 28.6357 21.0281 28.3706 20.78C28.1054 20.5318 27.7403 20.4077 27.2754 20.4077H25.1396V23.1009H27.2754ZM31.4054 17.2C31.3328 17.2 31.2728 17.1763 31.2256 17.1289C31.1784 17.0814 31.1548 17.0212 31.1548 16.9482V16.379C31.1548 16.306 31.1784 16.2439 31.2256 16.1928C31.2728 16.1418 31.3328 16.1162 31.4054 16.1162H32.0483C32.121 16.1162 32.1827 16.1418 32.2336 16.1928C32.2844 16.2439 32.3099 16.306 32.3099 16.379V16.9482C32.3099 17.0212 32.2844 17.0814 32.2336 17.1289C32.1827 17.1763 32.121 17.2 32.0483 17.2H31.4054ZM31.4926 23.9658C31.4199 23.9658 31.36 23.9421 31.3128 23.8946C31.2656 23.8472 31.2419 23.787 31.2419 23.714V18.5247C31.2419 18.4517 31.2656 18.3915 31.3128 18.3441C31.36 18.2966 31.4199 18.2729 31.4926 18.2729H31.9721C32.0447 18.2729 32.1046 18.2966 32.1519 18.3441C32.1991 18.3915 32.2227 18.4517 32.2227 18.5247V23.714C32.2227 23.787 32.1991 23.8472 32.1519 23.8946C32.1046 23.9421 32.0447 23.9658 31.9721 23.9658H31.4926ZM36.0367 23.9658C34.9106 23.9658 34.3476 23.3272 34.3476 22.0499V19.1159H33.4868C33.4141 19.1159 33.356 19.094 33.3124 19.0502C33.2688 19.0064 33.247 18.948 33.247 18.8751V18.5247C33.247 18.4517 33.2688 18.3915 33.3124 18.3441C33.356 18.2966 33.4141 18.2729 33.4868 18.2729H34.3476V16.4446C34.3476 16.3717 34.3694 16.3114 34.413 16.264C34.4566 16.2166 34.5147 16.1928 34.5874 16.1928H35.0668C35.1395 16.1928 35.1994 16.2166 35.2466 16.264C35.2939 16.3114 35.3175 16.3717 35.3175 16.4446V18.2729H36.6687C36.7414 18.2729 36.8013 18.2966 36.8485 18.3441C36.8957 18.3915 36.9193 18.4517 36.9193 18.5247V18.8751C36.9193 18.948 36.8957 19.0064 36.8485 19.0502C36.8013 19.094 36.7414 19.1159 36.6687 19.1159H35.3175V21.9733C35.3175 22.3455 35.3774 22.6265 35.4973 22.8163C35.6171 23.006 35.8224 23.1009 36.113 23.1009H36.7777C36.8503 23.1009 36.9084 23.1246 36.952 23.1721C36.9956 23.2195 37.0174 23.2797 37.0174 23.3527V23.714C37.0174 23.787 36.9956 23.8472 36.952 23.8946C36.9084 23.9421 36.8503 23.9658 36.7777 23.9658H36.0367ZM40.3519 24.0753C39.5746 24.0753 38.968 23.8545 38.5321 23.4129C38.0962 22.9714 37.8674 22.3528 37.8456 21.5573L37.8347 21.1194L37.8456 20.6814C37.8674 19.8859 38.0962 19.2674 38.5321 18.8258C38.968 18.3842 39.5746 18.1634 40.3519 18.1634C40.875 18.1634 41.3163 18.2565 41.6759 18.4426C42.0355 18.6287 42.3043 18.8605 42.4823 19.1378C42.6603 19.4151 42.7566 19.6925 42.7711 19.9698C42.7784 20.0355 42.7547 20.0939 42.7003 20.145C42.6458 20.1961 42.5858 20.2216 42.5205 20.2216H42.041C41.9683 20.2216 41.9138 20.2052 41.8775 20.1724C41.8412 20.1395 41.8049 20.0793 41.7686 19.9917C41.6378 19.6341 41.458 19.3805 41.2291 19.2309C41.0003 19.0812 40.7115 19.0064 40.3628 19.0064C39.9051 19.0064 39.5419 19.1487 39.2731 19.4334C39.0043 19.718 38.859 20.1523 38.8372 20.7362L38.8263 21.1194L38.8372 21.5025C38.859 22.0864 39.0043 22.5207 39.2731 22.8053C39.5419 23.09 39.9051 23.2323 40.3628 23.2323C40.7188 23.2323 41.0094 23.1575 41.2346 23.0078C41.4598 22.8582 41.6378 22.6046 41.7686 22.247C41.8049 22.1594 41.8412 22.0992 41.8775 22.0663C41.9138 22.0335 41.9683 22.0171 42.041 22.0171H42.5205C42.5858 22.0171 42.6458 22.0426 42.7003 22.0937C42.7547 22.1448 42.7784 22.2032 42.7711 22.2689C42.7566 22.5389 42.6603 22.8126 42.4823 23.09C42.3043 23.3673 42.0355 23.6008 41.6759 23.7906C41.3163 23.9804 40.875 24.0753 40.3519 24.0753ZM46.378 24.0753C45.5789 24.0753 44.9632 23.849 44.531 23.3965C44.0987 22.944 43.8681 22.3419 43.839 21.5901L43.8281 21.1194L43.839 20.6486C43.8681 19.8968 44.1023 19.2947 44.5419 18.8422C44.9814 18.3897 45.5934 18.1634 46.378 18.1634C47.1626 18.1634 47.7747 18.3897 48.2142 18.8422C48.6537 19.2947 48.888 19.8968 48.9171 20.6486C48.9316 20.8092 48.9389 20.9661 48.9389 21.1194C48.9389 21.2726 48.9316 21.4295 48.9171 21.5901C48.888 22.3419 48.6573 22.944 48.2251 23.3965C47.7928 23.849 47.1772 24.0753 46.378 24.0753ZM46.378 23.2542C46.843 23.2542 47.2117 23.1064 47.4841 22.8108C47.7565 22.5152 47.9036 22.0901 47.9254 21.5354C47.9327 21.4624 47.9363 21.3237 47.9363 21.1194C47.9363 20.915 47.9327 20.7763 47.9254 20.7033C47.9036 20.1486 47.7565 19.7235 47.4841 19.4279C47.2117 19.1323 46.843 18.9845 46.378 18.9845C45.9131 18.9845 45.5444 19.1323 45.272 19.4279C44.9995 19.7235 44.8524 20.1486 44.8306 20.7033L44.8197 21.1194L44.8306 21.5354C44.8524 22.0901 44.9995 22.5152 45.272 22.8108C45.5444 23.1064 45.9131 23.2542 46.378 23.2542ZM50.4753 17.2C50.4027 17.2 50.3428 17.1763 50.2955 17.1289C50.2483 17.0814 50.2247 17.0212 50.2247 16.9482V16.379C50.2247 16.306 50.2483 16.2439 50.2955 16.1928C50.3428 16.1418 50.4027 16.1162 50.4753 16.1162H51.1183C51.1909 16.1162 51.2527 16.1418 51.3035 16.1928C51.3544 16.2439 51.3798 16.306 51.3798 16.379V16.9482C51.3798 17.0212 51.3544 17.0814 51.3035 17.1289C51.2527 17.1763 51.1909 17.2 51.1183 17.2H50.4753ZM50.5625 23.9658C50.4899 23.9658 50.4299 23.9421 50.3827 23.8946C50.3355 23.8472 50.3119 23.787 50.3119 23.714V18.5247C50.3119 18.4517 50.3355 18.3915 50.3827 18.3441C50.4299 18.2966 50.4899 18.2729 50.5625 18.2729H51.042C51.1146 18.2729 51.1746 18.2966 51.2218 18.3441C51.269 18.3915 51.2926 18.4517 51.2926 18.5247V23.714C51.2926 23.787 51.269 23.8472 51.2218 23.8946C51.1746 23.9421 51.1146 23.9658 51.042 23.9658H50.5625ZM53.1778 23.9658C53.1052 23.9658 53.0452 23.9421 52.998 23.8946C52.9508 23.8472 52.9272 23.787 52.9272 23.714V18.5247C52.9272 18.4517 52.9508 18.3915 52.998 18.3441C53.0452 18.2966 53.1052 18.2729 53.1778 18.2729H53.6464C53.7263 18.2729 53.7881 18.2948 53.8317 18.3386C53.8752 18.3824 53.897 18.4444 53.897 18.5247V19.0064C54.115 18.7364 54.3674 18.5284 54.6544 18.3824C54.9413 18.2364 55.2991 18.1634 55.7278 18.1634C56.4252 18.1634 56.9664 18.3879 57.3514 18.8367C57.7365 19.2856 57.929 19.8786 57.929 20.6158V23.714C57.929 23.787 57.9054 23.8472 57.8581 23.8946C57.8109 23.9421 57.751 23.9658 57.6783 23.9658H57.1771C57.1044 23.9658 57.0445 23.9421 56.9973 23.8946C56.95 23.8472 56.9264 23.787 56.9264 23.714V20.6814C56.9264 20.1559 56.7993 19.7472 56.545 19.4553C56.2908 19.1633 55.9275 19.0174 55.4553 19.0174C54.9904 19.0174 54.6199 19.1652 54.3438 19.4608C54.0678 19.7564 53.9297 20.1632 53.9297 20.6814V23.714C53.9297 23.787 53.9061 23.8472 53.8589 23.8946C53.8117 23.9421 53.7517 23.9658 53.6791 23.9658H53.1778ZM65.0557 24.0753C64.0895 24.0753 63.3539 23.8107 62.849 23.2815C62.3441 22.7524 62.0735 22.028 62.0372 21.1084C62.0299 20.9113 62.0263 20.5902 62.0263 20.145C62.0263 19.6925 62.0299 19.3641 62.0372 19.1597C62.0735 18.2401 62.3441 17.5157 62.849 16.9866C63.3539 16.4574 64.0895 16.1928 65.0557 16.1928C65.7022 16.1928 66.2507 16.3078 66.7011 16.5377C67.1516 16.7676 67.4912 17.0687 67.72 17.4409C67.9489 17.8131 68.0742 18.2109 68.096 18.6342C68.096 18.6999 68.0724 18.7528 68.0251 18.7929C67.9779 18.8331 67.9216 18.8532 67.8562 18.8532H67.3114C67.2387 18.8532 67.1806 18.8349 67.137 18.7984C67.0934 18.7619 67.0607 18.6999 67.0389 18.6123C66.9154 18.0503 66.6921 17.6562 66.3688 17.4299C66.0455 17.2037 65.6078 17.0906 65.0557 17.0906C63.7916 17.0906 63.1342 17.7985 63.0833 19.2144C63.076 19.4115 63.0724 19.7144 63.0724 20.1231C63.0724 20.5318 63.076 20.842 63.0833 21.0537C63.1342 22.4623 63.7916 23.1666 65.0557 23.1666C65.6005 23.1666 66.0364 23.0535 66.3633 22.8272C66.6902 22.601 66.9154 22.2105 67.0389 21.6558C67.0607 21.5682 67.0934 21.5062 67.137 21.4697C67.1806 21.4332 67.2387 21.4149 67.3114 21.4149H67.8562C67.9216 21.4149 67.9779 21.435 68.0251 21.4752C68.0724 21.5153 68.096 21.5682 68.096 21.6339C68.0742 22.0572 67.9489 22.455 67.72 22.8272C67.4912 23.1994 67.1516 23.5005 66.7011 23.7304C66.2507 23.9603 65.7022 24.0753 65.0557 24.0753ZM71.0055 24.0753C70.6495 24.0753 70.3208 24.0023 70.0193 23.8563C69.7178 23.7103 69.4781 23.5114 69.3001 23.2596C69.1221 23.0078 69.0331 22.7287 69.0331 22.4221C69.0331 21.9404 69.2293 21.5463 69.6216 21.2398C70.0139 20.9332 70.5478 20.7289 71.2234 20.6267L72.858 20.3968V20.0793C72.858 19.3276 72.4258 18.9517 71.5612 18.9517C71.2271 18.9517 70.9583 19.0192 70.7549 19.1542C70.5515 19.2892 70.4025 19.448 70.3081 19.6305C70.279 19.7034 70.2481 19.7527 70.2155 19.7782C70.1828 19.8038 70.1374 19.8166 70.0792 19.8166H69.6543C69.5889 19.8166 69.5326 19.7928 69.4854 19.7454C69.4381 19.698 69.4145 19.6414 69.4145 19.5757C69.4145 19.4078 69.4926 19.2126 69.6488 18.99C69.805 18.7674 70.0466 18.574 70.3735 18.4098C70.7004 18.2456 71.0999 18.1634 71.5721 18.1634C72.3858 18.1634 72.9688 18.3532 73.3211 18.7327C73.6735 19.1123 73.8496 19.5867 73.8496 20.1559V23.714C73.8496 23.787 73.826 23.8472 73.7788 23.8946C73.7316 23.9421 73.6717 23.9658 73.599 23.9658H73.1195C73.0469 23.9658 72.9888 23.9421 72.9452 23.8946C72.9016 23.8472 72.8798 23.787 72.8798 23.714V23.2323C72.72 23.4731 72.4875 23.6738 72.1824 23.8344C71.8773 23.995 71.485 24.0753 71.0055 24.0753ZM71.2234 23.2761C71.7029 23.2761 72.0952 23.1191 72.4003 22.8053C72.7054 22.4915 72.858 22.0353 72.858 21.4368V21.1303L71.583 21.3164C71.06 21.3894 70.6641 21.5135 70.3953 21.6886C70.1265 21.8638 69.9921 22.0828 69.9921 22.3455C69.9921 22.6447 70.1138 22.8746 70.3571 23.0352C70.6005 23.1958 70.8893 23.2761 71.2234 23.2761ZM77.3694 24.0753C76.8681 24.0753 76.445 23.9931 76.0999 23.8289C75.7548 23.6647 75.4987 23.4768 75.3317 23.2651C75.1646 23.0535 75.081 22.8783 75.081 22.7396C75.081 22.6666 75.1064 22.6101 75.1573 22.5699C75.2082 22.5298 75.2626 22.5097 75.3208 22.5097H75.7784C75.822 22.5097 75.8565 22.517 75.882 22.5316C75.9074 22.5462 75.9419 22.5791 75.9855 22.6301C76.1526 22.8345 76.3396 22.9951 76.5467 23.1118C76.7537 23.2286 77.0316 23.287 77.3803 23.287C77.7726 23.287 78.0868 23.214 78.3229 23.0681C78.559 22.9221 78.6771 22.7104 78.6771 22.4331C78.6771 22.2506 78.6262 22.1047 78.5245 21.9952C78.4228 21.8857 78.2539 21.7872 78.0178 21.6996C77.7817 21.612 77.4312 21.5171 76.9662 21.4149C76.3342 21.2763 75.8874 21.0756 75.6259 20.8128C75.3643 20.5501 75.2336 20.2107 75.2336 19.7947C75.2336 19.5246 75.3135 19.2637 75.4733 19.0119C75.6331 18.7601 75.8711 18.5557 76.1871 18.3988C76.5031 18.2419 76.879 18.1634 77.3149 18.1634C77.7726 18.1634 78.1631 18.2401 78.4864 18.3934C78.8097 18.5466 79.053 18.7254 79.2165 18.9298C79.3799 19.1342 79.4617 19.3057 79.4617 19.4443C79.4617 19.51 79.438 19.5648 79.3908 19.6086C79.3436 19.6523 79.2873 19.6742 79.2219 19.6742H78.8078C78.7061 19.6742 78.6335 19.6341 78.5899 19.5538C78.4664 19.4151 78.3629 19.3075 78.2793 19.2309C78.1958 19.1542 78.0741 19.0885 77.9143 19.0338C77.7544 18.9791 77.5547 18.9517 77.3149 18.9517C76.959 18.9517 76.6865 19.0265 76.4976 19.1761C76.3088 19.3257 76.2143 19.5246 76.2143 19.7728C76.2143 19.926 76.2543 20.0556 76.3342 20.1614C76.4141 20.2672 76.5667 20.3658 76.7919 20.457C77.0171 20.5482 77.3512 20.6413 77.7944 20.7362C78.4846 20.8822 78.9731 21.0902 79.2601 21.3602C79.547 21.6303 79.6905 21.9769 79.6905 22.4002C79.6905 22.7141 79.6015 22.9987 79.4235 23.2542C79.2455 23.5096 78.9804 23.7103 78.628 23.8563C78.2757 24.0023 77.8562 24.0753 77.3694 24.0753ZM81.227 23.9658C81.1543 23.9658 81.0944 23.9421 81.0472 23.8946C81 23.8472 80.9764 23.787 80.9764 23.714V16.4446C80.9764 16.3644 81 16.3023 81.0472 16.2585C81.0944 16.2147 81.1543 16.1928 81.227 16.1928H81.7283C81.8082 16.1928 81.8699 16.2147 81.9135 16.2585C81.9571 16.3023 81.9789 16.3644 81.9789 16.4446V18.9955C82.1896 18.7254 82.4384 18.5193 82.7253 18.3769C83.0123 18.2346 83.3665 18.1634 83.7878 18.1634C84.4852 18.1634 85.0283 18.3879 85.4169 18.8367C85.8056 19.2856 85.9999 19.8786 85.9999 20.6158V23.714C85.9999 23.787 85.9763 23.8472 85.9291 23.8946C85.8819 23.9421 85.8219 23.9658 85.7493 23.9658H85.2371C85.1645 23.9658 85.1045 23.9421 85.0573 23.8946C85.0101 23.8472 84.9865 23.787 84.9865 23.714V20.6814C84.9865 20.1559 84.8594 19.7472 84.6051 19.4553C84.3508 19.1633 83.984 19.0174 83.5045 19.0174C83.0395 19.0174 82.669 19.1652 82.393 19.4608C82.1169 19.7564 81.9789 20.1632 81.9789 20.6814V23.714C81.9789 23.787 81.9553 23.8472 81.9081 23.8946C81.8608 23.9421 81.8009 23.9658 81.7283 23.9658H81.227Z" fill="white"/>
<path d="M24.355 23.9658C24.2823 23.9658 24.2242 23.9421 24.1806 23.8946C24.137 23.8472 24.1152 23.787 24.1152 23.714V16.5651C24.1152 16.4848 24.137 16.4209 24.1806 16.3735C24.2242 16.326 24.2823 16.3023 24.355 16.3023H27.3299C28.0999 16.3023 28.6811 16.4884 29.0734 16.8607C29.4657 17.2329 29.6619 17.7182 29.6619 18.3167C29.6619 18.7254 29.5674 19.0666 29.3785 19.3403C29.1897 19.614 28.9681 19.8129 28.7138 19.937C29.0262 20.0903 29.2877 20.3275 29.4984 20.6486C29.7091 20.9697 29.8144 21.3383 29.8144 21.7543C29.8144 22.163 29.7218 22.5353 29.5365 22.871C29.3513 23.2067 29.0771 23.4731 28.7138 23.6702C28.3506 23.8672 27.9183 23.9658 27.4171 23.9658H24.355ZM27.1664 19.5538C27.6386 19.5538 27.9982 19.4462 28.2452 19.2309C28.4922 19.0155 28.6157 18.7145 28.6157 18.3277C28.6157 17.9481 28.4941 17.6599 28.2507 17.4628C28.0073 17.2657 27.6459 17.1672 27.1664 17.1672H25.1396V19.5538H27.1664ZM27.2754 23.1009C27.7403 23.1009 28.1054 22.975 28.3706 22.7232C28.6357 22.4714 28.7683 22.1484 28.7683 21.7543C28.7683 21.3529 28.6357 21.0281 28.3706 20.78C28.1054 20.5318 27.7403 20.4077 27.2754 20.4077H25.1396V23.1009H27.2754ZM31.4054 17.2C31.3328 17.2 31.2728 17.1763 31.2256 17.1289C31.1784 17.0814 31.1548 17.0212 31.1548 16.9482V16.379C31.1548 16.306 31.1784 16.2439 31.2256 16.1928C31.2728 16.1418 31.3328 16.1162 31.4054 16.1162H32.0483C32.121 16.1162 32.1827 16.1418 32.2336 16.1928C32.2844 16.2439 32.3099 16.306 32.3099 16.379V16.9482C32.3099 17.0212 32.2844 17.0814 32.2336 17.1289C32.1827 17.1763 32.121 17.2 32.0483 17.2H31.4054ZM31.4926 23.9658C31.4199 23.9658 31.36 23.9421 31.3128 23.8946C31.2656 23.8472 31.2419 23.787 31.2419 23.714V18.5247C31.2419 18.4517 31.2656 18.3915 31.3128 18.3441C31.36 18.2966 31.4199 18.2729 31.4926 18.2729H31.9721C32.0447 18.2729 32.1046 18.2966 32.1519 18.3441C32.1991 18.3915 32.2227 18.4517 32.2227 18.5247V23.714C32.2227 23.787 32.1991 23.8472 32.1519 23.8946C32.1046 23.9421 32.0447 23.9658 31.9721 23.9658H31.4926ZM36.0367 23.9658C34.9106 23.9658 34.3476 23.3272 34.3476 22.0499V19.1159H33.4868C33.4141 19.1159 33.356 19.094 33.3124 19.0502C33.2688 19.0064 33.247 18.948 33.247 18.8751V18.5247C33.247 18.4517 33.2688 18.3915 33.3124 18.3441C33.356 18.2966 33.4141 18.2729 33.4868 18.2729H34.3476V16.4446C34.3476 16.3717 34.3694 16.3114 34.413 16.264C34.4566 16.2166 34.5147 16.1928 34.5874 16.1928H35.0668C35.1395 16.1928 35.1994 16.2166 35.2466 16.264C35.2939 16.3114 35.3175 16.3717 35.3175 16.4446V18.2729H36.6687C36.7414 18.2729 36.8013 18.2966 36.8485 18.3441C36.8957 18.3915 36.9193 18.4517 36.9193 18.5247V18.8751C36.9193 18.948 36.8957 19.0064 36.8485 19.0502C36.8013 19.094 36.7414 19.1159 36.6687 19.1159H35.3175V21.9733C35.3175 22.3455 35.3774 22.6265 35.4973 22.8163C35.6171 23.006 35.8224 23.1009 36.113 23.1009H36.7777C36.8503 23.1009 36.9084 23.1246 36.952 23.1721C36.9956 23.2195 37.0174 23.2797 37.0174 23.3527V23.714C37.0174 23.787 36.9956 23.8472 36.952 23.8946C36.9084 23.9421 36.8503 23.9658 36.7777 23.9658H36.0367ZM40.3519 24.0753C39.5746 24.0753 38.968 23.8545 38.5321 23.4129C38.0962 22.9714 37.8674 22.3528 37.8456 21.5573L37.8347 21.1194L37.8456 20.6814C37.8674 19.8859 38.0962 19.2674 38.5321 18.8258C38.968 18.3842 39.5746 18.1634 40.3519 18.1634C40.875 18.1634 41.3163 18.2565 41.6759 18.4426C42.0355 18.6287 42.3043 18.8605 42.4823 19.1378C42.6603 19.4151 42.7566 19.6925 42.7711 19.9698C42.7784 20.0355 42.7547 20.0939 42.7003 20.145C42.6458 20.1961 42.5858 20.2216 42.5205 20.2216H42.041C41.9683 20.2216 41.9138 20.2052 41.8775 20.1724C41.8412 20.1395 41.8049 20.0793 41.7686 19.9917C41.6378 19.6341 41.458 19.3805 41.2291 19.2309C41.0003 19.0812 40.7115 19.0064 40.3628 19.0064C39.9051 19.0064 39.5419 19.1487 39.2731 19.4334C39.0043 19.718 38.859 20.1523 38.8372 20.7362L38.8263 21.1194L38.8372 21.5025C38.859 22.0864 39.0043 22.5207 39.2731 22.8053C39.5419 23.09 39.9051 23.2323 40.3628 23.2323C40.7188 23.2323 41.0094 23.1575 41.2346 23.0078C41.4598 22.8582 41.6378 22.6046 41.7686 22.247C41.8049 22.1594 41.8412 22.0992 41.8775 22.0663C41.9138 22.0335 41.9683 22.0171 42.041 22.0171H42.5205C42.5858 22.0171 42.6458 22.0426 42.7003 22.0937C42.7547 22.1448 42.7784 22.2032 42.7711 22.2689C42.7566 22.5389 42.6603 22.8126 42.4823 23.09C42.3043 23.3673 42.0355 23.6008 41.6759 23.7906C41.3163 23.9804 40.875 24.0753 40.3519 24.0753ZM46.378 24.0753C45.5789 24.0753 44.9632 23.849 44.531 23.3965C44.0987 22.944 43.8681 22.3419 43.839 21.5901L43.8281 21.1194L43.839 20.6486C43.8681 19.8968 44.1023 19.2947 44.5419 18.8422C44.9814 18.3897 45.5934 18.1634 46.378 18.1634C47.1626 18.1634 47.7747 18.3897 48.2142 18.8422C48.6537 19.2947 48.888 19.8968 48.9171 20.6486C48.9316 20.8092 48.9389 20.9661 48.9389 21.1194C48.9389 21.2726 48.9316 21.4295 48.9171 21.5901C48.888 22.3419 48.6573 22.944 48.2251 23.3965C47.7928 23.849 47.1772 24.0753 46.378 24.0753ZM46.378 23.2542C46.843 23.2542 47.2117 23.1064 47.4841 22.8108C47.7565 22.5152 47.9036 22.0901 47.9254 21.5354C47.9327 21.4624 47.9363 21.3237 47.9363 21.1194C47.9363 20.915 47.9327 20.7763 47.9254 20.7033C47.9036 20.1486 47.7565 19.7235 47.4841 19.4279C47.2117 19.1323 46.843 18.9845 46.378 18.9845C45.9131 18.9845 45.5444 19.1323 45.272 19.4279C44.9995 19.7235 44.8524 20.1486 44.8306 20.7033L44.8197 21.1194L44.8306 21.5354C44.8524 22.0901 44.9995 22.5152 45.272 22.8108C45.5444 23.1064 45.9131 23.2542 46.378 23.2542ZM50.4753 17.2C50.4027 17.2 50.3428 17.1763 50.2955 17.1289C50.2483 17.0814 50.2247 17.0212 50.2247 16.9482V16.379C50.2247 16.306 50.2483 16.2439 50.2955 16.1928C50.3428 16.1418 50.4027 16.1162 50.4753 16.1162H51.1183C51.1909 16.1162 51.2527 16.1418 51.3035 16.1928C51.3544 16.2439 51.3798 16.306 51.3798 16.379V16.9482C51.3798 17.0212 51.3544 17.0814 51.3035 17.1289C51.2527 17.1763 51.1909 17.2 51.1183 17.2H50.4753ZM50.5625 23.9658C50.4899 23.9658 50.4299 23.9421 50.3827 23.8946C50.3355 23.8472 50.3119 23.787 50.3119 23.714V18.5247C50.3119 18.4517 50.3355 18.3915 50.3827 18.3441C50.4299 18.2966 50.4899 18.2729 50.5625 18.2729H51.042C51.1146 18.2729 51.1746 18.2966 51.2218 18.3441C51.269 18.3915 51.2926 18.4517 51.2926 18.5247V23.714C51.2926 23.787 51.269 23.8472 51.2218 23.8946C51.1746 23.9421 51.1146 23.9658 51.042 23.9658H50.5625ZM53.1778 23.9658C53.1052 23.9658 53.0452 23.9421 52.998 23.8946C52.9508 23.8472 52.9272 23.787 52.9272 23.714V18.5247C52.9272 18.4517 52.9508 18.3915 52.998 18.3441C53.0452 18.2966 53.1052 18.2729 53.1778 18.2729H53.6464C53.7263 18.2729 53.7881 18.2948 53.8317 18.3386C53.8752 18.3824 53.897 18.4444 53.897 18.5247V19.0064C54.115 18.7364 54.3674 18.5284 54.6544 18.3824C54.9413 18.2364 55.2991 18.1634 55.7278 18.1634C56.4252 18.1634 56.9664 18.3879 57.3514 18.8367C57.7365 19.2856 57.929 19.8786 57.929 20.6158V23.714C57.929 23.787 57.9054 23.8472 57.8581 23.8946C57.8109 23.9421 57.751 23.9658 57.6783 23.9658H57.1771C57.1044 23.9658 57.0445 23.9421 56.9973 23.8946C56.95 23.8472 56.9264 23.787 56.9264 23.714V20.6814C56.9264 20.1559 56.7993 19.7472 56.545 19.4553C56.2908 19.1633 55.9275 19.0174 55.4553 19.0174C54.9904 19.0174 54.6199 19.1652 54.3438 19.4608C54.0678 19.7564 53.9297 20.1632 53.9297 20.6814V23.714C53.9297 23.787 53.9061 23.8472 53.8589 23.8946C53.8117 23.9421 53.7517 23.9658 53.6791 23.9658H53.1778ZM65.0557 24.0753C64.0895 24.0753 63.3539 23.8107 62.849 23.2815C62.3441 22.7524 62.0735 22.028 62.0372 21.1084C62.0299 20.9113 62.0263 20.5902 62.0263 20.145C62.0263 19.6925 62.0299 19.3641 62.0372 19.1597C62.0735 18.2401 62.3441 17.5157 62.849 16.9866C63.3539 16.4574 64.0895 16.1928 65.0557 16.1928C65.7022 16.1928 66.2507 16.3078 66.7011 16.5377C67.1516 16.7676 67.4912 17.0687 67.72 17.4409C67.9489 17.8131 68.0742 18.2109 68.096 18.6342C68.096 18.6999 68.0724 18.7528 68.0251 18.7929C67.9779 18.8331 67.9216 18.8532 67.8562 18.8532H67.3114C67.2387 18.8532 67.1806 18.8349 67.137 18.7984C67.0934 18.7619 67.0607 18.6999 67.0389 18.6123C66.9154 18.0503 66.6921 17.6562 66.3688 17.4299C66.0455 17.2037 65.6078 17.0906 65.0557 17.0906C63.7916 17.0906 63.1342 17.7985 63.0833 19.2144C63.076 19.4115 63.0724 19.7144 63.0724 20.1231C63.0724 20.5318 63.076 20.842 63.0833 21.0537C63.1342 22.4623 63.7916 23.1666 65.0557 23.1666C65.6005 23.1666 66.0364 23.0535 66.3633 22.8272C66.6902 22.601 66.9154 22.2105 67.0389 21.6558C67.0607 21.5682 67.0934 21.5062 67.137 21.4697C67.1806 21.4332 67.2387 21.4149 67.3114 21.4149H67.8562C67.9216 21.4149 67.9779 21.435 68.0251 21.4752C68.0724 21.5153 68.096 21.5682 68.096 21.6339C68.0742 22.0572 67.9489 22.455 67.72 22.8272C67.4912 23.1994 67.1516 23.5005 66.7011 23.7304C66.2507 23.9603 65.7022 24.0753 65.0557 24.0753ZM71.0055 24.0753C70.6495 24.0753 70.3208 24.0023 70.0193 23.8563C69.7178 23.7103 69.4781 23.5114 69.3001 23.2596C69.1221 23.0078 69.0331 22.7287 69.0331 22.4221C69.0331 21.9404 69.2293 21.5463 69.6216 21.2398C70.0139 20.9332 70.5478 20.7289 71.2234 20.6267L72.858 20.3968V20.0793C72.858 19.3276 72.4258 18.9517 71.5612 18.9517C71.2271 18.9517 70.9583 19.0192 70.7549 19.1542C70.5515 19.2892 70.4025 19.448 70.3081 19.6305C70.279 19.7034 70.2481 19.7527 70.2155 19.7782C70.1828 19.8038 70.1374 19.8166 70.0792 19.8166H69.6543C69.5889 19.8166 69.5326 19.7928 69.4854 19.7454C69.4381 19.698 69.4145 19.6414 69.4145 19.5757C69.4145 19.4078 69.4926 19.2126 69.6488 18.99C69.805 18.7674 70.0466 18.574 70.3735 18.4098C70.7004 18.2456 71.0999 18.1634 71.5721 18.1634C72.3858 18.1634 72.9688 18.3532 73.3211 18.7327C73.6735 19.1123 73.8496 19.5867 73.8496 20.1559V23.714C73.8496 23.787 73.826 23.8472 73.7788 23.8946C73.7316 23.9421 73.6717 23.9658 73.599 23.9658H73.1195C73.0469 23.9658 72.9888 23.9421 72.9452 23.8946C72.9016 23.8472 72.8798 23.787 72.8798 23.714V23.2323C72.72 23.4731 72.4875 23.6738 72.1824 23.8344C71.8773 23.995 71.485 24.0753 71.0055 24.0753ZM71.2234 23.2761C71.7029 23.2761 72.0952 23.1191 72.4003 22.8053C72.7054 22.4915 72.858 22.0353 72.858 21.4368V21.1303L71.583 21.3164C71.06 21.3894 70.6641 21.5135 70.3953 21.6886C70.1265 21.8638 69.9921 22.0828 69.9921 22.3455C69.9921 22.6447 70.1138 22.8746 70.3571 23.0352C70.6005 23.1958 70.8893 23.2761 71.2234 23.2761ZM77.3694 24.0753C76.8681 24.0753 76.445 23.9931 76.0999 23.8289C75.7548 23.6647 75.4987 23.4768 75.3317 23.2651C75.1646 23.0535 75.081 22.8783 75.081 22.7396C75.081 22.6666 75.1064 22.6101 75.1573 22.5699C75.2082 22.5298 75.2626 22.5097 75.3208 22.5097H75.7784C75.822 22.5097 75.8565 22.517 75.882 22.5316C75.9074 22.5462 75.9419 22.5791 75.9855 22.6301C76.1526 22.8345 76.3396 22.9951 76.5467 23.1118C76.7537 23.2286 77.0316 23.287 77.3803 23.287C77.7726 23.287 78.0868 23.214 78.3229 23.0681C78.559 22.9221 78.6771 22.7104 78.6771 22.4331C78.6771 22.2506 78.6262 22.1047 78.5245 21.9952C78.4228 21.8857 78.2539 21.7872 78.0178 21.6996C77.7817 21.612 77.4312 21.5171 76.9662 21.4149C76.3342 21.2763 75.8874 21.0756 75.6259 20.8128C75.3643 20.5501 75.2336 20.2107 75.2336 19.7947C75.2336 19.5246 75.3135 19.2637 75.4733 19.0119C75.6331 18.7601 75.8711 18.5557 76.1871 18.3988C76.5031 18.2419 76.879 18.1634 77.3149 18.1634C77.7726 18.1634 78.1631 18.2401 78.4864 18.3934C78.8097 18.5466 79.053 18.7254 79.2165 18.9298C79.3799 19.1342 79.4617 19.3057 79.4617 19.4443C79.4617 19.51 79.438 19.5648 79.3908 19.6086C79.3436 19.6523 79.2873 19.6742 79.2219 19.6742H78.8078C78.7061 19.6742 78.6335 19.6341 78.5899 19.5538C78.4664 19.4151 78.3629 19.3075 78.2793 19.2309C78.1958 19.1542 78.0741 19.0885 77.9143 19.0338C77.7544 18.9791 77.5547 18.9517 77.3149 18.9517C76.959 18.9517 76.6865 19.0265 76.4976 19.1761C76.3088 19.3257 76.2143 19.5246 76.2143 19.7728C76.2143 19.926 76.2543 20.0556 76.3342 20.1614C76.4141 20.2672 76.5667 20.3658 76.7919 20.457C77.0171 20.5482 77.3512 20.6413 77.7944 20.7362C78.4846 20.8822 78.9731 21.0902 79.2601 21.3602C79.547 21.6303 79.6905 21.9769 79.6905 22.4002C79.6905 22.7141 79.6015 22.9987 79.4235 23.2542C79.2455 23.5096 78.9804 23.7103 78.628 23.8563C78.2757 24.0023 77.8562 24.0753 77.3694 24.0753ZM81.227 23.9658C81.1543 23.9658 81.0944 23.9421 81.0472 23.8946C81 23.8472 80.9764 23.787 80.9764 23.714V16.4446C80.9764 16.3644 81 16.3023 81.0472 16.2585C81.0944 16.2147 81.1543 16.1928 81.227 16.1928H81.7283C81.8082 16.1928 81.8699 16.2147 81.9135 16.2585C81.9571 16.3023 81.9789 16.3644 81.9789 16.4446V18.9955C82.1896 18.7254 82.4384 18.5193 82.7253 18.3769C83.0123 18.2346 83.3665 18.1634 83.7878 18.1634C84.4852 18.1634 85.0283 18.3879 85.4169 18.8367C85.8056 19.2856 85.9999 19.8786 85.9999 20.6158V23.714C85.9999 23.787 85.9763 23.8472 85.9291 23.8946C85.8819 23.9421 85.8219 23.9658 85.7493 23.9658H85.2371C85.1645 23.9658 85.1045 23.9421 85.0573 23.8946C85.0101 23.8472 84.9865 23.787 84.9865 23.714V20.6814C84.9865 20.1559 84.8594 19.7472 84.6051 19.4553C84.3508 19.1633 83.984 19.0174 83.5045 19.0174C83.0395 19.0174 82.669 19.1652 82.393 19.4608C82.1169 19.7564 81.9789 20.1632 81.9789 20.6814V23.714C81.9789 23.787 81.9553 23.8472 81.9081 23.8946C81.8608 23.9421 81.8009 23.9658 81.7283 23.9658H81.227Z" fill="white"/>
</g>
<defs>
<linearGradient id="paint0_linear_23_686" x1="9.25136" y1="11.2002" x2="9.25136" y2="28.9904" gradientUnits="userSpaceOnUse">
<stop stop-color="#D7D7D7"/>
<stop offset="1" stop-color="white"/>
</linearGradient>
<clipPath id="clip0_23_686">
<rect width="86" height="40" fill="white"/>
</clipPath>
</defs>
</svg>
