<svg width="86" height="40" viewBox="0 0 86 40" fill="none" xmlns="http://www.w3.org/2000/svg">
<g clip-path="url(#clip0_23_688)">
<path fill-rule="evenodd" clip-rule="evenodd" d="M4.49164 21.0982C4.49164 21.6331 4.49164 22.1681 4.49164 22.7031C4.49164 24.9377 4.48202 27.1723 4.49878 29.4067C4.50251 29.9161 4.37493 30.1807 3.80672 30.1653C2.74714 30.1366 1.686 30.1464 0.625793 30.1619C0.157228 30.1687 -0.00108089 29.9734 5.54788e-06 29.5078C0.0110251 24.5189 0.00978347 19.5301 0.00357527 14.5413C0.00264403 13.8784 0.340215 13.4085 0.804899 13.0133C2.11545 11.8988 4.35196 12.2758 5.19053 13.7783C6.33967 15.8372 7.37054 17.9582 8.38682 20.086C8.51921 20.3633 8.67271 20.6302 8.81985 20.9082C9.1242 20.7701 8.99523 20.531 8.996 20.3573C9.00671 18.1486 9.00283 15.9401 9.0033 13.7315C9.00361 12.7009 9.00423 12.7005 10.0665 12.6996C10.8682 12.699 11.6742 12.7501 12.4706 12.685C13.2424 12.6218 13.4993 12.851 13.4847 13.6656C13.4342 16.4709 13.4653 19.2775 13.4653 22.0838C13.4653 24.0325 13.4679 25.9813 13.4642 27.9301C13.4619 29.069 12.885 29.9604 11.9356 30.313C10.9216 30.6895 9.91606 30.3958 9.15478 29.502C8.71415 28.9845 8.39707 28.3887 8.09007 27.7884C6.9459 25.5514 5.80747 23.3115 4.66671 21.0727C4.60836 21.0813 4.55 21.0897 4.49164 21.0982Z" fill="white"/>
<path fill-rule="evenodd" clip-rule="evenodd" d="M23.2721 19.6111C22.0856 18.9963 20.6729 19.3663 19.9458 20.4769C19.0845 21.7927 19.1357 23.6781 20.0671 24.9494C20.8736 26.0502 22.3701 26.3565 23.691 25.681C24.4973 25.2687 25.0952 24.6408 25.5521 23.8593C26.2544 22.6582 26.047 22.8096 27.2274 23.3893C27.8999 23.7198 28.5617 24.0726 29.23 24.4118C29.5744 24.5864 29.7445 24.7946 29.5519 25.2149C27.9266 28.7646 24.6766 31.1422 20.3702 30.3721C19.1721 30.158 18.106 29.5977 17.2466 28.7461C15.1166 26.635 14.0678 24.0962 14.8822 21.1134C15.7324 17.9989 17.8063 15.9721 21.0204 15.4417C23.3409 15.0589 25.4155 15.8052 27.0712 17.5483C27.6629 18.1709 28.1178 18.898 28.5893 19.6126C28.8401 19.9925 28.7911 20.2423 28.4027 20.5106C26.4014 21.8935 24.4085 23.2891 22.4306 24.7054C21.9541 25.0465 21.6516 25.0771 21.3428 24.5083C20.997 23.8718 20.6027 23.2568 20.1786 22.6699C19.8508 22.2161 19.9635 21.9344 20.3844 21.6584C21.1633 21.1477 21.9356 20.6266 22.703 20.0983C22.9068 19.9582 23.1795 19.8875 23.2721 19.6111Z" fill="white"/>
<path fill-rule="evenodd" clip-rule="evenodd" d="M39.4558 22.9596C39.4314 21.1945 38.532 20.163 37.0393 20.1884C35.6049 20.2128 34.4636 21.4917 34.4757 23.0614C34.4875 24.599 35.5822 25.7496 37.0196 25.7383C38.1538 25.7295 39.667 24.8673 39.4558 22.9596ZM36.91 30.4707C33.5549 30.8857 29.6548 27.219 29.6897 22.9023C29.7218 18.9254 32.9408 15.3293 37.0253 15.3754C41.4162 15.4252 44.3606 19.1277 44.2877 23.2273C44.2049 27.8839 40.1061 30.7954 36.91 30.4707Z" fill="white"/>
<path fill-rule="evenodd" clip-rule="evenodd" d="M55.5449 20.7309C55.5449 19.3021 55.5621 17.873 55.5356 16.4447C55.5261 15.9377 55.7037 15.7584 56.201 15.7683C57.3124 15.7908 58.4251 15.7966 59.5362 15.7658C60.0929 15.7504 60.2312 15.9787 60.227 16.5029C60.2067 19.1005 60.2122 21.6984 60.2228 24.2961C60.2262 25.1344 60.7058 25.6985 61.4173 25.7662C62.1051 25.8319 62.6954 25.3161 62.8486 24.5124C62.868 24.4106 62.8801 24.3064 62.8841 24.2029C62.9106 23.5031 62.9512 22.8033 62.955 22.1032C62.9654 20.2589 62.9754 18.4141 62.9507 16.57C62.9429 15.9846 63.1164 15.7262 63.7363 15.7473C64.7953 15.7831 65.8566 15.7704 66.9165 15.7513C67.4451 15.7418 67.7032 15.8739 67.6962 16.4923C67.6649 19.2196 67.7771 21.9516 67.6585 24.6741C67.5043 28.2185 65.0627 30.6335 61.7874 30.4777C60.8326 30.4323 59.8804 30.4838 58.9722 30.0821C56.8027 29.1229 55.5705 27.0953 55.5061 24.5489C55.474 23.277 55.5005 22.0037 55.5005 20.7309H55.5449Z" fill="white"/>
<path fill-rule="evenodd" clip-rule="evenodd" d="M77.6679 21.8644C77.6679 19.5022 77.6632 17.1401 77.6691 14.7779C77.6763 11.8423 79.8956 9.61286 82.8187 9.59992C83.6453 9.59633 84.4727 9.62534 85.2987 9.60195C85.7736 9.58838 86.0122 9.70299 85.9962 10.2458C85.9636 11.361 85.9698 12.4783 85.994 13.5938C86.004 14.0496 85.814 14.1865 85.3973 14.1733C84.8553 14.156 84.3122 14.1681 83.7696 14.1726C83.4547 14.1751 83.1466 14.2135 82.9162 14.4638C82.648 14.7549 82.5691 15.1333 82.6781 15.4763C82.7735 15.7773 83.1263 15.6418 83.367 15.6479C84.0383 15.6647 84.7111 15.6744 85.3819 15.65C85.8581 15.6326 86.0102 15.8267 85.9993 16.2931C85.9742 17.3827 85.9763 18.4736 85.9981 19.5633C86.0075 20.0358 85.8294 20.2182 85.3627 20.2037C84.6656 20.1818 83.9652 20.2341 83.2706 20.1877C82.683 20.1484 82.5162 20.367 82.5212 20.9405C82.5446 23.6918 82.5044 26.4439 82.5485 29.1948C82.561 29.9788 82.3529 30.2514 81.5497 30.1957C80.4954 30.1226 79.4316 30.1552 78.3731 30.1873C77.8515 30.2032 77.6302 30.0565 77.6348 29.4953C77.6553 26.9518 77.6438 24.408 77.6438 21.8644C77.6518 21.8644 77.6598 21.8644 77.6679 21.8644Z" fill="white"/>
<path fill-rule="evenodd" clip-rule="evenodd" d="M47.7768 30.1571C46.95 30.1569 46.1223 30.1327 45.297 30.1659C44.7963 30.1861 44.5942 30.0127 44.6049 29.5042C44.6257 28.5183 44.6257 27.5312 44.6051 26.5453C44.5954 26.0774 44.7691 25.9052 45.2388 25.9158C46.3233 25.9403 47.4088 25.9232 48.494 25.9225C48.6748 25.9224 48.856 25.9263 49.0365 25.9177C49.3085 25.9048 49.5763 25.8201 49.6534 25.5426C49.7431 25.2206 49.4636 25.1014 49.2312 24.9842C48.4482 24.5887 47.6497 24.2215 46.8842 23.7948C45.1461 22.8257 44.4644 21.1733 44.8453 18.9467C45.0978 17.4704 46.6154 16.065 48.3315 15.8363C50.0259 15.6105 51.7364 15.7662 53.4399 15.7533C53.7982 15.7507 53.9557 15.9275 53.9551 16.2763C53.9535 17.3146 53.9529 18.3528 53.9558 19.3909C53.9569 19.8085 53.7223 19.9011 53.354 19.8958C52.3465 19.8815 51.3388 19.8916 50.3312 19.8916C50.0161 19.8918 49.6511 19.8735 49.5682 20.2577C49.4821 20.6555 49.8566 20.7654 50.1291 20.8903C51.069 21.3215 51.9897 21.788 52.8641 22.3418C54.3595 23.2893 55.0944 25.0425 54.6966 26.7014C54.227 28.6606 52.8921 29.8726 51.0285 30.0719C49.9452 30.1876 48.8615 30.16 47.7768 30.1571Z" fill="white"/>
<path fill-rule="evenodd" clip-rule="evenodd" d="M73.1148 17.3662C74.0816 16.2113 75.0895 15.6446 76.4183 15.7422C76.9367 15.7803 77.1594 15.9219 77.1431 16.4726C77.1118 17.5356 77.1185 18.6005 77.1413 19.664C77.1514 20.1392 77.0211 20.3605 76.5007 20.3946C74.4316 20.5303 73.7167 20.6017 73.726 23.5818C73.732 25.502 73.7035 27.4229 73.7442 29.3423C73.7583 30.0091 73.52 30.19 72.8947 30.1686C71.7338 30.1288 70.5702 30.1449 69.4082 30.1627C68.9522 30.1697 68.7642 30.0177 68.7656 29.5343C68.7784 25.1488 68.7788 20.7632 68.7658 16.3778C68.7642 15.8776 69.0001 15.7533 69.4276 15.7564C70.3573 15.763 71.2886 15.789 72.2166 15.7452C72.8997 15.7131 73.2514 15.9077 73.1187 16.6533C73.0921 16.8027 73.1148 16.9611 73.1148 17.3662Z" fill="white"/>
</g>
<defs>
<clipPath id="clip0_23_688">
<rect width="86" height="40" fill="white"/>
</clipPath>
</defs>
</svg>
