<svg width="86" height="40" viewBox="0 0 86 40" fill="none" xmlns="http://www.w3.org/2000/svg">
<g>
<path d="M10.2779 7.32703C10.0185 8.10638 9.74758 8.88444 9.47162 9.65868C8.7086 9.42999 7.85275 9.23962 7.05539 9.31117C6.49839 9.35844 5.97826 9.6344 5.72265 10.1506C5.31062 10.9759 5.41617 11.8127 5.40727 12.702C6.5518 12.7032 7.69506 12.702 8.83832 12.702C8.84086 13.48 8.83959 14.2568 8.83959 15.0349C7.69506 15.0349 6.55053 15.0336 5.40727 15.0349C5.40473 19.0057 5.40727 22.9778 5.406 26.9486C4.38864 26.9486 3.37128 26.9486 2.35392 26.9486C2.35265 22.9778 2.35519 19.0057 2.35265 15.0349C1.56928 15.0336 0.784639 15.0349 0.0012717 15.0336C-1.76616e-09 14.5558 0 14.0767 0 13.5976C0.785911 13.2897 1.56928 12.9741 2.35392 12.6611C2.34247 11.3873 2.30432 10.2221 2.83716 9.03137C3.2759 8.04122 4.14701 7.3347 5.18345 7.05362C6.82013 6.59368 8.67808 6.80321 10.2779 7.32703Z" fill="white"/>
<path d="M11.4781 6.92315C12.4955 6.92187 13.5128 6.92188 14.5302 6.92188C14.5302 13.5974 14.5302 20.273 14.5302 26.9472C13.5128 26.9485 12.4955 26.9485 11.4781 26.9472C11.4781 20.273 11.4768 13.5974 11.4781 6.92315Z" fill="white"/>
<path d="M70.0697 7.35297C70.6636 7.17027 71.4533 7.20349 71.9518 7.61488C72.5139 8.07866 72.5762 8.99726 72.3715 9.64885C72.1617 10.2787 71.5589 10.6301 70.9154 10.6326C70.2719 10.6658 69.6284 10.5023 69.2863 9.9082C68.8362 9.05603 69.0269 7.66343 70.0697 7.35297Z" fill="white"/>
<path d="M22.196 12.4512C23.0328 12.4742 23.8505 12.5751 24.6364 12.8805C26.0938 13.4247 27.2408 14.6448 27.7584 16.1115C28.2887 17.5693 28.1946 18.9772 28.201 20.4963C25.0497 20.4989 21.8971 20.495 18.7459 20.4976C18.8196 21.5133 18.9748 22.4664 19.5788 23.3122C20.1295 24.1056 21.0031 24.5821 21.9455 24.7214C23.8734 24.9514 25.744 24.5361 27.5015 23.7466C27.5003 24.5808 27.5028 25.4151 27.5003 26.2507C25.6639 27.1425 23.6902 27.3022 21.6797 27.1693C20.1346 27.0275 18.6594 26.4692 17.5556 25.3461C16.3754 24.1656 15.8108 22.5878 15.6722 20.9435C15.5793 19.4755 15.6416 18.0356 16.1224 16.6341C16.5738 15.2811 17.4627 14.0776 18.6772 13.3276C19.7391 12.6773 20.965 12.455 22.196 12.4512ZM23.9637 15.3322C22.7759 14.503 20.8925 14.6116 19.8662 15.6644C19.1655 16.3977 18.9341 17.3099 18.8044 18.2899C20.9421 18.295 23.0811 18.2937 25.2201 18.2912C25.1514 17.1477 24.9327 16.054 23.9637 15.3322Z" fill="white"/>
<path d="M63.5912 12.5934C64.8883 12.8591 66.0049 13.6909 66.6916 14.819C67.6238 16.3049 67.8501 18.0718 67.8756 19.794C67.8565 21.055 67.7459 22.2713 67.3224 23.4672C66.9472 24.5659 66.2491 25.6276 65.2978 26.3035C64.4089 26.9384 63.3356 27.2221 62.2521 27.2093C61.1216 27.2336 60.0076 26.9678 59.078 26.3073C58.6214 26.0058 58.3175 25.5727 57.8978 25.2277C57.9194 26.0186 58.0555 26.7941 58.0555 27.5875C58.053 29.4822 58.0555 31.3782 58.053 33.2741C57.0369 33.2729 56.0195 33.2729 55.0034 33.2741C55.0009 30.1913 55.0021 27.1084 55.0034 24.0255L55.0023 22.1263L55.0022 20.2271C55.0034 17.7179 55.0009 15.2099 55.0034 12.702C55.8275 12.7033 56.6515 12.702 57.4769 12.7033C57.6346 13.3638 57.7668 14.0294 57.9258 14.6887C58.4345 14.0601 58.9075 13.4673 59.6337 13.0776C60.8011 12.4158 62.3004 12.3264 63.5912 12.5934ZM63.314 15.5319C62.5471 14.9123 61.4624 14.8586 60.5328 15.0375C59.8842 15.1703 59.2789 15.4731 58.8732 16.0123C58.2895 16.7699 58.1204 17.8393 58.0682 18.7719C58.0339 19.7493 58.0352 20.7535 58.1967 21.7194C58.3238 22.4566 58.5718 23.2972 59.1047 23.8441C59.5637 24.3385 60.192 24.5876 60.8494 24.6783C61.6188 24.7665 62.3869 24.7422 63.0558 24.304C63.8875 23.7904 64.3466 22.7645 64.5526 21.8408C64.8095 20.5874 64.8222 19.2766 64.6098 18.0169C64.4331 17.0612 64.091 16.1554 63.314 15.5319Z" fill="white"/>
<path d="M82.5095 12.6099C83.476 12.813 84.3853 13.264 84.9995 14.0587C85.7193 14.9811 85.9813 16.2089 86.0003 17.3588C85.9991 20.5554 86.0003 23.752 86.0003 26.9473C84.983 26.9486 83.9656 26.9486 82.9483 26.9473C82.947 23.9232 82.9495 20.8927 82.947 17.8698C82.9241 17.0023 82.6901 15.9892 81.9678 15.4373C81.2276 14.8853 80.1225 14.8751 79.2552 15.0386C78.374 15.1945 77.5855 15.7119 77.1722 16.5207C76.6521 17.5274 76.5859 18.8063 76.5605 19.9179C76.5554 22.261 76.5605 24.6041 76.5592 26.9473C75.552 26.9498 74.5449 26.9486 73.5377 26.9473C73.5377 22.1997 73.5364 17.4508 73.5377 12.7032C74.3312 12.7019 75.1235 12.7019 75.917 12.7032C76.0645 13.3535 76.2057 14.0051 76.3659 14.6528C76.8263 14.0421 77.3312 13.4991 78.0166 13.1414C79.3824 12.4042 81.0089 12.316 82.5095 12.6099Z" fill="white"/>
<path d="M28.6296 12.7015C29.7881 12.7015 30.9479 12.704 32.1064 12.7002C33.1848 14.3509 34.2518 16.0092 35.3276 17.6612C36.4136 16.0118 37.4844 14.3509 38.5743 12.7028C39.7226 12.7015 40.8722 12.7015 42.0206 12.7028C40.4398 15.037 38.8362 17.3533 37.2492 19.6824C38.9176 22.1047 40.5836 24.5284 42.2571 26.9469C41.1037 26.9494 39.9502 26.9482 38.7968 26.9482C37.6408 25.1889 36.4925 23.4245 35.3276 21.6716C34.1666 23.4258 33.022 25.1889 31.8699 26.9482C30.7177 26.9482 29.5655 26.9482 28.4121 26.9482C30.0742 24.5258 31.7351 22.1034 33.3946 19.6798C31.8025 17.3571 30.2167 15.028 28.6296 12.7015Z" fill="white"/>
<path d="M51.1614 13.6835C52.1432 14.5714 52.4954 16.0496 52.1304 17.3081C51.9066 18.0593 51.4984 18.7633 51.0469 19.3983C49.8554 21.0707 47.9593 22.1362 46.0212 22.6907C46.3531 23.1941 46.6418 23.6911 47.2535 23.8814C47.9275 24.068 48.7172 23.9108 49.3785 23.7243C51.5416 23.0305 53.3436 21.7542 55.0019 20.2274C55.0019 21.4936 55.0019 22.7597 55.0032 24.0258C53.996 24.8652 52.9062 25.6279 51.7388 26.2258C50.1364 27.0295 48.3904 27.5022 46.5922 27.2288C45.2683 27.0295 44.0628 26.2654 43.2947 25.168C42.7466 24.3759 42.3714 23.4432 42.2659 22.4824C42.1272 20.8381 42.229 19.2092 42.8267 17.6582C43.2578 16.4214 43.8008 15.2703 44.7088 14.3108C45.5812 13.3909 46.7257 12.7521 48.005 12.6793C49.1521 12.5975 50.3017 12.8888 51.1614 13.6835ZM48.8723 15.5654C47.7901 15.4096 46.8605 16.1122 46.4523 17.0832C46.0415 18.1385 45.6079 19.1044 45.6766 20.2683C46.9508 20.1035 48.0979 19.3817 48.8673 18.3583C49.2259 17.883 49.6626 17.3099 49.5659 16.6762C49.5659 16.2501 49.2996 15.7187 48.8723 15.5654Z" fill="white"/>
<path d="M69.2467 12.7021C70.2628 12.7034 71.2802 12.7034 72.2962 12.7021C72.2988 17.451 72.2975 22.1999 72.2975 26.9488C71.2802 26.9488 70.2628 26.9488 69.2454 26.9488C69.2454 22.1999 69.2442 17.451 69.2467 12.7021Z" fill="white"/>
</g>
</svg>
