<svg width="86" height="40" viewBox="0 0 86 40" fill="none" xmlns="http://www.w3.org/2000/svg">
<g>
<path fill-rule="evenodd" clip-rule="evenodd" d="M12.048 32.2082C5.39409 32.2082 0 26.789 0 20.1041C0 13.4192 5.39409 8 12.048 8C18.702 8 24.0961 13.4192 24.0961 20.1041C24.0961 26.789 18.702 32.2082 12.048 32.2082ZM10.8239 23.9188L11.6416 20.0077L15.7742 17.1615L16.2586 14.837L12.1252 17.6948L13.2992 12.08H10.1245L8.41932 20.2571L6.68082 21.4592L6.27715 23.7026L7.93918 22.5578L7.08436 26.6575H17.2539L17.8189 23.9188H10.8239Z" fill="white"/>
<path d="M39.2207 24.2363C39.3294 24.2363 39.4233 24.2761 39.5024 24.3555C39.5815 24.435 39.621 24.5293 39.621 24.6386V25.1749C39.621 25.2841 39.5815 25.3785 39.5024 25.4579C39.4233 25.5374 39.3294 25.5771 39.2207 25.5771H33.1855C33.0768 25.5771 32.9829 25.5374 32.9038 25.4579C32.8247 25.3785 32.7852 25.2841 32.7852 25.1749V15.5512C32.7852 15.442 32.8247 15.3476 32.9038 15.2682C32.9829 15.1887 33.0768 15.149 33.1855 15.149H33.7935C33.9022 15.149 33.9961 15.1887 34.0752 15.2682C34.1543 15.3476 34.1939 15.442 34.1939 15.5512V24.2363H39.2207Z" fill="white"/>
<path d="M42.3703 25.1749C42.3703 25.2841 42.3308 25.3785 42.2517 25.4579C42.1726 25.5374 42.0787 25.5771 41.9699 25.5771H41.4213C41.3125 25.5771 41.2186 25.5374 41.1395 25.4579C41.0605 25.3785 41.0209 25.2841 41.0209 25.1749V18.2327C41.0209 18.1235 41.0605 18.0291 41.1395 17.9497C41.2186 17.8702 41.3125 17.8305 41.4213 17.8305H41.9699C42.0787 17.8305 42.1726 17.8702 42.2517 17.9497C42.3308 18.0291 42.3703 18.1235 42.3703 18.2327V25.1749ZM42.5186 16.2514C42.5186 16.3606 42.479 16.455 42.4 16.5344C42.3209 16.6139 42.227 16.6536 42.1182 16.6536H41.273C41.1643 16.6536 41.0703 16.6139 40.9913 16.5344C40.9122 16.455 40.8726 16.3606 40.8726 16.2514V15.4022C40.8726 15.293 40.9122 15.1986 40.9913 15.1192C41.0703 15.0397 41.1643 15 41.273 15H42.1182C42.227 15 42.3209 15.0397 42.4 15.1192C42.479 15.1986 42.5186 15.293 42.5186 15.4022V16.2514Z" fill="white"/>
<path d="M46.6143 22.9701C46.6143 23.1588 46.6292 23.3375 46.6588 23.5064C46.6984 23.6653 46.7626 23.8043 46.8516 23.9235C46.9406 24.0427 47.0641 24.137 47.2223 24.2066C47.3904 24.2661 47.6029 24.2959 47.8599 24.2959H48.6458C48.7546 24.2959 48.8485 24.3357 48.9276 24.4151C49.0067 24.4946 49.0462 24.5889 49.0462 24.6982V25.1749C49.0462 25.2841 49.0067 25.3785 48.9276 25.4579C48.8485 25.5374 48.7546 25.5771 48.6458 25.5771H47.7116C46.8516 25.5771 46.2288 25.3536 45.8433 24.9067C45.4577 24.4598 45.265 23.8143 45.265 22.9701V19.1117H44.1677C44.0589 19.1117 43.965 19.0719 43.8859 18.9925C43.8068 18.913 43.7673 18.8187 43.7673 18.7094V18.2327C43.7673 18.1235 43.8068 18.0291 43.8859 17.9497C43.965 17.8702 44.0589 17.8305 44.1677 17.8305H45.265V15.4022C45.265 15.293 45.3045 15.1986 45.3836 15.1192C45.4627 15.0397 45.5566 15 45.6653 15H46.214C46.3227 15 46.4166 15.0397 46.4957 15.1192C46.5748 15.1986 46.6143 15.293 46.6143 15.4022V17.8305H48.4975C48.6063 17.8305 48.7002 17.8702 48.7793 17.9497C48.8584 18.0291 48.8979 18.1235 48.8979 18.2327V18.7094C48.8979 18.8187 48.8584 18.913 48.7793 18.9925C48.7002 19.0719 48.6063 19.1117 48.4975 19.1117H46.6143V22.9701Z" fill="white"/>
<path d="M50.1789 20.9589C50.2185 20.5021 50.3272 20.075 50.5052 19.6778C50.6831 19.2805 50.9154 18.9329 51.2021 18.635C51.4888 18.337 51.8298 18.1036 52.2253 17.9348C52.6306 17.7659 53.0804 17.6815 53.5746 17.6815C54.1085 17.6815 54.583 17.7709 54.9982 17.9497C55.4232 18.1185 55.7841 18.3668 56.0806 18.6945C56.3772 19.0223 56.6046 19.4195 56.7627 19.8863C56.9209 20.3531 57 20.8745 57 21.4505V21.8528C57 21.962 56.9604 22.0564 56.8814 22.1358C56.8023 22.2153 56.7084 22.255 56.5996 22.255H51.4987V22.3444C51.5184 23.0197 51.7211 23.5411 52.1066 23.9086C52.5021 24.2661 52.9914 24.4449 53.5746 24.4449C54.1183 24.4449 54.5237 24.3704 54.7906 24.2215C55.0674 24.0625 55.2898 23.8887 55.4578 23.7C55.5369 23.6206 55.6061 23.566 55.6654 23.5362C55.7248 23.5064 55.8137 23.4915 55.9323 23.4915H56.3772C56.4859 23.4915 56.5848 23.5312 56.6738 23.6107C56.7627 23.6901 56.7973 23.7845 56.7776 23.8937C56.7479 24.0725 56.6639 24.2711 56.5255 24.4896C56.3871 24.6982 56.1844 24.8968 55.9175 25.0855C55.6605 25.2643 55.3343 25.4182 54.9388 25.5473C54.5533 25.6665 54.0986 25.7261 53.5746 25.7261C53.0804 25.7261 52.6355 25.6417 52.2401 25.4728C51.8447 25.2941 51.4987 25.0557 51.2021 24.7578C50.9154 24.4499 50.6831 24.0923 50.5052 23.6851C50.3272 23.268 50.2185 22.8161 50.1789 22.3295C50.1295 21.8726 50.1295 21.4158 50.1789 20.9589ZM51.4987 21.0036H55.6654V20.9589C55.6654 20.3531 55.4727 19.8714 55.0871 19.5139C54.7115 19.1464 54.2073 18.9627 53.5746 18.9627C53.288 18.9627 53.021 19.0123 52.7739 19.1117C52.5268 19.201 52.3093 19.3351 52.1215 19.5139C51.9336 19.6827 51.7853 19.8913 51.6766 20.1396C51.5679 20.3879 51.5086 20.661 51.4987 20.9589V21.0036Z" fill="white"/>
<path d="M59.7824 22.2252C59.8219 22.6225 59.906 22.9601 60.0345 23.2382C60.1729 23.5163 60.336 23.7447 60.5238 23.9235C60.7215 24.1023 60.939 24.2363 61.1763 24.3257C61.4135 24.4052 61.6557 24.4449 61.9029 24.4449C62.3774 24.4449 62.7827 24.3555 63.1188 24.1768C63.4549 23.998 63.7169 23.7 63.9047 23.2829C63.9739 23.124 64.0431 23.0197 64.1123 22.9701C64.1914 22.9105 64.2853 22.8807 64.394 22.8807H64.8389C64.9476 22.8807 65.0415 22.9204 65.1206 22.9999C65.2096 23.0793 65.2491 23.1737 65.2392 23.2829C65.2293 23.5213 65.1503 23.7845 65.002 24.0725C64.8636 24.3506 64.651 24.6137 64.3644 24.862C64.0876 25.1004 63.7416 25.304 63.3264 25.4728C62.9211 25.6417 62.4466 25.7261 61.9029 25.7261C61.3591 25.7261 60.8748 25.6367 60.4497 25.4579C60.0345 25.2792 59.6786 25.0358 59.382 24.728C59.0953 24.4201 58.868 24.0576 58.6999 23.6405C58.5418 23.2233 58.4528 22.7764 58.433 22.2997C58.4231 22.1408 58.4132 21.9471 58.4034 21.7187C58.4034 21.4803 58.4132 21.2767 58.433 21.1079C58.4726 20.6312 58.5714 20.1843 58.7296 19.7671C58.8976 19.35 59.125 18.9875 59.4117 18.6796C59.6984 18.3718 60.0493 18.1284 60.4645 17.9497C60.8797 17.7709 61.3591 17.6815 61.9029 17.6815C62.4466 17.6815 62.9211 17.7659 63.3264 17.9348C63.7416 18.1036 64.0876 18.3122 64.3644 18.5605C64.651 18.7988 64.8636 19.062 65.002 19.35C65.1503 19.6281 65.2293 19.8863 65.2392 20.1247C65.2491 20.2339 65.2096 20.3283 65.1206 20.4077C65.0415 20.4872 64.9476 20.5269 64.8389 20.5269H64.394C64.2853 20.5269 64.1914 20.5021 64.1123 20.4524C64.0431 20.3928 63.9739 20.2836 63.9047 20.1247C63.7169 19.7076 63.4549 19.4096 63.1188 19.2308C62.7827 19.0521 62.3774 18.9627 61.9029 18.9627C61.6557 18.9627 61.4086 19.0074 61.1614 19.0968C60.9242 19.1762 60.7067 19.3053 60.509 19.4841C60.3212 19.6629 60.158 19.8913 60.0196 20.1694C59.8911 20.4475 59.812 20.7851 59.7824 21.1824C59.7527 21.5499 59.7527 21.8975 59.7824 22.2252Z" fill="white"/>
<path d="M70.1724 17.6815C70.7063 17.6815 71.1808 17.7659 71.596 17.9348C72.0112 18.0937 72.367 18.3171 72.6636 18.6052C72.9602 18.8932 73.1925 19.2457 73.3605 19.6629C73.5385 20.0701 73.6472 20.517 73.6868 21.0036C73.6967 21.093 73.7016 21.2023 73.7016 21.3314C73.7016 21.4505 73.7016 21.5797 73.7016 21.7187C73.7016 21.8478 73.7016 21.9769 73.7016 22.106C73.7016 22.2252 73.6967 22.3245 73.6868 22.404C73.6373 22.9006 73.5286 23.3524 73.3605 23.7596C73.1925 24.1668 72.9602 24.5144 72.6636 24.8024C72.367 25.0905 72.0112 25.3189 71.596 25.4877C71.1808 25.6466 70.7063 25.7261 70.1724 25.7261C69.6386 25.7261 69.1641 25.6466 68.7489 25.4877C68.3337 25.3189 67.9778 25.0905 67.6813 24.8024C67.3847 24.5144 67.1475 24.1668 66.9695 23.7596C66.8015 23.3524 66.6977 22.9006 66.6581 22.404C66.6482 22.3245 66.6383 22.2252 66.6285 22.106C66.6285 21.9769 66.6285 21.8478 66.6285 21.7187C66.6285 21.5797 66.6285 21.4505 66.6285 21.3314C66.6383 21.2023 66.6482 21.093 66.6581 21.0036C66.6977 20.517 66.8015 20.0701 66.9695 19.6629C67.1475 19.2457 67.3847 18.8932 67.6813 18.6052C67.9778 18.3171 68.3337 18.0937 68.7489 17.9348C69.1641 17.7659 69.6386 17.6815 70.1724 17.6815ZM72.3374 22.3295C72.3572 22.1607 72.367 21.9571 72.367 21.7187C72.367 21.4704 72.3572 21.2569 72.3374 21.0781C72.3077 20.7802 72.2435 20.5021 72.1446 20.2439C72.0458 19.9856 71.9074 19.7622 71.7294 19.5735C71.5515 19.3848 71.334 19.2358 71.077 19.1266C70.8199 19.0173 70.5184 18.9627 70.1724 18.9627C69.8264 18.9627 69.5249 19.0173 69.2679 19.1266C69.0109 19.2358 68.7934 19.3848 68.6155 19.5735C68.4375 19.7622 68.2991 19.9856 68.2003 20.2439C68.1014 20.5021 68.0372 20.7802 68.0075 21.0781C67.9877 21.2569 67.9778 21.4704 67.9778 21.7187C67.9778 21.9571 67.9877 22.1607 68.0075 22.3295C68.0372 22.6274 68.1014 22.9055 68.2003 23.1637C68.2991 23.422 68.4375 23.6454 68.6155 23.8341C68.7934 24.0228 69.0109 24.1718 69.2679 24.281C69.5249 24.3903 69.8264 24.4449 70.1724 24.4449C70.5184 24.4449 70.8199 24.3903 71.077 24.281C71.334 24.1718 71.5515 24.0228 71.7294 23.8341C71.9074 23.6454 72.0458 23.422 72.1446 23.1637C72.2435 22.9055 72.3077 22.6274 72.3374 22.3295Z" fill="white"/>
<path d="M76.9215 25.1749C76.9215 25.2841 76.882 25.3785 76.8029 25.4579C76.7238 25.5374 76.6299 25.5771 76.5212 25.5771H75.9725C75.8638 25.5771 75.7699 25.5374 75.6908 25.4579C75.6117 25.3785 75.5722 25.2841 75.5722 25.1749V18.2327C75.5722 18.1235 75.6117 18.0291 75.6908 17.9497C75.7699 17.8702 75.8638 17.8305 75.9725 17.8305H76.5212C76.6299 17.8305 76.7238 17.8702 76.8029 17.9497C76.882 18.0291 76.9215 18.1235 76.9215 18.2327V25.1749ZM77.0698 16.2514C77.0698 16.3606 77.0303 16.455 76.9512 16.5344C76.8721 16.6139 76.7782 16.6536 76.6695 16.6536H75.8243C75.7155 16.6536 75.6216 16.6139 75.5425 16.5344C75.4634 16.455 75.4239 16.3606 75.4239 16.2514V15.4022C75.4239 15.293 75.4634 15.1986 75.5425 15.1192C75.6216 15.0397 75.7155 15 75.8243 15H76.6695C76.7782 15 76.8721 15.0397 76.9512 15.1192C77.0303 15.1986 77.0698 15.293 77.0698 15.4022V16.2514Z" fill="white"/>
<path d="M85.9996 25.1749C85.9996 25.2841 85.9601 25.3785 85.881 25.4579C85.8019 25.5374 85.708 25.5771 85.5993 25.5771H85.0506C84.9419 25.5771 84.848 25.5374 84.7689 25.4579C84.6898 25.3785 84.6503 25.2841 84.6503 25.1749V21.242C84.6503 20.4773 84.4674 19.9062 84.1016 19.5288C83.7358 19.1514 83.2267 18.9627 82.5743 18.9627C81.9515 18.9627 81.4473 19.1514 81.0618 19.5288C80.6861 19.9062 80.4983 20.4773 80.4983 21.242V25.1749C80.4983 25.2841 80.4588 25.3785 80.3797 25.4579C80.3006 25.5374 80.2067 25.5771 80.0979 25.5771H79.5493C79.4406 25.5771 79.3466 25.5374 79.2676 25.4579C79.1885 25.3785 79.1489 25.2841 79.1489 25.1749V18.2327C79.1489 18.1235 79.1885 18.0291 79.2676 17.9497C79.3466 17.8702 79.4406 17.8305 79.5493 17.8305H80.0979C80.2067 17.8305 80.3006 17.8702 80.3797 17.9497C80.4588 18.0291 80.4983 18.1235 80.4983 18.2327V18.6945C80.6861 18.4463 80.9629 18.2178 81.3287 18.0093C81.7044 17.7908 82.1937 17.6815 82.7967 17.6815C83.2613 17.6815 83.6914 17.761 84.0868 17.9199C84.4822 18.0689 84.8183 18.2873 85.0951 18.5754C85.3818 18.8534 85.6042 19.201 85.7624 19.6182C85.9205 20.0353 85.9996 20.5021 85.9996 21.0185V25.1749Z" fill="white"/>
</g>
</svg>
