<svg width="86" height="40" viewBox="0 0 86 40" fill="none" xmlns="http://www.w3.org/2000/svg">
<g>
<path d="M27.6953 27.2388V13.3217H32.4379C33.6972 13.241 34.9566 13.564 36.0283 14.2639C36.8857 14.9368 37.3412 15.9867 37.2609 17.0904C37.2609 17.7095 37.1001 18.3017 36.7518 18.8132C36.3767 19.3515 35.8676 19.7553 35.2513 19.9976C35.9479 20.1591 36.5642 20.5629 36.9929 21.1551C37.4216 21.7473 37.636 22.4472 37.6092 23.174C37.6896 24.3046 37.2341 25.4352 36.3767 26.1889C35.3317 26.9427 34.0723 27.3195 32.7862 27.2388H27.6953ZM30.1068 19.19H32.4647C33.1078 19.2169 33.724 19.0554 34.2331 18.6786C34.6886 18.3017 34.903 17.7364 34.8494 17.1711C34.903 16.6058 34.6886 16.0405 34.2599 15.6637C33.724 15.3137 33.081 15.1522 32.4379 15.206H30.1068V19.19V19.19ZM30.1068 20.9667V25.3275H32.7862C33.4293 25.3545 34.0723 25.166 34.5814 24.7622C34.9833 24.3854 35.2245 23.8201 35.1977 23.2548C35.2781 22.6356 35.0637 22.0434 34.635 21.6127C34.2063 21.182 33.5901 20.9667 33.0006 21.0474L30.1068 20.9667Z" fill="white"/>
<path d="M39.7798 14.2094C39.753 13.8864 39.8869 13.5634 40.1013 13.3211C40.3692 13.0788 40.7176 12.9443 41.0659 12.9712C41.4142 12.9443 41.7893 13.0788 42.0305 13.3211C42.2448 13.5634 42.3788 13.8864 42.352 14.2094C42.352 14.5325 42.2448 14.8555 42.0305 15.0708C41.7625 15.3131 41.4142 15.4477 41.0659 15.4208C40.7176 15.4477 40.3692 15.3131 40.1013 15.0708C39.8869 14.8555 39.753 14.5325 39.7798 14.2094ZM42.2448 27.2382H39.9137V16.9013H42.2448V27.2382Z" fill="white"/>
<path fill-rule="evenodd" clip-rule="evenodd" d="M47.6305 14.3711V16.8745H49.4525V18.5974H47.6305V24.4118C47.6037 24.7079 47.6841 25.031 47.8716 25.2732C48.1128 25.4617 48.4075 25.5693 48.7022 25.5424C48.9702 25.5424 49.2381 25.5155 49.5061 25.4617V27.2652C49.0238 27.3998 48.5147 27.4806 48.0056 27.4806C46.2104 27.4806 45.3262 26.4846 45.3262 24.4657V18.6243H43.6113V16.9015H45.3262V14.398H47.6305V14.3711Z" fill="white"/>
<path fill-rule="evenodd" clip-rule="evenodd" d="M55.4542 25.5694C55.9901 25.5963 56.526 25.4348 56.9547 25.0848C57.3298 24.7618 57.5441 24.3311 57.5709 23.8466H59.7681C59.7413 24.4926 59.5269 25.1118 59.1518 25.6501C58.7767 26.2154 58.2676 26.6731 57.6513 26.9692C57.0083 27.2922 56.2848 27.4806 55.5614 27.4537C54.2752 27.5075 53.0159 26.9961 52.1317 26.027C51.2475 24.9502 50.792 23.5505 50.8724 22.1507V21.9084C50.792 20.5356 51.2475 19.1896 52.1317 18.1398C53.0159 17.1707 54.2752 16.6592 55.5614 16.7131C56.6599 16.6592 57.7317 17.0361 58.5623 17.7898C59.3394 18.5166 59.7949 19.5396 59.7949 20.6163H57.5174C57.5174 20.051 57.303 19.5126 56.9279 19.1088C56.526 18.7051 55.9901 18.4897 55.4274 18.5436C54.7575 18.5166 54.1145 18.8127 53.7126 19.3511C53.2571 20.0779 53.0159 20.9663 53.0963 21.8277V22.2045C53.0427 23.0928 53.2571 23.9542 53.7126 24.708C54.0609 25.3002 54.7575 25.6232 55.4542 25.5694Z" fill="white"/>
<path d="M61.0008 21.9891C61.0008 21.047 61.1884 20.1048 61.5903 19.2434C61.9654 18.4628 62.5549 17.7898 63.3052 17.3591C64.0554 16.9284 64.9128 16.6861 65.797 16.713C67.0563 16.6592 68.2889 17.1437 69.1731 18.059C70.0573 19.0281 70.5664 20.3202 70.5932 21.6392V22.1776C70.62 23.1197 70.4056 24.0619 70.0037 24.9233C69.6286 25.7039 69.0659 26.35 68.3157 26.7807C67.5654 27.2383 66.6812 27.4537 65.797 27.4537C64.4573 27.5075 63.198 26.9422 62.3138 25.9462C61.4028 24.8695 60.9205 23.4697 61.0008 22.043V21.9891ZM63.3319 22.2045C63.2784 23.0928 63.5195 23.9542 64.0018 24.7079C64.4037 25.3002 65.1004 25.6501 65.8238 25.6232C66.5473 25.6501 67.2439 25.3002 67.6458 24.7079C68.1281 23.9004 68.3693 22.9582 68.3157 22.0161C68.3693 21.1277 68.1281 20.2663 67.6458 19.5395C67.2171 18.9742 66.5473 18.6243 65.8238 18.6243C65.1004 18.6243 64.4305 18.9742 64.0018 19.5395C63.4927 20.3202 63.2516 21.2354 63.3319 22.2045Z" fill="white"/>
<path d="M72.549 14.2094C72.5222 13.8864 72.6561 13.5634 72.8705 13.3211C73.1116 13.0788 73.46 12.9443 73.8083 12.9712C74.1566 12.9443 74.5317 13.0788 74.7729 13.3211C75.014 13.5634 75.1212 13.8864 75.1212 14.2094C75.1212 14.5325 75.014 14.8555 74.7729 15.0708C74.5049 15.3131 74.1566 15.4477 73.8083 15.4208C73.46 15.4477 73.1117 15.3131 72.8437 15.0708C72.6294 14.8555 72.5222 14.5325 72.549 14.2094ZM75.014 27.2382H72.6829V16.9013H75.014V27.2382Z" fill="white"/>
<path fill-rule="evenodd" clip-rule="evenodd" d="M79.6498 16.9017L79.7302 18.1131C80.4537 17.1978 81.5522 16.6864 82.7312 16.7402C84.8747 16.7402 85.9733 17.9785 86.0001 20.455V27.2924H83.669V20.4819C83.7226 19.9435 83.5618 19.4052 83.2403 18.9745C82.8651 18.6245 82.356 18.4361 81.847 18.4899C80.936 18.4899 80.1053 19.0283 79.757 19.8628V27.2116H77.4795V16.9017H79.6498Z" fill="white"/>
<path fill-rule="evenodd" clip-rule="evenodd" d="M7.94832 30.361C13.5483 31.7877 19.2287 28.369 20.6488 22.7429C21.3454 19.9972 20.9167 17.1169 19.4699 14.7211C18.023 12.2984 15.6919 10.5756 12.9856 9.90261C7.35884 8.52974 1.70525 11.9484 0.311951 17.6014C-1.08135 23.2544 2.32152 28.9343 7.94832 30.361ZM12.7445 15.9053C14.2182 16.4167 15.29 17.1705 15.0756 18.5702L15.1024 18.6241C15.0488 19.4855 14.4326 20.1854 13.6019 20.3469C14.1378 20.5622 14.5665 20.9929 14.7541 21.5313C14.9416 22.0697 14.9149 22.6619 14.6469 23.1734C14.0306 24.8962 12.557 25.0577 10.5742 24.6808L10.1187 26.5921L8.93973 26.296L9.44882 24.4655L8.53782 24.2232L8.05552 26.1344L6.90337 25.8383L7.38567 23.9002L6.55504 23.6848L5.05457 23.308L5.61725 21.9889L6.42107 22.0428C6.52825 22.0697 6.63543 22.0697 6.7426 22.0159C6.84978 21.962 6.93016 21.8813 6.95696 21.7736L7.73399 18.7587L8.26988 16.6052C8.29667 16.2821 8.05552 15.986 7.73399 15.9322C7.76079 15.9053 6.90337 15.7168 6.90337 15.7168L7.19811 14.4786L8.80576 14.9362L9.52921 15.0977L9.98471 13.2134L11.1369 13.5095L10.6814 15.3669L11.6192 15.5822L12.0747 13.7248L13.2268 14.0209L12.7445 15.9053ZM9.06326 22.8012C9.99108 23.0714 12.0743 23.6779 12.3962 22.285C12.7372 20.9391 10.6865 20.483 9.72714 20.2696C9.63124 20.2483 9.54624 20.2294 9.47562 20.2123L8.85935 22.7427C8.91842 22.759 8.98693 22.779 9.06326 22.8012ZM9.96301 19.0842C10.7729 19.2974 12.4529 19.7396 12.7445 18.5433H12.7981C13.0903 17.2958 11.3913 16.9374 10.5558 16.7612C10.4719 16.7435 10.3967 16.7276 10.333 16.7128L9.74356 19.0279C9.80592 19.0429 9.87988 19.0624 9.96301 19.0842Z" fill="white"/>
</g>
</svg>
