<svg width="86" height="40" viewBox="0 0 86 40" fill="none" xmlns="http://www.w3.org/2000/svg">
<g>
<path d="M0.0235853 19.3645L7.39792 12.1715C7.42937 12.1408 7.49226 12.1408 7.52371 12.1715L11.1401 15.7065C11.1716 15.7373 11.1716 15.7987 11.1401 15.8295L8.76587 18.1349C8.73442 18.1657 8.67153 18.1657 8.64008 18.1349L7.52371 17.0437C7.49226 17.013 7.42937 17.013 7.39792 17.0437L5.03939 19.3645C5.00795 19.3953 5.00795 19.4567 5.03939 19.4875L7.39792 21.7929C7.42937 21.8237 7.49226 21.8237 7.52371 21.7929L11.203 18.1964L13.7031 20.6402L7.52371 26.6805C7.49226 26.7113 7.42937 26.7113 7.39792 26.6805L0.0235853 19.5029C-0.00786177 19.4567 -0.00786177 19.4106 0.0235853 19.3645Z" fill="#A9A9A9"/>
<path d="M24.8826 19.5029L17.524 26.6959C17.4925 26.7266 17.4296 26.7266 17.3982 26.6959L13.7818 23.1608C13.7503 23.1301 13.7503 23.0686 13.7818 23.0379L16.156 20.7171C16.1875 20.6863 16.2504 20.6863 16.2818 20.7171L17.3982 21.8083C17.4296 21.8391 17.4925 21.8391 17.524 21.8083L19.8982 19.5029C19.9297 19.4721 19.9297 19.4106 19.8982 19.3799L17.524 17.0591C17.4925 17.0283 17.4296 17.0283 17.3982 17.0591L13.7189 20.6556L11.2031 18.2118L17.3825 12.1715C17.4139 12.1408 17.4768 12.1408 17.5083 12.1715L24.8669 19.3645C24.914 19.3953 24.914 19.4567 24.8826 19.5029C24.8826 19.4875 24.8826 19.4875 24.8826 19.5029Z" fill="white"/>
<path d="M28.4355 15.4453V12.1101C28.6242 12.1101 29.206 12.0947 29.4733 12.0947C30.5111 12.0947 30.8412 12.6173 30.8412 13.2013C30.8412 13.8008 30.3695 14.3233 29.5834 14.3233C29.5047 14.3233 29.3318 14.3233 29.206 14.308V15.4453C29.206 15.4453 28.4355 15.4453 28.4355 15.4453ZM29.206 12.8325V13.5856C29.3161 13.601 29.4419 13.6163 29.5676 13.6163C29.772 13.6163 30.0236 13.5241 30.0236 13.2013C30.0236 12.9093 29.8349 12.8171 29.5519 12.8171C29.4419 12.8171 29.3632 12.8171 29.206 12.8325Z" fill="white"/>
<path d="M32.9801 12.0645C34.0178 12.0645 34.7883 12.7254 34.7883 13.7859C34.7883 14.8003 34.0178 15.5073 32.9801 15.5073C31.9423 15.5073 31.1719 14.8464 31.1719 13.7859C31.1719 12.8176 31.9109 12.0645 32.9801 12.0645ZM32.9801 14.7849C33.6248 14.7849 33.9549 14.3392 33.9549 13.7705C33.9549 13.1557 33.5147 12.7561 32.9801 12.7561C32.414 12.7561 32.0052 13.1557 32.0052 13.7705C32.0052 14.3545 32.4455 14.7849 32.9801 14.7849Z" fill="white"/>
<path d="M38.7979 15.4458H38.0589L37.3513 13.3094L36.6438 15.4458H35.9047L34.8984 12.126H35.779L36.345 14.2316L36.9739 12.126H37.7601L38.4205 14.2316L39.0023 12.126H39.757L38.7979 15.4458Z" fill="white"/>
<path d="M40.1973 12.1104H42.2099V12.8174H40.9677V13.4014H42.0684V14.1238H40.9677V14.7232H42.257V15.4302H40.1973V12.1104Z" fill="white"/>
<path d="M42.9961 15.4453V12.1101C43.1848 12.1101 44.0496 12.0947 44.1596 12.0947C45.0873 12.0947 45.4175 12.5404 45.4175 13.1552C45.4175 13.77 45.0244 14.0313 44.8515 14.1082L45.8421 15.4146H44.8986L44.0653 14.2465H43.7823V15.4146H42.9961V15.4453V15.4453ZM43.7665 12.8325V13.5702H44.0496C44.3483 13.5702 44.5842 13.4626 44.5842 13.186C44.5842 13.0015 44.4898 12.8325 44.1125 12.8325C44.0024 12.8171 43.9395 12.8171 43.7665 12.8325Z" fill="white"/>
<path d="M46.2666 12.1104H48.2792V12.8174H47.0371V13.4014H48.1377V14.1238H47.0371V14.7232H48.3264V15.4302H46.2666V12.1104Z" fill="white"/>
<path d="M49.0654 12.1101H49.1283C49.3013 12.1101 49.9145 12.0947 50.1346 12.0947C51.5026 12.0947 52.0372 12.8632 52.0372 13.7393C52.0372 14.6768 51.3925 15.4453 50.0875 15.4453C49.9145 15.4453 49.4585 15.43 49.1283 15.43H49.0654V12.1101ZM49.8359 12.8325V14.7383C49.9302 14.7537 50.0088 14.7537 50.1189 14.7537C50.795 14.7537 51.2195 14.4002 51.2195 13.77C51.2195 13.1552 50.7636 12.8325 50.1189 12.8325C50.0403 12.8171 49.9302 12.8171 49.8359 12.8325Z" fill="white"/>
<path d="M53.6406 12.1255C53.8293 12.1101 54.301 12.0947 54.6784 12.0947C55.496 12.0947 55.8262 12.4636 55.8262 12.9247C55.8262 13.2782 55.6847 13.5087 55.4331 13.6624V13.6778C55.6847 13.77 55.9205 14.0159 55.9205 14.4309C55.9205 15.1226 55.3702 15.4607 54.6312 15.4607C54.301 15.4607 53.8608 15.4453 53.6563 15.43L53.6406 12.1255ZM54.4268 12.8325V13.4319H54.6784C54.8828 13.4319 55.04 13.355 55.04 13.1091C55.04 12.9093 54.8513 12.8171 54.6627 12.8171C54.5683 12.8017 54.5054 12.8171 54.4268 12.8325ZM54.4268 14.0928V14.7076C54.474 14.723 54.5369 14.7383 54.6941 14.7383C54.9928 14.7383 55.1501 14.6154 55.1501 14.3848C55.1501 14.1696 54.9928 14.0928 54.7413 14.0928H54.4268V14.0928Z" fill="white"/>
<path d="M58.1853 14.0933V15.4458H57.3991V14.0933L56.2041 12.126H57.1003L57.8236 13.3863L58.5469 12.126H59.3803L58.1853 14.0933Z" fill="white"/>
<path d="M67.3834 23.4529C67.352 23.6066 67.3205 23.7603 67.2891 23.8986C67.2891 23.9447 67.2419 23.9755 67.1947 23.9755H67.0375C66.9903 23.9755 66.9589 23.9447 66.9432 23.8986C66.9117 23.7603 66.8803 23.622 66.8331 23.4836L65.9211 20.8708C65.9054 20.8401 65.874 20.8093 65.8425 20.8093H64.2859C64.2544 20.8093 64.2073 20.8401 64.2073 20.8708L63.311 23.4836C63.2639 23.622 63.2167 23.7603 63.201 23.8986C63.1852 23.9447 63.1538 23.9755 63.1066 23.9601H62.9651C62.9179 23.9601 62.8865 23.9294 62.8708 23.8833C62.855 23.7449 62.8236 23.6066 62.7921 23.4683L62.0846 20.8554C62.0689 20.8247 62.0374 20.7939 62.006 20.7939H60.2135C60.1663 20.7939 60.1191 20.8247 60.1191 20.8862C60.1191 20.9015 60.1191 20.9015 60.1191 20.9169L61.9745 26.5576C61.9902 26.5883 62.0217 26.6191 62.0531 26.6191H63.5469C63.5783 26.6191 63.6098 26.6037 63.6255 26.5576L64.6633 23.914C64.7261 23.7603 64.7733 23.6066 64.8205 23.4375C64.8205 23.3914 64.8677 23.3607 64.8991 23.3607H65.0092L65.1035 23.4222C65.135 23.5759 65.1664 23.7296 65.2293 23.8679L66.2828 26.5422C66.2985 26.573 66.3299 26.6037 66.3614 26.6037H67.9652C68.0124 26.6037 68.0438 26.573 68.0438 26.5422L69.8363 20.9015C69.852 20.8554 69.8206 20.8093 69.7734 20.7939C69.7577 20.7939 69.7577 20.7939 69.742 20.7939H68.091C68.0438 20.7939 68.0124 20.8247 68.0124 20.8554L67.3834 23.4529Z" fill="white"/>
<path d="M71.1568 20.8252H72.8235C72.8707 20.8252 72.9179 20.8713 72.9179 20.9174V26.5581C72.9179 26.6042 72.8707 26.6503 72.8235 26.6503H71.1568C71.1097 26.6503 71.0625 26.6042 71.0625 26.5581V20.902C71.0625 20.8559 71.1097 20.8252 71.1568 20.8252Z" fill="white"/>
<path d="M72.0375 17.5977C71.2513 17.5977 70.8896 18.1356 70.8896 18.6274C70.8896 19.3959 71.4557 19.7494 72.0375 19.7494C72.5721 19.7494 73.0909 19.3652 73.0909 18.6274C73.1067 18.0741 72.6507 17.5977 72.0689 17.5977C72.0532 17.5977 72.0532 17.5977 72.0375 17.5977Z" fill="white"/>
<path d="M77.4774 23.0386C76.8956 22.9002 76.471 22.808 76.471 22.5006C76.471 22.3162 76.6755 22.1317 77.0528 22.1317C77.6031 22.1471 78.1535 22.3162 78.6252 22.5928C78.6723 22.6236 78.7195 22.6082 78.751 22.5621L79.3484 21.4555C79.3642 21.4247 79.3642 21.3786 79.3327 21.3479C78.8925 21.0098 78.122 20.6562 76.9428 20.6562C75.2446 20.6562 74.6314 21.6553 74.6314 22.516C74.6314 23.8685 75.9364 24.1759 76.8956 24.4065C77.4774 24.5448 77.9019 24.6524 77.9019 24.9598C77.9019 25.0674 77.8547 25.3287 77.3358 25.3287C76.7855 25.3287 75.9364 25.0213 75.449 24.6831C75.4176 24.6524 75.3547 24.6678 75.3232 24.6985L74.5685 25.7283C74.5371 25.759 74.5371 25.8051 74.5685 25.8359C74.9459 26.2201 75.9993 26.7888 77.1943 26.7888C78.751 26.7888 79.7415 26.0357 79.7415 24.8522C79.7258 23.5611 78.4208 23.2537 77.4774 23.0386Z" fill="white"/>
<path d="M83.7666 23.0386C83.1849 22.9002 82.7603 22.808 82.7603 22.5006C82.7603 22.3162 82.9647 22.1317 83.3421 22.1317C83.8924 22.1471 84.4427 22.3162 84.9144 22.5928C84.9616 22.6236 85.0088 22.6082 85.0402 22.5621L85.6377 21.4555C85.6534 21.4247 85.6535 21.3786 85.6063 21.3479C85.166 21.0098 84.3956 20.6562 83.2163 20.6562C81.5182 20.6562 80.9049 21.6553 80.9049 22.516C80.9049 23.8685 82.21 24.1759 83.1534 24.4065C83.7352 24.5448 84.1597 24.6524 84.1597 24.9598C84.1597 25.0674 84.1125 25.3287 83.5937 25.3287C83.0433 25.3287 82.1943 25.0213 81.7068 24.6831C81.6754 24.6524 81.6125 24.6678 81.581 24.6985L80.8263 25.7283C80.7949 25.759 80.7949 25.8051 80.8263 25.8359C81.2037 26.2201 82.2572 26.7888 83.4522 26.7888C85.0088 26.7888 85.9994 26.0357 85.9994 24.8522C86.0151 23.5611 84.71 23.2537 83.7666 23.0386Z" fill="white"/>
<path d="M32.0999 21.3169C31.2666 20.9327 30.5433 20.6099 30.5433 19.9029C30.5433 19.4111 30.9521 19.1037 31.6125 19.1037C32.1156 19.0883 32.6188 19.2727 32.9804 19.6109C33.0119 19.6416 33.0748 19.6416 33.1062 19.6109L34.0653 18.3044C34.0968 18.2737 34.0811 18.2122 34.0496 18.1815C33.4364 17.6128 32.5087 17.29 31.4238 17.29C29.4583 17.29 28.4363 18.5965 28.4363 19.8875C28.4363 21.6243 29.82 22.2698 30.9364 22.8078C31.7383 23.192 32.4301 23.5148 32.4301 24.1449C32.4301 24.6521 32.037 24.9749 31.4238 24.9749C30.6691 24.9595 29.9458 24.6521 29.4269 24.1142C29.3955 24.0835 29.3326 24.0681 29.3011 24.0988C29.3011 24.0988 29.3011 24.0988 29.2854 24.1142L28.2634 25.313C28.2319 25.3438 28.2319 25.3745 28.2476 25.4053C28.7508 26.2967 30.1659 26.7732 31.3452 26.7732C33.1848 26.7732 34.5213 25.6512 34.5213 24.1142C34.537 22.4082 33.2477 21.8241 32.0999 21.3169Z" fill="white"/>
<path d="M39.0647 20.6562C37.0836 20.6562 35.7471 21.8858 35.7471 23.7302C35.7471 25.5746 37.0836 26.8041 39.0647 26.8041C41.0459 26.8041 42.3824 25.5746 42.3824 23.7302C42.3824 21.8858 41.0459 20.6562 39.0647 20.6562ZM39.0647 25.1288C38.2943 25.1288 37.7282 24.5448 37.7282 23.7302C37.7282 22.808 38.4043 22.3316 39.0647 22.3316C39.8352 22.3316 40.4012 22.9156 40.4012 23.7302C40.4012 24.5755 39.8509 25.1288 39.0647 25.1288Z" fill="white"/>
<path d="M43.751 19.7341V26.5429C43.751 26.589 43.7824 26.6351 43.8296 26.6351H45.4963C45.5435 26.6351 45.5906 26.589 45.5906 26.5429V22.5775C45.5906 22.5314 45.6221 22.4853 45.6692 22.4853H46.7856C46.8328 22.4853 46.88 22.4392 46.88 22.393V20.9022C46.88 20.8561 46.8328 20.81 46.7856 20.81H45.6692C45.6221 20.81 45.5906 20.7792 45.5749 20.7177V19.8417C45.5749 19.2422 45.9208 18.9656 46.2353 18.9656C46.4554 18.9656 46.6598 19.0117 46.8485 19.0886C46.8957 19.1039 46.9428 19.0886 46.9743 19.0578L47.5089 17.8743C47.5246 17.8436 47.5089 17.7975 47.4932 17.7668C47.1473 17.4901 46.5026 17.3057 45.8737 17.3057C44.5372 17.3057 43.751 18.1971 43.751 19.7341Z" fill="white"/>
<path d="M50.3547 25.129C50.0402 25.129 49.8516 24.8369 49.8516 24.3605V22.5776C49.8516 22.5315 49.883 22.4854 49.9302 22.4854H51.4711C51.5183 22.4854 51.5654 22.4393 51.5654 22.3931V20.9023C51.5654 20.8562 51.5183 20.8101 51.4711 20.8101H49.9302C49.883 20.8101 49.8358 20.7793 49.8358 20.7332V19.227C49.8358 19.1809 49.7887 19.1348 49.7415 19.1348H48.0748C48.0276 19.1348 47.9805 19.1809 47.9805 19.227V24.4527C47.9805 26.0511 48.5622 26.8043 49.7887 26.8043C50.4648 26.8196 51.1252 26.6198 51.6755 26.2356C51.7069 26.2048 51.7227 26.1741 51.7069 26.128L51.2352 24.9445C51.2195 24.8984 51.1723 24.883 51.1252 24.8984C51.1252 24.8984 51.1094 24.8984 51.1094 24.9138C50.905 25.0521 50.6377 25.129 50.3547 25.129Z" fill="white"/>
<path d="M56.8488 21.3323C56.0155 20.948 55.2765 20.6253 55.2765 19.9183C55.2765 19.4264 55.6853 19.119 56.3457 19.119C56.8645 19.0883 57.352 19.2727 57.7293 19.6262C57.7608 19.657 57.8237 19.657 57.8551 19.6109L58.8143 18.3044C58.8457 18.2737 58.83 18.2122 58.7985 18.1815C58.1853 17.6128 57.2576 17.29 56.1727 17.29C54.2073 17.29 53.1852 18.5965 53.1852 19.8875C53.1852 21.6243 54.5689 22.2852 55.6853 22.8078C56.4872 23.192 57.179 23.5148 57.179 24.1449C57.179 24.6521 56.7859 24.9749 56.1727 24.9749C55.418 24.9595 54.6947 24.6521 54.1915 24.1142C54.1601 24.0835 54.0972 24.0681 54.0658 24.0988C54.0658 24.0988 54.0658 24.0988 54.05 24.1142L53.028 25.313C52.9966 25.3438 52.9966 25.3745 53.0123 25.4053C53.5154 26.2967 54.9305 26.7732 56.1098 26.7732C57.9495 26.7732 59.286 25.6512 59.286 24.1142C59.286 22.4235 57.9809 21.8395 56.8488 21.3323Z" fill="white"/>
</g>
</svg>
