<svg width="86" height="40" viewBox="0 0 86 40" fill="none" xmlns="http://www.w3.org/2000/svg">
<g>
<path fill-rule="evenodd" clip-rule="evenodd" d="M25.844 19.5637H21.1847V23.0857H26.653V24.6812H19.1621V13.2119H26.653V14.8224H21.1847V17.9832H25.844V19.5637Z" fill="white"/>
<path fill-rule="evenodd" clip-rule="evenodd" d="M30.4728 14.085V16.1621H31.9709V17.5769H30.4728V22.3332C30.4484 22.5851 30.5178 22.8371 30.6675 23.0406C30.857 23.206 31.1076 23.2826 31.3567 23.2513C31.5787 23.2552 31.8004 23.2299 32.0159 23.1761V24.6812C31.6113 24.797 31.1931 24.8578 30.7724 24.8618C29.3042 24.8618 28.5701 24.0491 28.5701 22.4235V17.5769H27.1768V16.1621H28.5701V14.085H30.4728Z" fill="white"/>
<path fill-rule="evenodd" clip-rule="evenodd" d="M35.2976 17.0946C35.8724 16.3732 36.745 15.9571 37.6647 15.9657C39.4775 15.9657 40.3914 16.9892 40.4064 19.0663V24.6354H38.5037V19.1867C38.5525 18.7365 38.4174 18.2857 38.1291 17.9374C37.8147 17.6765 37.4123 17.5472 37.0055 17.5762C36.2851 17.5491 35.6162 17.95 35.2976 18.5997V24.6203H33.335V12.5791H35.2377L35.2976 17.0946Z" fill="white"/>
<path d="M46.0689 24.8466C44.9519 24.9032 43.8633 24.4822 43.0725 23.6876C42.308 22.8782 41.9027 21.7921 41.9489 20.6773V20.4816C41.9351 19.6957 42.1044 18.9174 42.4433 18.2089C42.7523 17.5866 43.2301 17.0648 43.8216 16.7037C44.4087 16.2525 45.1205 15.9948 45.8591 15.9662C46.8684 15.9041 47.8506 16.3088 48.5259 17.0649C49.2073 17.9651 49.5424 19.0822 49.4697 20.2107V20.9783H43.9265C43.9529 21.6023 44.203 22.1957 44.6306 22.6491C45.0267 23.0494 45.567 23.2719 46.1288 23.2662C46.9827 23.3157 47.8044 22.9312 48.3162 22.2427L49.3349 23.2361C48.9979 23.7451 48.5326 24.1553 47.9866 24.4251C47.386 24.7059 46.7312 24.8498 46.0689 24.8466ZM45.8441 17.5466C45.3647 17.5269 44.9021 17.7261 44.5857 18.0884C44.2348 18.5181 44.0162 19.0411 43.9564 19.5936H47.597V19.4581C47.6066 18.9122 47.4265 18.3799 47.0876 17.953C46.7467 17.651 46.2967 17.504 45.8441 17.5466Z" fill="white"/>
<path fill-rule="evenodd" clip-rule="evenodd" d="M55.3877 17.9079C55.1286 17.8844 54.8678 17.8844 54.6087 17.9079C53.869 17.8286 53.1621 18.2353 52.8558 18.9164V24.7413H50.9531V16.1619H52.8109V17.1102C53.1866 16.3983 53.9266 15.9569 54.7285 15.9663C54.9579 15.9571 55.1869 15.9928 55.4027 16.0716L55.3877 17.9079Z" fill="white"/>
<path d="M60.1822 24.8466C59.0646 24.9071 57.9744 24.4855 57.1858 23.6877C56.4213 22.8782 56.0159 21.7922 56.0622 20.6774V20.4817C56.0484 19.6957 56.2177 18.9174 56.5566 18.2089C57.1232 16.8298 58.4726 15.94 59.9574 15.9662C60.9711 15.904 61.9579 16.3083 62.6392 17.065C63.3206 17.9652 63.6557 19.0822 63.583 20.2108V20.9784H58.0398C58.064 21.6281 58.3378 22.2431 58.8038 22.6943C59.1979 23.0975 59.7395 23.3206 60.302 23.3114C61.1439 23.3328 61.9413 22.9322 62.4294 22.2427L63.4632 23.2361C63.1204 23.7457 62.6502 24.1558 62.0998 24.4252C61.5006 24.7098 60.8449 24.8539 60.1822 24.8466ZM59.9574 17.5466C59.4744 17.5309 59.0088 17.729 58.684 18.0885C58.3456 18.5241 58.1331 19.0448 58.0697 19.5936H61.6953V19.4582C61.7128 18.911 61.5318 18.3761 61.1859 17.953C60.8505 17.6519 60.4054 17.5046 59.9574 17.5466Z" fill="white"/>
<path fill-rule="evenodd" clip-rule="evenodd" d="M70.1902 23.8534C69.5825 24.5327 68.7008 24.8982 67.7931 24.8468C67.0134 24.8993 66.2506 24.6016 65.7106 24.034C65.1948 23.3659 64.9439 22.5293 65.0065 21.686V16.1621H66.9092V21.6559C66.9092 22.7396 67.3586 23.2815 68.2426 23.2815C69.0111 23.3708 69.7552 22.9761 70.1153 22.2881V16.1621H72.018V24.6813H70.2501L70.1902 23.8534Z" fill="white"/>
<path fill-rule="evenodd" clip-rule="evenodd" d="M75.7633 16.1615V17.0496C76.3793 16.3018 77.3164 15.8983 78.2802 15.9659C79.2502 15.873 80.1778 16.3867 80.6174 17.2603C81.2 16.415 82.1717 15.9269 83.1943 15.9659C83.9713 15.9033 84.7368 16.1835 85.2917 16.7335C85.7874 17.3947 86.0366 18.2096 85.9959 19.0364V24.6355H84.0782V19.1417C84.1192 18.7157 83.9959 18.29 83.7336 17.9527C83.0662 17.4727 82.1688 17.4727 81.5013 17.9527C81.2262 18.1961 81.0282 18.5154 80.932 18.8708V24.7108H79.0293V19.0815C79.0723 18.6706 78.9283 18.2622 78.6375 17.9701C78.3467 17.6779 77.9402 17.5333 77.5312 17.5764C76.8516 17.5213 76.2084 17.8922 75.9131 18.5096V24.6807H73.9805V16.1615H75.7633Z" fill="white"/>
<path fill-rule="evenodd" clip-rule="evenodd" d="M6.44181 9.46387L6.29199 9.93046V23.8682L6.44181 24.0187L12.869 20.1956L6.44181 9.46387Z" fill="#B1B1B1"/>
<path fill-rule="evenodd" clip-rule="evenodd" d="M6.44219 9.46387L0 20.1956L6.44219 24.0187V17.2455V9.46387Z" fill="white"/>
<path fill-rule="evenodd" clip-rule="evenodd" d="M6.44243 25.2381L6.35254 25.3284V30.2954L6.44243 30.5363L12.8846 21.415L6.44243 25.2381Z" fill="#B9B9B9"/>
<path fill-rule="evenodd" clip-rule="evenodd" d="M6.44219 30.5363V25.2381L0 21.415L6.44219 30.5363Z" fill="white"/>
<path fill-rule="evenodd" clip-rule="evenodd" d="M6.44238 24.0183L12.8696 20.1952L6.44238 17.2451V24.0183Z" fill="#919191"/>
<path fill-rule="evenodd" clip-rule="evenodd" d="M0 20.1952L6.44219 24.0183V17.2451L0 20.1952Z" fill="#B6B6B6"/>
</g>
</svg>
