<svg width="86" height="40" viewBox="0 0 86 40" fill="none" xmlns="http://www.w3.org/2000/svg">
<g>
<path d="M21.214 31.3687V8.63184H22.3604V31.3687H21.214ZM33.2538 11.588V11.4741H37.8405V22.8425C37.8405 25.9818 35.2736 28.5267 32.1072 28.5267C28.9408 28.5267 26.3738 25.9818 26.3738 22.8425H30.9605C30.9605 23.4702 31.4737 23.9793 32.1072 23.9793C32.7403 23.9793 33.2538 23.4702 33.2538 22.8425V11.588ZM49.8158 17.577C50.3231 18.1216 50.7145 18.7837 50.9792 19.5451C51.2392 20.2955 51.3711 21.1447 51.3711 22.0694C51.3711 22.2911 51.3626 22.4927 51.3461 22.6687C51.3223 22.9138 51.2998 23.0216 51.2544 23.1128L51.1278 23.3654H43.1949C43.2339 23.5455 43.2917 23.7158 43.3681 23.8735C43.5107 24.17 43.7013 24.4308 43.9343 24.6491C44.1666 24.8667 44.4386 25.0386 44.7429 25.1605C45.0452 25.2819 45.3771 25.3435 45.7293 25.3435C46.4233 25.3435 46.9516 25.193 47.2993 24.8963L47.4853 24.7378L50.8478 25.6663L50.4891 26.19C50.1717 26.6538 49.774 27.0651 49.3069 27.4125C48.8411 27.7588 48.3036 28.0339 47.7091 28.2304C47.1145 28.4271 46.4485 28.5266 45.7293 28.5266C44.9122 28.5266 44.1233 28.3823 43.3846 28.0976C42.6409 27.8113 41.9788 27.3875 41.4169 26.838C40.8562 26.2905 40.4019 25.6138 40.0666 24.8269C39.7307 24.0395 39.5605 23.1346 39.5605 22.1376C39.5605 21.2027 39.7226 20.3407 40.0425 19.5758C40.362 18.813 40.7996 18.1484 41.3433 17.6007C41.8873 17.0534 42.5225 16.6225 43.2319 16.3199C43.9437 16.0161 44.6916 15.8622 45.4541 15.8622C46.3657 15.8622 47.1991 16.0109 47.9309 16.3047C48.6712 16.6014 49.3051 17.0295 49.8158 17.577ZM43.3014 20.5233H47.7016C47.6763 20.4203 47.6442 20.3191 47.6062 20.2204C47.5153 19.986 47.3766 19.7755 47.1938 19.5942C47.009 19.4108 46.7741 19.2607 46.496 19.1477C46.2164 19.0345 45.8736 18.9772 45.477 18.9772C45.1307 18.9772 44.8186 19.0367 44.5501 19.1543C44.2774 19.2739 44.0444 19.4317 43.8573 19.6231C43.6649 19.8203 43.5089 20.0458 43.3938 20.2932C43.358 20.37 43.327 20.4469 43.3014 20.5233ZM71.7184 17.6689C72.2782 18.2323 72.7204 18.9058 73.0325 19.6706C73.3437 20.4351 73.5015 21.2804 73.5015 22.1831C73.5015 23.0855 73.3437 23.934 73.0329 24.705C72.7213 25.4781 72.2787 26.1559 71.7184 26.7197C71.1584 27.2829 70.4915 27.7295 69.7361 28.0471C68.979 28.3652 68.1394 28.5266 67.2407 28.5266C66.3578 28.5266 65.5228 28.3654 64.7586 28.0478C63.9936 27.7297 63.3253 27.2823 62.7721 26.7175C62.2204 26.1543 61.7826 25.4772 61.4714 24.705C61.1606 23.9349 61.0028 23.0864 61.0028 22.1831C61.0028 21.2793 61.1609 20.4341 61.4721 19.6706C61.7835 18.9067 62.2208 18.2339 62.7724 17.6712C63.3253 17.1066 63.9936 16.6589 64.7586 16.3408C65.5228 16.0232 66.3578 15.8622 67.2407 15.8622C68.1394 15.8622 68.979 16.0234 69.7358 16.3415C70.4917 16.6591 71.1586 17.1059 71.7184 17.6689ZM69.6785 23.545C69.8264 23.1589 69.9012 22.7008 69.9012 22.1831C69.9012 21.666 69.8264 21.2124 69.6794 20.8348C69.5342 20.4623 69.3363 20.147 69.0907 19.8969C68.8481 19.65 68.5671 19.464 68.2559 19.3441C67.9356 19.2214 67.5943 19.1591 67.2407 19.1591C66.8871 19.1591 66.5454 19.2214 66.2254 19.3441C65.9161 19.4633 65.6406 19.6477 65.4063 19.8926C65.1643 20.1452 64.9641 20.4642 64.8109 20.8409C64.6579 21.2167 64.5807 21.6681 64.5807 22.1831C64.5807 22.6987 64.6582 23.1551 64.8118 23.5386C64.965 23.9222 65.1648 24.2442 65.4063 24.4959C65.6429 24.7435 65.9209 24.9329 66.2328 25.0586C66.5502 25.1873 66.8894 25.2525 67.2407 25.2525C67.5918 25.2525 67.931 25.1873 68.2488 25.0588C68.5623 24.9319 68.8458 24.7412 69.0907 24.4918C69.3359 24.2423 69.5333 23.9238 69.6785 23.545ZM85.7269 18.8864C85.9083 19.4594 86 20.0787 86 20.7279V28.1855H82.4226V21.1826C82.4226 20.6003 82.2777 20.104 81.9922 19.7074C81.7372 19.3539 81.2778 19.1818 80.588 19.1818C79.9695 19.1818 79.5223 19.3723 79.2214 19.764C78.8909 20.1947 78.7304 20.7106 78.7304 21.3418V28.1855H75.153V16.2032H78.6614V16.8642C78.9056 16.6559 79.1746 16.4833 79.4645 16.3485C80.1273 16.0409 80.8136 15.8849 81.5053 15.8849C82.2559 15.8849 82.9217 16.0134 83.484 16.2667C84.0507 16.5222 84.527 16.8824 84.9001 17.3376C85.2634 17.7821 85.5416 18.303 85.7269 18.8862V18.8864ZM58.7904 25.04C59.0211 25.0113 59.0873 24.9972 59.1023 24.9934L59.6728 24.8508V27.9246L59.385 28.039C59.3201 28.0649 59.1979 28.1072 58.8271 28.2045C58.5255 28.2836 58.1196 28.3221 57.5859 28.3221C56.4271 28.3221 55.4937 27.9878 54.8119 27.3287C54.1264 26.6668 53.779 25.7389 53.779 24.5705V19.4547H52.403V16.2033H53.7785L53.779 12.8153H57.3336V16.2033H59.6499V19.4547H57.3336V24.1382C57.3336 24.4882 57.4043 24.7408 57.5375 24.8686C57.6753 25.0007 57.9379 25.0707 58.2968 25.0707C58.4604 25.0707 58.6262 25.0602 58.7904 25.04ZM1.17975 16.0878C1.08159 16.1137 1.00133 16.0105 1.04995 15.9221C2.13721 13.9449 4.00673 12.3951 6.37436 11.7662C8.74176 11.1375 11.1426 11.553 13.0814 12.7264C13.1681 12.7789 13.1507 12.9081 13.0525 12.9342L1.17975 16.0878ZM15.7361 15.2427C16.2523 16.0033 16.6537 16.8591 16.9064 17.794C17.1591 18.729 17.243 19.6689 17.1797 20.5834C17.1763 20.632 17.1417 20.6732 17.0942 20.6857L1.5895 24.804C1.54203 24.8165 1.49134 24.7981 1.46382 24.7579C0.947825 23.9971 0.546493 23.1415 0.293539 22.2066C0.0410442 21.2716 -0.0431208 20.3317 0.020175 19.417C0.023615 19.3686 0.0582442 19.3274 0.105716 19.3147L15.6104 15.1963C15.6579 15.1838 15.7088 15.2023 15.7361 15.2427ZM16.0203 23.9127C16.1182 23.8868 16.1985 23.99 16.1499 24.0785C15.0628 26.0556 13.1931 27.6054 10.8257 28.2343C8.45807 28.863 6.05742 28.4476 4.11864 27.2741C4.03196 27.2216 4.04939 27.0924 4.14731 27.0663L16.0203 23.9127Z" fill="white"/>
</g>
</svg>
