<svg width="86" height="40" viewBox="0 0 86 40" fill="none" xmlns="http://www.w3.org/2000/svg">
<g>
<path fill-rule="evenodd" clip-rule="evenodd" d="M12.5825 32.4823C5.63338 32.4823 0 26.8227 0 19.8412C0 12.8598 5.63338 7.2002 12.5825 7.2002C19.5316 7.2002 25.165 12.8598 25.165 19.8412C25.165 26.8227 19.5316 32.4823 12.5825 32.4823ZM6.35047 22.8174V14.735L12.5853 20.9988L18.814 14.7411V22.8175H21.6833C22.0039 21.8421 22.1669 20.8215 22.166 19.7943C22.166 14.4768 17.8754 10.1662 12.5825 10.1662C7.28966 10.1662 2.99898 14.4768 2.99898 19.7943C2.99898 20.8506 3.16876 21.8666 3.48168 22.8175H6.35047V22.8174ZM16.7348 24.7758V19.6663L12.55 23.8706L8.39448 19.6958V24.7759H4.38003C6.05954 27.5609 9.10462 29.4223 12.5825 29.4223C16.0605 29.4223 19.1055 27.5609 20.785 24.7759H16.7348V24.7758Z" fill="white"/>
<path d="M39.0564 20.6358L42.1846 14.5525C42.2466 14.4281 42.3292 14.314 42.4324 14.2103C42.546 14.1065 42.6905 14.0547 42.866 14.0547H43.4545C43.5681 14.0547 43.6661 14.0962 43.7487 14.1792C43.8313 14.2621 43.8726 14.3607 43.8726 14.4748V24.5254C43.8726 24.6394 43.8313 24.738 43.7487 24.821C43.6661 24.9039 43.5681 24.9454 43.4545 24.9454H42.8196C42.706 24.9454 42.6079 24.9039 42.5253 24.821C42.4427 24.738 42.4014 24.6394 42.4014 24.5254V17.1508L39.9856 21.8338C39.903 21.9894 39.8153 22.1138 39.7223 22.2072C39.6294 22.2902 39.5055 22.3316 39.3507 22.3316H38.7622C38.6073 22.3316 38.4834 22.2902 38.3905 22.2072C38.2976 22.1138 38.2099 21.9894 38.1273 21.8338L35.7114 17.1508V24.5254C35.7114 24.6394 35.6701 24.738 35.5875 24.821C35.5049 24.9039 35.4069 24.9454 35.2933 24.9454H34.6584C34.5448 24.9454 34.4467 24.9039 34.3641 24.821C34.2815 24.738 34.2402 24.6394 34.2402 24.5254V14.4748C34.2402 14.3607 34.2815 14.2621 34.3641 14.1792C34.4467 14.0962 34.5448 14.0547 34.6584 14.0547H35.2468C35.4223 14.0547 35.5617 14.1065 35.665 14.2103C35.7785 14.314 35.8663 14.4281 35.9282 14.5525L39.0564 20.6358Z" fill="white"/>
<path d="M49.6636 16.6996C50.2211 16.6996 50.7167 16.7877 51.1503 16.9641C51.5839 17.13 51.9556 17.3634 52.2653 17.6642C52.575 17.965 52.8176 18.3332 52.9931 18.7688C53.179 19.1941 53.2925 19.6608 53.3338 20.1691C53.3442 20.2624 53.3493 20.3765 53.3493 20.5113C53.3493 20.6358 53.3493 20.7706 53.3493 20.9159C53.3493 21.0507 53.3493 21.1855 53.3493 21.3204C53.3493 21.4448 53.3442 21.5486 53.3338 21.6315C53.2822 22.1501 53.1686 22.6221 52.9931 23.0473C52.8176 23.4726 52.575 23.8356 52.2653 24.1364C51.9556 24.4372 51.5839 24.6757 51.1503 24.8521C50.7167 25.018 50.2211 25.101 49.6636 25.101C49.1061 25.101 48.6105 25.018 48.1769 24.8521C47.7433 24.6757 47.3717 24.4372 47.0619 24.1364C46.7522 23.8356 46.5044 23.4726 46.3186 23.0473C46.1431 22.6221 46.0347 22.1501 45.9934 21.6315C45.9831 21.5486 45.9727 21.4448 45.9624 21.3204C45.9624 21.1855 45.9624 21.0507 45.9624 20.9159C45.9624 20.7706 45.9624 20.6358 45.9624 20.5113C45.9727 20.3765 45.9831 20.2624 45.9934 20.1691C46.0347 19.6608 46.1431 19.1941 46.3186 18.7688C46.5044 18.3332 46.7522 17.965 47.0619 17.6642C47.3717 17.3634 47.7433 17.13 48.1769 16.9641C48.6105 16.7877 49.1061 16.6996 49.6636 16.6996ZM51.9246 21.5537C51.9452 21.3774 51.9556 21.1648 51.9556 20.9159C51.9556 20.6565 51.9452 20.4335 51.9246 20.2468C51.8936 19.9357 51.8265 19.6453 51.7233 19.3756C51.62 19.1059 51.4755 18.8725 51.2897 18.6755C51.1038 18.4784 50.8767 18.3228 50.6083 18.2087C50.3398 18.0946 50.025 18.0376 49.6636 18.0376C49.3023 18.0376 48.9874 18.0946 48.719 18.2087C48.4505 18.3228 48.2234 18.4784 48.0376 18.6755C47.8517 18.8725 47.7072 19.1059 47.6039 19.3756C47.5007 19.6453 47.4336 19.9357 47.4026 20.2468C47.382 20.4335 47.3717 20.6565 47.3717 20.9159C47.3717 21.1648 47.382 21.3774 47.4026 21.5537C47.4336 21.8649 47.5007 22.1553 47.6039 22.425C47.7072 22.6947 47.8517 22.928 48.0376 23.1251C48.2234 23.3222 48.4505 23.4778 48.719 23.5919C48.9874 23.706 49.3023 23.763 49.6636 23.763C50.025 23.763 50.3398 23.706 50.6083 23.5919C50.8767 23.4778 51.1038 23.3222 51.2897 23.1251C51.4755 22.928 51.62 22.6947 51.7233 22.425C51.8265 22.1553 51.8936 21.8649 51.9246 21.5537Z" fill="white"/>
<path d="M62.4575 24.5254C62.4575 24.6394 62.4162 24.738 62.3336 24.821C62.251 24.9039 62.1529 24.9454 62.0394 24.9454H61.4664C61.3528 24.9454 61.2547 24.9039 61.1721 24.821C61.0895 24.738 61.0482 24.6394 61.0482 24.5254V20.418C61.0482 19.6193 60.8572 19.0229 60.4753 18.6288C60.0933 18.2347 59.5616 18.0376 58.8802 18.0376C58.2298 18.0376 57.7032 18.2347 57.3006 18.6288C56.9083 19.0229 56.7121 19.6193 56.7121 20.418V24.5254C56.7121 24.6394 56.6708 24.738 56.5882 24.821C56.5056 24.9039 56.4076 24.9454 56.294 24.9454H55.721C55.6074 24.9454 55.5094 24.9039 55.4268 24.821C55.3442 24.738 55.3029 24.6394 55.3029 24.5254V17.2752C55.3029 17.1611 55.3442 17.0626 55.4268 16.9796C55.5094 16.8967 55.6074 16.8552 55.721 16.8552H56.294C56.4076 16.8552 56.5056 16.8967 56.5882 16.9796C56.6708 17.0626 56.7121 17.1611 56.7121 17.2752V17.7575C56.9083 17.4982 57.1973 17.2597 57.5793 17.0419C57.9717 16.8137 58.4827 16.6996 59.1125 16.6996C59.5977 16.6996 60.0468 16.7826 60.4598 16.9485C60.8727 17.1041 61.2238 17.3323 61.5128 17.6331C61.8122 17.9235 62.0445 18.2865 62.2097 18.7221C62.3749 19.1578 62.4575 19.6453 62.4575 20.1846V24.5254Z" fill="white"/>
<path d="M64.3378 20.1224C64.3791 19.6453 64.4927 19.1993 64.6785 18.7844C64.8644 18.3695 65.107 18.0065 65.4064 17.6953C65.7058 17.3841 66.062 17.1404 66.4749 16.9641C66.8982 16.7877 67.368 16.6996 67.8842 16.6996C68.4417 16.6996 68.9372 16.7929 69.3708 16.9796C69.8148 17.156 70.1916 17.4153 70.5013 17.7575C70.8111 18.0998 71.0485 18.5147 71.2137 19.0022C71.3789 19.4897 71.4615 20.0342 71.4615 20.6358V21.0559C71.4615 21.17 71.4202 21.2685 71.3376 21.3515C71.255 21.4345 71.1569 21.4759 71.0433 21.4759H65.7161V21.5693C65.7368 22.2746 65.9484 22.8191 66.351 23.2029C66.764 23.5763 67.275 23.763 67.8842 23.763C68.452 23.763 68.8753 23.6852 69.154 23.5296C69.4431 23.3637 69.6754 23.1822 69.8509 22.9851C69.9335 22.9021 70.0058 22.8451 70.0677 22.814C70.1297 22.7828 70.2226 22.7673 70.3465 22.7673H70.8111C70.9246 22.7673 71.0279 22.8088 71.1208 22.8917C71.2137 22.9747 71.2498 23.0733 71.2292 23.1873C71.1982 23.374 71.1105 23.5815 70.9659 23.8097C70.8214 24.0275 70.6097 24.2349 70.331 24.432C70.0626 24.6187 69.7219 24.7795 69.3089 24.9143C68.9063 25.0388 68.4313 25.101 67.8842 25.101C67.368 25.101 66.9034 25.0128 66.4904 24.8365C66.0775 24.6498 65.7161 24.4009 65.4064 24.0897C65.107 23.7682 64.8644 23.3948 64.6785 22.9695C64.4927 22.5339 64.3791 22.062 64.3378 21.5537C64.2862 21.0766 64.2862 20.5995 64.3378 20.1224ZM65.7161 20.1691H70.0677V20.1224C70.0677 19.4897 69.8664 18.9866 69.4638 18.6132C69.0714 18.2295 68.5449 18.0376 67.8842 18.0376C67.5848 18.0376 67.306 18.0894 67.0479 18.1932C66.7898 18.2865 66.5627 18.4265 66.3665 18.6132C66.1704 18.7896 66.0155 19.0074 65.9019 19.2667C65.7884 19.526 65.7264 19.8112 65.7161 20.1224V20.1691Z" fill="white"/>
<path d="M77.4181 16.8552C77.5317 16.8552 77.6297 16.8967 77.7123 16.9796C77.7949 17.0626 77.8362 17.1611 77.8362 17.2752V17.7731C77.8362 17.8872 77.7949 17.9857 77.7123 18.0687C77.6297 18.1517 77.5317 18.1932 77.4181 18.1932H76.5199C75.3326 18.1932 74.739 18.7896 74.739 19.9824V24.5254C74.739 24.6394 74.6977 24.738 74.6151 24.821C74.5325 24.9039 74.4344 24.9454 74.3209 24.9454H73.7479C73.6343 24.9454 73.5362 24.9039 73.4536 24.821C73.371 24.738 73.3297 24.6394 73.3297 24.5254V17.2752C73.3297 17.1611 73.371 17.0626 73.4536 16.9796C73.5362 16.8967 73.6343 16.8552 73.7479 16.8552H74.3209C74.4344 16.8552 74.5325 16.8967 74.6151 16.9796C74.6977 17.0626 74.739 17.1611 74.739 17.2752V17.7575C74.9455 17.4464 75.1932 17.2182 75.4823 17.073C75.7714 16.9278 76.1482 16.8552 76.6128 16.8552H77.4181Z" fill="white"/>
<path d="M82.3146 16.6996C82.8721 16.6996 83.3677 16.7877 83.8013 16.9641C84.2349 17.13 84.6066 17.3634 84.9163 17.6642C85.226 17.965 85.4686 18.3332 85.6441 18.7688C85.83 19.1941 85.9435 19.6608 85.9848 20.1691C85.9952 20.2624 86.0003 20.3765 86.0003 20.5113C86.0003 20.6358 86.0003 20.7706 86.0003 20.9159C86.0003 21.0507 86.0003 21.1855 86.0003 21.3204C86.0003 21.4448 85.9952 21.5486 85.9848 21.6315C85.9332 22.1501 85.8197 22.6221 85.6441 23.0473C85.4686 23.4726 85.226 23.8356 84.9163 24.1364C84.6066 24.4372 84.2349 24.6757 83.8013 24.8521C83.3677 25.018 82.8721 25.101 82.3146 25.101C81.7571 25.101 81.2616 25.018 80.8279 24.8521C80.3943 24.6757 80.0227 24.4372 79.7129 24.1364C79.4032 23.8356 79.1554 23.4726 78.9696 23.0473C78.7941 22.6221 78.6857 22.1501 78.6444 21.6315C78.6341 21.5486 78.6237 21.4448 78.6134 21.3204C78.6134 21.1855 78.6134 21.0507 78.6134 20.9159C78.6134 20.7706 78.6134 20.6358 78.6134 20.5113C78.6237 20.3765 78.6341 20.2624 78.6444 20.1691C78.6857 19.6608 78.7941 19.1941 78.9696 18.7688C79.1554 18.3332 79.4032 17.965 79.7129 17.6642C80.0227 17.3634 80.3943 17.13 80.8279 16.9641C81.2616 16.7877 81.7571 16.6996 82.3146 16.6996ZM84.5756 21.5537C84.5962 21.3774 84.6066 21.1648 84.6066 20.9159C84.6066 20.6565 84.5962 20.4335 84.5756 20.2468C84.5446 19.9357 84.4775 19.6453 84.3743 19.3756C84.271 19.1059 84.1265 18.8725 83.9407 18.6755C83.7548 18.4784 83.5277 18.3228 83.2593 18.2087C82.9908 18.0946 82.676 18.0376 82.3146 18.0376C81.9533 18.0376 81.6384 18.0946 81.37 18.2087C81.1015 18.3228 80.8744 18.4784 80.6886 18.6755C80.5027 18.8725 80.3582 19.1059 80.255 19.3756C80.1517 19.6453 80.0846 19.9357 80.0536 20.2468C80.033 20.4335 80.0227 20.6565 80.0227 20.9159C80.0227 21.1648 80.033 21.3774 80.0536 21.5537C80.0846 21.8649 80.1517 22.1553 80.255 22.425C80.3582 22.6947 80.5027 22.928 80.6886 23.1251C80.8744 23.3222 81.1015 23.4778 81.37 23.5919C81.6384 23.706 81.9533 23.763 82.3146 23.763C82.676 23.763 82.9908 23.706 83.2593 23.5919C83.5277 23.4778 83.7548 23.3222 83.9407 23.1251C84.1265 22.928 84.271 22.6947 84.3743 22.425C84.4775 22.1553 84.5446 21.8649 84.5756 21.5537Z" fill="white"/>
</g>
</svg>
