<svg width="130" height="46" viewBox="0 0 130 46" fill="none" xmlns="http://www.w3.org/2000/svg">
  <g clip-path="url(#clip0_1_643)">
    <path
      d="M22.6217 0C3.16704 0 0 3.22 0 23C0 42.78 3.16704 46 22.6217 46C42.0764 46 45.2427 42.78 45.2427 23C45.2427 3.22 42.0764 0 22.6217 0Z"
      fill="#FCEE20" />
    <path
      d="M35.9464 10.3658C33.0978 7.25974 29.2295 5.46893 25.0553 5.3196C19.9069 5.13702 14.9956 7.0039 11.2278 10.576C11.0583 10.7366 10.893 10.8987 10.7305 11.0639C7.26833 14.5847 5.27657 19.235 5.105 24.2355C4.95917 28.4781 6.44768 32.5261 9.29628 35.6322C12.1449 38.7383 16.0132 40.5308 20.1874 40.6798C25.3365 40.861 30.2471 38.9955 34.0155 35.422C37.7822 31.8588 39.9577 26.9998 40.1373 21.7639C40.2832 17.5199 38.795 13.4715 35.9464 10.3658ZM27.261 28.0578C25.6796 29.5567 23.6193 30.3397 21.4588 30.2636C18.0046 30.1409 15.2931 27.1841 15.4128 23.6718C15.4797 21.7377 16.2053 19.9844 17.3576 18.6171C17.5946 18.3496 17.8417 18.0913 18.1006 17.8443C19.6052 16.4711 21.6088 15.6586 23.785 15.7361C25.4576 15.7945 27.008 16.5132 28.1496 17.758C29.2918 19.0028 29.8883 20.6259 29.8302 22.3279C29.7547 24.5235 28.8487 26.5529 27.261 28.0578Z"
      fill="black" />
    <path
      d="M21.3867 32.3647C24.0989 32.461 26.6861 31.4776 28.6713 29.5959C30.6505 27.7134 31.8018 25.159 31.8961 22.4008C32.0183 18.845 29.9541 15.7226 26.9364 14.36C27.0227 14.3614 27.1083 14.3593 27.195 14.3624C29.8403 14.4566 32.2921 15.5921 34.0974 17.5605C35.9029 19.5293 36.8464 22.0951 36.7538 24.785C36.6376 28.1656 35.2413 31.1992 33.0557 33.4217C30.6606 35.8568 27.3168 37.3168 23.6726 37.1873C18.4407 37.0012 14.2964 32.7002 14.1238 27.4576C15.4073 30.2572 18.1484 32.2497 21.3867 32.3647Z"
      fill="white" />
    <path fill-rule="evenodd" clip-rule="evenodd"
      d="M89.4286 5.32414C88.2749 4.67129 86.9482 4.34363 85.4482 4.34363C83.5536 4.34363 81.8545 4.79797 80.3545 5.70275C78.8545 6.60754 77.6848 7.84387 76.8433 9.41C76.0038 10.9779 75.5831 12.7241 75.5831 14.6522C75.5831 16.0934 75.9012 17.391 76.5353 18.5477C77.1694 19.7044 78.0635 20.6092 79.2172 21.2642C80.3709 21.917 81.6996 22.2447 83.1996 22.2447C85.1103 22.2447 86.8177 21.7964 88.3177 20.8997C89.8177 20.0031 90.9832 18.7706 91.8168 17.2028C92.6482 15.637 93.0651 13.8805 93.0651 11.9358C93.0651 10.4945 92.747 9.19663 92.1129 8.04026C91.4788 6.88389 90.5848 5.97875 89.4293 5.32378L89.4286 5.32414ZM87.8844 15.1685C87.4797 16.1469 86.8999 16.9349 86.1408 17.5308C85.3818 18.1266 84.4999 18.4232 83.4951 18.4232C82.4723 18.4232 81.661 18.0545 81.0589 17.3178C80.4568 16.5789 80.1568 15.666 80.1568 14.5769C80.1568 13.453 80.3584 12.4028 80.7628 11.4223C81.1654 10.4418 81.7515 9.6538 82.5186 9.05792C83.2856 8.46417 84.1717 8.16552 85.1761 8.16552C86.1989 8.16552 87.0064 8.53423 87.6001 9.27306C88.1921 10.0101 88.49 10.923 88.49 12.0118C88.49 13.1356 88.2867 14.1876 87.8841 15.1685H87.8844ZM63.2306 16.5135L61.2033 4.49507H55.2437L52.2034 22.0936H56.53L58.4087 11.4347L60.4119 22.0936H64.022L69.6854 11.4347L67.805 22.0936H72.1317L75.1738 4.49507H69.2407L63.2306 16.5135ZM104.076 4.34363C105.576 4.34363 106.903 4.67129 108.056 5.32414C109.212 5.97911 110.106 6.88389 110.74 8.04026C111.374 9.19663 111.693 10.4945 111.693 11.9358C111.693 13.8805 111.276 15.637 110.444 17.2028C109.611 18.7706 108.445 20.0031 106.945 20.8997C105.445 21.7964 103.738 22.2447 101.827 22.2447C100.327 22.2447 98.9983 21.917 97.8446 21.2642C96.6909 20.6092 95.7971 19.7044 95.1627 18.5477C94.5286 17.391 94.2105 16.0934 94.2105 14.6522C94.2105 12.7241 94.6316 10.9779 95.471 9.41C96.3126 7.84387 97.4823 6.60754 98.9823 5.70275C100.482 4.79797 102.181 4.34363 104.076 4.34363ZM104.769 17.5308C105.528 16.9349 106.107 16.1469 106.512 15.1685H106.512C106.915 14.1876 107.118 13.1356 107.118 12.0118C107.118 10.923 106.82 10.0101 106.228 9.27306C105.634 8.53423 104.827 8.16552 103.804 8.16552C102.799 8.16552 101.913 8.46417 101.146 9.05792C100.379 9.6538 99.7932 10.4418 99.3905 11.4223C98.9861 12.4028 98.7846 13.453 98.7846 14.5769C98.7846 15.666 99.0846 16.5789 99.6867 17.3178C100.289 18.0545 101.1 18.4232 102.123 18.4232C103.128 18.4232 104.01 18.1266 104.769 17.5308ZM125.524 4.49507L123.795 14.2248L119.269 4.49507H115.163L112.123 22.0936H116.599L118.328 12.3639L122.879 22.0936H126.96L130 4.49507H125.524ZM67.014 35.8735L71.9344 24.0579H76.5833L68.8439 41.6564H63.6514L63.1321 31.1734L59.0028 41.6564H53.8102L52.2034 24.0579L56.8523 24.0087L57.4948 35.8735L62.3911 24.0579H66.3475L67.014 35.8735ZM77.9566 24.0335L74.9163 41.6316H79.4664L82.5067 24.0335H77.9566ZM93.8621 33.7628L95.5915 24.0335H100.067L97.0271 41.6316H92.9461L88.3957 31.9023L86.6663 41.6316H82.1907L85.2307 24.0335H89.336L93.8621 33.7628ZM105.009 25.6794C105.367 25.3984 105.784 25.2572 106.26 25.2572C106.674 25.2572 107.009 25.38 107.264 25.6263C107.521 25.8719 107.659 26.2016 107.68 26.6149H109.236C109.236 26.0735 109.126 25.599 108.905 25.1928C108.684 24.7873 108.361 24.4696 107.937 24.2413C107.513 24.0131 107.01 23.8992 106.429 23.8992C105.602 23.8992 104.878 24.0941 104.258 24.4823C103.637 24.8705 103.159 25.3998 102.822 26.07C102.486 26.7395 102.318 27.4843 102.318 28.3035C102.318 28.9241 102.442 29.4758 102.691 29.9609C102.939 30.4457 103.301 30.8253 103.774 31.0992C104.247 31.3734 104.802 31.5111 105.44 31.5111C106.302 31.5111 107.037 31.2684 107.643 30.7843C108.249 30.2995 108.664 29.6293 108.889 28.7745H107.323C107.14 29.2086 106.9 29.5473 106.602 29.7893C106.304 30.032 105.928 30.153 105.472 30.153C104.995 30.153 104.615 29.9797 104.332 29.6343C104.048 29.2886 103.906 28.8456 103.906 28.3035C103.906 27.7692 104.001 27.2685 104.19 26.8021C104.379 26.3354 104.652 25.9614 105.01 25.6794H105.009ZM113.771 23.8995C114.395 23.8995 114.947 24.0368 115.427 24.311V24.3117C115.908 24.586 116.279 24.9681 116.542 25.4554C116.805 25.9437 116.936 26.4946 116.936 27.1075C116.936 27.9263 116.763 28.6715 116.415 29.3417C116.069 30.0108 115.58 30.5401 114.949 30.9283C114.318 31.3172 113.596 31.5115 112.783 31.5115C112.16 31.5115 111.606 31.3738 111.122 31.0996C110.638 30.8257 110.265 30.4443 110.002 29.9559C109.74 29.4676 109.608 28.9167 109.608 28.3038C109.608 27.4847 109.783 26.7398 110.133 26.0704C110.484 25.4002 110.977 24.8708 111.611 24.4827C112.245 24.0945 112.965 23.8995 113.771 23.8995ZM114.182 29.7309C114.553 29.4489 114.84 29.0791 115.044 28.6195C115.247 28.1598 115.349 27.6662 115.349 27.139C115.349 26.5965 115.196 26.1486 114.891 25.7915C114.587 25.4356 114.182 25.2572 113.677 25.2572C113.186 25.2572 112.751 25.3984 112.373 25.6794C111.994 25.961 111.703 26.3329 111.501 26.7968C111.298 27.26 111.196 27.755 111.196 28.2826C111.196 28.6315 111.266 28.9482 111.406 29.2337C111.546 29.5186 111.744 29.7433 112 29.9068C112.255 30.0713 112.552 30.153 112.888 30.153C113.379 30.153 113.81 30.0118 114.182 29.7309ZM124.584 23.9639L121.64 29.4588L120.557 23.9639H118.518L117.214 31.4467H118.728L119.601 26.4331L120.652 31.4467H121.934L124.71 26.4331L123.827 31.4467H125.341L126.634 23.9639H124.584ZM100.538 30.1619C100.701 30.0076 100.913 29.9273 101.135 29.9351C101.315 29.9414 101.482 30.0189 101.604 30.1527C101.727 30.2868 101.791 30.4612 101.785 30.6442C101.777 30.8699 101.684 31.0794 101.521 31.2333C101.359 31.3876 101.147 31.4679 100.925 31.4601C100.745 31.4538 100.578 31.3763 100.455 31.2425C100.332 31.1084 100.268 30.934 100.275 30.751C100.282 30.5355 100.368 30.3349 100.517 30.1831C100.522 30.1781 100.527 30.1734 100.531 30.1688C100.534 30.1665 100.536 30.1642 100.538 30.1619Z"
      fill="white" />
  </g>
  <defs>
    <clipPath id="clip0_1_643">
      <rect width="130" height="46" fill="white" />
    </clipPath>
  </defs>
</svg>